<?xml version="1.0" encoding="UTF-8" standalone="no"?>
<!DOCTYPE svg PUBLIC "-//W3C//DTD SVG 1.1//EN"
 "http://www.w3.org/Graphics/SVG/1.1/DTD/svg11.dtd">
<!-- Generated by graphviz version 2.44.1 (20210116.0638)
 -->
<!-- Title: graphname Pages: 1 -->
<svg width="448pt" height="44pt"
 viewBox="0.00 0.00 448.43 44.00" xmlns="http://www.w3.org/2000/svg" xmlns:xlink="http://www.w3.org/1999/xlink">
<g id="graph0" class="graph" transform="scale(1 1) rotate(0) translate(4 40)">
<title>graphname</title>
<polygon fill="white" stroke="transparent" points="-4,4 -4,-40 444.43,-40 444.43,4 -4,4"/>
<!-- 1 -->
<g id="node1" class="node">
<title>1</title>
<polygon fill="none" stroke="black" points="54,-36 0,-36 0,0 54,0 54,-36"/>
<text text-anchor="middle" x="27" y="-13.8" font-family="Times,serif" font-size="14.00">q₀</text>
</g>
<!-- 2 -->
<g id="node2" class="node">
<title>2</title>
<polygon fill="none" stroke="black" points="150.21,-36 96.21,-36 96.21,0 150.21,0 150.21,-36"/>
<text text-anchor="middle" x="123.21" y="-13.8" font-family="Times,serif" font-size="14.00">q₁</text>
</g>
<!-- 1&#45;&gt;2 -->
<g id="edge1" class="edge">
<title>1&#45;&gt;2</title>
<path fill="none" stroke="black" d="M54.24,-18C64.04,-18 75.36,-18 85.9,-18"/>
<polygon fill="black" stroke="black" points="86.11,-21.5 96.11,-18 86.11,-14.5 86.11,-21.5"/>
<text text-anchor="middle" x="75.11" y="-22.2" font-family="Times,serif" font-size="14.00">a</text>
</g>
<!-- 3 -->
<g id="node3" class="node">
<title>3</title>
<polygon fill="none" stroke="black" points="247.21,-36 193.21,-36 193.21,0 247.21,0 247.21,-36"/>
<text text-anchor="middle" x="220.21" y="-13.8" font-family="Times,serif" font-size="14.00">q₀</text>
</g>
<!-- 2&#45;&gt;3 -->
<g id="edge2" class="edge">
<title>2&#45;&gt;3</title>
<path fill="none" stroke="black" d="M150.43,-18C160.5,-18 172.18,-18 183.03,-18"/>
<polygon fill="black" stroke="black" points="183.09,-21.5 193.09,-18 183.09,-14.5 183.09,-21.5"/>
<text text-anchor="middle" x="171.71" y="-22.2" font-family="Times,serif" font-size="14.00">b</text>
</g>
<!-- 4 -->
<g id="node4" class="node">
<title>4</title>
<polygon fill="none" stroke="black" points="343.43,-36 289.43,-36 289.43,0 343.43,0 343.43,-36"/>
<text text-anchor="middle" x="316.43" y="-13.8" font-family="Times,serif" font-size="14.00">q₁</text>
</g>
<!-- 3&#45;&gt;4 -->
<g id="edge3" class="edge">
<title>3&#45;&gt;4</title>
<path fill="none" stroke="black" d="M247.46,-18C257.26,-18 268.57,-18 279.12,-18"/>
<polygon fill="black" stroke="black" points="279.33,-21.5 289.33,-18 279.33,-14.5 279.33,-21.5"/>
<text text-anchor="middle" x="268.32" y="-22.2" font-family="Times,serif" font-size="14.00">a</text>
</g>
<!-- 5 -->
<g id="node5" class="node">
<title>5</title>
<polygon fill="lightgrey" stroke="black" stroke-width="2" points="440.43,-36 386.43,-36 386.43,0 440.43,0 440.43,-36"/>
<text text-anchor="middle" x="413.43" y="-13.8" font-family="Times,serif" font-size="14.00">q₀</text>
</g>
<!-- 4&#45;&gt;5 -->
<g id="edge4" class="edge">
<title>4&#45;&gt;5</title>
<path fill="none" stroke="black" d="M343.64,-18C353.71,-18 365.39,-18 376.24,-18"/>
<polygon fill="black" stroke="black" points="376.3,-21.5 386.3,-18 376.3,-14.5 376.3,-21.5"/>
<text text-anchor="middle" x="364.93" y="-22.2" font-family="Times,serif" font-size="14.00">b</text>
</g>
</g>
</svg>
