<?xml version="1.0" encoding="UTF-8" standalone="no"?>
<!DOCTYPE svg PUBLIC "-//W3C//DTD SVG 1.1//EN"
 "http://www.w3.org/Graphics/SVG/1.1/DTD/svg11.dtd">
<!-- Generated by graphviz version 2.44.1 (20210116.0638)
 -->
<!-- Title: graphname Pages: 1 -->
<svg width="568pt" height="203pt"
 viewBox="0.00 0.00 568.42 202.80" xmlns="http://www.w3.org/2000/svg" xmlns:xlink="http://www.w3.org/1999/xlink">
<g id="graph0" class="graph" transform="scale(1 1) rotate(0) translate(4 198.8)">
<title>graphname</title>
<polygon fill="white" stroke="transparent" points="-4,4 -4,-198.8 564.42,-198.8 564.42,4 -4,4"/>
<!-- start -->
<g id="node1" class="node">
<title>start</title>
</g>
<!-- 1 -->
<g id="node2" class="node">
<title>1</title>
<ellipse fill="none" stroke="black" cx="70.38" cy="-18" rx="32.25" ry="18"/>
<text text-anchor="middle" x="70.38" y="-13.8" font-family="Times,serif" font-size="14.00">{q₀}</text>
</g>
<!-- start&#45;&gt;1 -->
<g id="edge1" class="edge">
<title>start&#45;&gt;1</title>
<path fill="none" stroke="black" d="M1.05,-18C1.92,-18 14,-18 27.77,-18"/>
<polygon fill="black" stroke="black" points="37.96,-18 27.96,-22.5 32.96,-18 27.96,-18 27.96,-18 27.96,-18 32.96,-18 27.96,-13.5 37.96,-18 37.96,-18"/>
</g>
<!-- 1&#45;&gt;1 -->
<g id="edge2" class="edge">
<title>1&#45;&gt;1</title>
<path fill="none" stroke="black" d="M61.45,-35.41C59.78,-45.09 62.76,-54 70.38,-54 75.14,-54 78.08,-50.52 79.22,-45.54"/>
<polygon fill="black" stroke="black" points="82.72,-45.44 79.3,-35.41 75.72,-45.38 82.72,-45.44"/>
<text text-anchor="middle" x="70.38" y="-58.2" font-family="Times,serif" font-size="14.00">a</text>
</g>
<!-- 2 -->
<g id="node3" class="node">
<title>2</title>
<ellipse fill="none" stroke="black" cx="195.03" cy="-74" rx="49.05" ry="18"/>
<text text-anchor="middle" x="195.03" y="-69.8" font-family="Times,serif" font-size="14.00">{q₀, q₁}</text>
</g>
<!-- 1&#45;&gt;2 -->
<g id="edge3" class="edge">
<title>1&#45;&gt;2</title>
<path fill="none" stroke="black" d="M95.9,-29.2C112.6,-36.82 135.08,-47.09 154.31,-55.87"/>
<polygon fill="black" stroke="black" points="152.9,-59.07 163.45,-60.04 155.81,-52.7 152.9,-59.07"/>
<text text-anchor="middle" x="124.25" y="-47.2" font-family="Times,serif" font-size="14.00">b</text>
</g>
<!-- 3 -->
<g id="node4" class="node">
<title>3</title>
<ellipse fill="lightgrey" stroke="black" stroke-width="2" cx="511.15" cy="-69" rx="49.05" ry="18"/>
<text text-anchor="middle" x="511.15" y="-64.8" font-family="Times,serif" font-size="14.00">{q₀, q₂}</text>
</g>
<!-- 2&#45;&gt;3 -->
<g id="edge4" class="edge">
<title>2&#45;&gt;3</title>
<path fill="none" stroke="black" d="M207.72,-91.63C223.06,-112.98 252.2,-147.83 287.31,-162 341.85,-184.01 365.47,-184.88 419.66,-162 451.54,-148.54 477.74,-117.75 493.6,-95.27"/>
<polygon fill="black" stroke="black" points="496.62,-97.05 499.36,-86.82 490.83,-93.11 496.62,-97.05"/>
<text text-anchor="middle" x="353.48" y="-182.2" font-family="Times,serif" font-size="14.00">a</text>
</g>
<!-- 4 -->
<g id="node5" class="node">
<title>4</title>
<ellipse fill="lightgrey" stroke="black" stroke-width="2" cx="353.48" cy="-101" rx="66.35" ry="18"/>
<text text-anchor="middle" x="353.48" y="-96.8" font-family="Times,serif" font-size="14.00">{q₀, q₁, q₂}</text>
</g>
<!-- 2&#45;&gt;4 -->
<g id="edge5" class="edge">
<title>2&#45;&gt;4</title>
<path fill="none" stroke="black" d="M240.03,-81.59C254.56,-84.1 271.05,-86.95 286.84,-89.67"/>
<polygon fill="black" stroke="black" points="286.64,-93.19 297.09,-91.44 287.83,-86.29 286.64,-93.19"/>
<text text-anchor="middle" x="265.81" y="-89.2" font-family="Times,serif" font-size="14.00">b</text>
</g>
<!-- 3&#45;&gt;1 -->
<g id="edge6" class="edge">
<title>3&#45;&gt;1</title>
<path fill="none" stroke="black" d="M469.34,-59.36C453.85,-55.98 436.01,-52.43 419.66,-50 309.57,-33.63 178.58,-24.3 113.06,-20.32"/>
<polygon fill="black" stroke="black" points="112.93,-16.8 102.74,-19.7 112.51,-23.79 112.93,-16.8"/>
<text text-anchor="middle" x="265.81" y="-36.2" font-family="Times,serif" font-size="14.00">a</text>
</g>
<!-- 3&#45;&gt;2 -->
<g id="edge7" class="edge">
<title>3&#45;&gt;2</title>
<path fill="none" stroke="black" d="M465.61,-62.03C451.01,-60.05 434.68,-58.18 419.66,-57.2 360.96,-53.39 345.88,-51.85 287.31,-57.2 274.39,-58.38 260.57,-60.48 247.7,-62.8"/>
<polygon fill="black" stroke="black" points="246.79,-59.41 237.61,-64.7 248.09,-66.29 246.79,-59.41"/>
<text text-anchor="middle" x="353.48" y="-62.2" font-family="Times,serif" font-size="14.00">b</text>
</g>
<!-- 4&#45;&gt;3 -->
<g id="edge8" class="edge">
<title>4&#45;&gt;3</title>
<path fill="none" stroke="black" d="M406.75,-90.26C423.21,-86.87 441.38,-83.14 457.84,-79.75"/>
<polygon fill="black" stroke="black" points="458.75,-83.14 467.84,-77.7 457.34,-76.28 458.75,-83.14"/>
<text text-anchor="middle" x="440.76" y="-87.2" font-family="Times,serif" font-size="14.00">a</text>
</g>
<!-- 4&#45;&gt;4 -->
<g id="edge9" class="edge">
<title>4&#45;&gt;4</title>
<path fill="none" stroke="black" d="M338.02,-118.78C335.39,-128.31 340.55,-137 353.48,-137 361.36,-137 366.35,-133.77 368.46,-129.1"/>
<polygon fill="black" stroke="black" points="371.97,-128.93 368.94,-118.78 364.98,-128.61 371.97,-128.93"/>
<text text-anchor="middle" x="353.48" y="-141.2" font-family="Times,serif" font-size="14.00">b</text>
</g>
</g>
</svg>
