<?xml version="1.0" encoding="UTF-8" standalone="no"?>
<!DOCTYPE svg PUBLIC "-//W3C//DTD SVG 1.1//EN"
 "http://www.w3.org/Graphics/SVG/1.1/DTD/svg11.dtd">
<!-- Generated by graphviz version 2.44.1 (20210116.0638)
 -->
<!-- Title: graphname Pages: 1 -->
<svg width="470pt" height="44pt"
 viewBox="0.00 0.00 470.31 44.00" xmlns="http://www.w3.org/2000/svg" xmlns:xlink="http://www.w3.org/1999/xlink">
<g id="graph0" class="graph" transform="scale(1 1) rotate(0) translate(4 40)">
<title>graphname</title>
<polygon fill="white" stroke="transparent" points="-4,4 -4,-40 466.31,-40 466.31,4 -4,4"/>
<!-- start -->
<g id="node1" class="node">
<title>start</title>
</g>
<!-- 1 -->
<g id="node2" class="node">
<title>1</title>
<polygon fill="none" stroke="black" points="91,-36 37,-36 37,0 91,0 91,-36"/>
<text text-anchor="middle" x="64" y="-13.8" font-family="Times,serif" font-size="14.00">{q₀}</text>
</g>
<!-- start&#45;&gt;1 -->
<g id="edge1" class="edge">
<title>start&#45;&gt;1</title>
<path fill="none" stroke="black" d="M1.04,-18C1.86,-18 13.73,-18 26.87,-18"/>
<polygon fill="black" stroke="black" points="37,-18 27,-22.5 32,-18 27,-18 27,-18 27,-18 32,-18 27,-13.5 37,-18 37,-18"/>
</g>
<!-- 2 -->
<g id="node3" class="node">
<title>2</title>
<polygon fill="none" stroke="black" points="198.66,-36 126.78,-36 126.78,0 198.66,0 198.66,-36"/>
<text text-anchor="middle" x="162.72" y="-13.8" font-family="Times,serif" font-size="14.00">{q₀, q₁}</text>
</g>
<!-- 1&#45;&gt;2 -->
<g id="edge2" class="edge">
<title>1&#45;&gt;2</title>
<path fill="none" stroke="black" d="M91.17,-18C99.05,-18 107.94,-18 116.68,-18"/>
<polygon fill="black" stroke="black" points="116.8,-21.5 126.8,-18 116.8,-14.5 116.8,-21.5"/>
</g>
<!-- 4 -->
<g id="node4" class="node">
<title>4</title>
<polygon fill="lightgrey" stroke="black" stroke-width="2" points="330.34,-36 234.47,-36 234.47,0 330.34,0 330.34,-36"/>
<text text-anchor="middle" x="282.41" y="-13.8" font-family="Times,serif" font-size="14.00">{q₀, q₁, q₂}</text>
</g>
<!-- 2&#45;&gt;4 -->
<g id="edge3" class="edge">
<title>2&#45;&gt;4</title>
<path fill="none" stroke="black" d="M198.71,-18C206.7,-18 215.39,-18 224.04,-18"/>
<polygon fill="black" stroke="black" points="224.13,-21.5 234.13,-18 224.13,-14.5 224.13,-21.5"/>
</g>
<!-- 41 -->
<g id="node5" class="node">
<title>41</title>
<polygon fill="lightgrey" stroke="black" stroke-width="2" points="462.28,-36 366.41,-36 366.41,0 462.28,0 462.28,-36"/>
<text text-anchor="middle" x="414.34" y="-13.8" font-family="Times,serif" font-size="14.00">{q₀, q₁, q₂}</text>
</g>
<!-- 4&#45;&gt;41 -->
<g id="edge4" class="edge">
<title>4&#45;&gt;41</title>
<path fill="none" stroke="black" d="M330.68,-18C338.94,-18 347.6,-18 356.09,-18"/>
<polygon fill="black" stroke="black" points="356.32,-21.5 366.32,-18 356.32,-14.5 356.32,-21.5"/>
</g>
</g>
</svg>
