<?xml version="1.0" encoding="UTF-8" standalone="no"?>
<!DOCTYPE svg PUBLIC "-//W3C//DTD SVG 1.1//EN"
 "http://www.w3.org/Graphics/SVG/1.1/DTD/svg11.dtd">
<!-- Generated by graphviz version 2.44.1 (20210116.0638)
 -->
<!-- Title: graphname Pages: 1 -->
<svg width="511pt" height="101pt"
 viewBox="0.00 0.00 511.00 101.00" xmlns="http://www.w3.org/2000/svg" xmlns:xlink="http://www.w3.org/1999/xlink">
<g id="graph0" class="graph" transform="scale(1 1) rotate(0) translate(4 97)">
<title>graphname</title>
<polygon fill="white" stroke="transparent" points="-4,4 -4,-97 507,-97 507,4 -4,4"/>
<g id="clust3" class="cluster">
<title>cluster_2</title>
<polygon fill="none" stroke="transparent" points="290,-8 290,-85 495,-85 495,-8 290,-8"/>
<text text-anchor="middle" x="392.5" y="-68.4" font-family="Times,serif" font-size="14.00">singleton language {x}</text>
</g>
<g id="clust1" class="cluster">
<title>cluster_0</title>
<polygon fill="none" stroke="transparent" points="4,-8 4,-85 120,-85 120,-8 4,-8"/>
<text text-anchor="middle" x="62" y="-68.4" font-family="Times,serif" font-size="14.00">empty language Ø</text>
</g>
<g id="clust2" class="cluster">
<title>cluster_1</title>
<polygon fill="none" stroke="transparent" points="141,-8 141,-85 269,-85 269,-8 141,-8"/>
<text text-anchor="middle" x="205" y="-68.4" font-family="Times,serif" font-size="14.00">trivial language {ε}</text>
</g>
<!-- start0 -->
<g id="node1" class="node">
<title>start0</title>
</g>
<!-- 0 -->
<g id="node2" class="node">
<title>0</title>
<ellipse fill="none" stroke="black" cx="81" cy="-34" rx="27" ry="18"/>
<text text-anchor="middle" x="81" y="-29.8" font-family="Times,serif" font-size="14.00">q₀</text>
</g>
<!-- start0&#45;&gt;0 -->
<g id="edge1" class="edge">
<title>start0&#45;&gt;0</title>
<path fill="none" stroke="black" d="M17.05,-34C17.88,-34 30.11,-34 43.57,-34"/>
<polygon fill="black" stroke="black" points="53.94,-34 43.94,-38.5 48.94,-34 43.94,-34 43.94,-34 43.94,-34 48.94,-34 43.94,-29.5 53.94,-34 53.94,-34"/>
</g>
<!-- start1 -->
<g id="node3" class="node">
<title>start1</title>
</g>
<!-- 0&#45;&gt;start1 -->
<!-- 1 -->
<g id="node4" class="node">
<title>1</title>
<ellipse fill="lightgrey" stroke="black" stroke-width="2" cx="224" cy="-34" rx="27" ry="18"/>
<text text-anchor="middle" x="224" y="-29.8" font-family="Times,serif" font-size="14.00">q₀</text>
</g>
<!-- start1&#45;&gt;1 -->
<g id="edge2" class="edge">
<title>start1&#45;&gt;1</title>
<path fill="none" stroke="black" d="M160.05,-34C160.88,-34 173.11,-34 186.57,-34"/>
<polygon fill="black" stroke="black" points="196.94,-34 186.94,-38.5 191.94,-34 186.94,-34 186.94,-34 186.94,-34 191.94,-34 186.94,-29.5 196.94,-34 196.94,-34"/>
</g>
<!-- start2 -->
<g id="node5" class="node">
<title>start2</title>
</g>
<!-- 1&#45;&gt;start2 -->
<!-- 2 -->
<g id="node6" class="node">
<title>2</title>
<ellipse fill="lightgrey" stroke="black" stroke-width="2" cx="363" cy="-34" rx="27" ry="18"/>
<text text-anchor="middle" x="363" y="-29.8" font-family="Times,serif" font-size="14.00">q₀</text>
</g>
<!-- start2&#45;&gt;2 -->
<g id="edge3" class="edge">
<title>start2&#45;&gt;2</title>
<path fill="none" stroke="black" d="M299.05,-34C299.88,-34 312.11,-34 325.57,-34"/>
<polygon fill="black" stroke="black" points="335.94,-34 325.94,-38.5 330.94,-34 325.94,-34 325.94,-34 325.94,-34 330.94,-34 325.94,-29.5 335.94,-34 335.94,-34"/>
</g>
<!-- 21 -->
<g id="node7" class="node">
<title>21</title>
<ellipse fill="none" stroke="black" cx="460" cy="-34" rx="27" ry="18"/>
<text text-anchor="middle" x="460" y="-29.8" font-family="Times,serif" font-size="14.00">q₁</text>
</g>
<!-- 2&#45;&gt;21 -->
<g id="edge4" class="edge">
<title>2&#45;&gt;21</title>
<path fill="none" stroke="black" d="M390.21,-34C400.28,-34 411.96,-34 422.81,-34"/>
<polygon fill="black" stroke="black" points="422.87,-37.5 432.87,-34 422.87,-30.5 422.87,-37.5"/>
<text text-anchor="middle" x="411.5" y="-38.2" font-family="Times,serif" font-size="14.00">x</text>
</g>
</g>
</svg>
