<?xml version="1.0" encoding="UTF-8" standalone="no"?>
<!DOCTYPE svg PUBLIC "-//W3C//DTD SVG 1.1//EN"
 "http://www.w3.org/Graphics/SVG/1.1/DTD/svg11.dtd">
<!-- Generated by graphviz version 2.44.1 (20210116.0638)
 -->
<!-- Title: graphname Pages: 1 -->
<svg width="214pt" height="196pt"
 viewBox="0.00 0.00 214.16 196.00" xmlns="http://www.w3.org/2000/svg" xmlns:xlink="http://www.w3.org/1999/xlink">
<g id="graph0" class="graph" transform="scale(1 1) rotate(0) translate(4 192)">
<title>graphname</title>
<polygon fill="white" stroke="transparent" points="-4,4 -4,-192 210.16,-192 210.16,4 -4,4"/>
<g id="clust2" class="cluster">
<title>cluster_1</title>
<polygon fill="none" stroke="black" points="128.16,-8 128.16,-85 198.16,-85 198.16,-8 128.16,-8"/>
<text text-anchor="middle" x="163.16" y="-68.4" font-family="Times,serif" font-size="14.00">M2</text>
</g>
<g id="clust1" class="cluster">
<title>cluster_0</title>
<polygon fill="none" stroke="black" points="128.16,-103 128.16,-180 198.16,-180 198.16,-103 128.16,-103"/>
<text text-anchor="middle" x="163.16" y="-163.4" font-family="Times,serif" font-size="14.00">M1</text>
</g>
<!-- start0 -->
<g id="node1" class="node">
<title>start0</title>
</g>
<!-- 0 -->
<g id="node2" class="node">
<title>0</title>
<ellipse fill="none" stroke="black" cx="65" cy="-82" rx="27" ry="18"/>
</g>
<!-- start0&#45;&gt;0 -->
<g id="edge1" class="edge">
<title>start0&#45;&gt;0</title>
<path fill="none" stroke="black" d="M1.05,-82C1.88,-82 14.11,-82 27.57,-82"/>
<polygon fill="black" stroke="black" points="37.94,-82 27.94,-86.5 32.94,-82 27.94,-82 27.94,-82 27.94,-82 32.94,-82 27.94,-77.5 37.94,-82 37.94,-82"/>
</g>
<!-- 01 -->
<g id="node3" class="node">
<title>01</title>
<ellipse fill="none" stroke="black" cx="163.16" cy="-129" rx="27" ry="18"/>
</g>
<!-- 0&#45;&gt;01 -->
<g id="edge2" class="edge">
<title>0&#45;&gt;01</title>
<path fill="none" stroke="black" d="M87.34,-92.43C100.41,-98.82 117.35,-107.1 131.81,-114.16"/>
<polygon fill="black" stroke="black" points="130.36,-117.35 140.88,-118.6 133.43,-111.06 130.36,-117.35"/>
<text text-anchor="middle" x="114.08" y="-110.2" font-family="Times,serif" font-size="14.00">ε</text>
</g>
<!-- 02 -->
<g id="node4" class="node">
<title>02</title>
<ellipse fill="none" stroke="black" cx="163.16" cy="-34" rx="27" ry="18"/>
</g>
<!-- 0&#45;&gt;02 -->
<g id="edge3" class="edge">
<title>0&#45;&gt;02</title>
<path fill="none" stroke="black" d="M87.34,-71.35C100.41,-64.82 117.35,-56.37 131.81,-49.15"/>
<polygon fill="black" stroke="black" points="133.5,-52.22 140.88,-44.62 130.37,-45.96 133.5,-52.22"/>
<text text-anchor="middle" x="114.08" y="-63.2" font-family="Times,serif" font-size="14.00">ε</text>
</g>
<!-- start01 -->
<g id="node5" class="node">
<title>start01</title>
</g>
<!-- start01&#45;&gt;01 -->
<g id="edge4" class="edge">
<title>start01&#45;&gt;01</title>
<path fill="none" stroke="black" d="M66.07,-134C67.75,-133.91 99.36,-132.27 125.88,-130.89"/>
<polygon fill="black" stroke="black" points="136.08,-130.36 126.33,-135.37 131.09,-130.62 126.1,-130.88 126.1,-130.88 126.1,-130.88 131.09,-130.62 125.86,-126.38 136.08,-130.36 136.08,-130.36"/>
</g>
<!-- start02 -->
<g id="node6" class="node">
<title>start02</title>
</g>
<!-- start02&#45;&gt;02 -->
<g id="edge5" class="edge">
<title>start02&#45;&gt;02</title>
<path fill="none" stroke="black" d="M66.07,-29C67.75,-29.09 99.36,-30.73 125.88,-32.11"/>
<polygon fill="black" stroke="black" points="136.08,-32.64 125.86,-36.62 131.09,-32.38 126.1,-32.12 126.1,-32.12 126.1,-32.12 131.09,-32.38 126.33,-27.63 136.08,-32.64 136.08,-32.64"/>
</g>
</g>
</svg>
