<?xml version="1.0" encoding="UTF-8" standalone="no"?>
<!DOCTYPE svg PUBLIC "-//W3C//DTD SVG 1.1//EN"
 "http://www.w3.org/Graphics/SVG/1.1/DTD/svg11.dtd">
<!-- Generated by graphviz version 2.44.1 (20210116.0638)
 -->
<!-- Title: graphname Pages: 1 -->
<svg width="305pt" height="120pt"
 viewBox="0.00 0.00 305.16 120.00" xmlns="http://www.w3.org/2000/svg" xmlns:xlink="http://www.w3.org/1999/xlink">
<g id="graph0" class="graph" transform="scale(1 1) rotate(0) translate(4 116)">
<title>graphname</title>
<polygon fill="white" stroke="transparent" points="-4,4 -4,-116 301.16,-116 301.16,4 -4,4"/>
<g id="clust2" class="cluster">
<title>cluster_1</title>
<polygon fill="none" stroke="black" points="219.16,-8 219.16,-85 289.16,-85 289.16,-8 219.16,-8"/>
<text text-anchor="middle" x="254.16" y="-68.4" font-family="Times,serif" font-size="14.00">M2</text>
</g>
<g id="clust1" class="cluster">
<title>cluster_0</title>
<polygon fill="none" stroke="black" points="30,-27 30,-104 191,-104 191,-27 30,-27"/>
<text text-anchor="middle" x="110.5" y="-87.4" font-family="Times,serif" font-size="14.00">M1</text>
</g>
<!-- start1 -->
<g id="node1" class="node">
<title>start1</title>
</g>
<!-- 1 -->
<g id="node2" class="node">
<title>1</title>
<ellipse fill="none" stroke="black" cx="65" cy="-53" rx="27" ry="18"/>
</g>
<!-- start1&#45;&gt;1 -->
<g id="edge1" class="edge">
<title>start1&#45;&gt;1</title>
<path fill="none" stroke="black" d="M1.05,-53C1.88,-53 14.11,-53 27.57,-53"/>
<polygon fill="black" stroke="black" points="37.94,-53 27.94,-57.5 32.94,-53 27.94,-53 27.94,-53 27.94,-53 32.94,-53 27.94,-48.5 37.94,-53 37.94,-53"/>
</g>
<!-- 11 -->
<g id="node3" class="node">
<title>11</title>
<ellipse fill="lightgrey" stroke="black" stroke-width="2" cx="156" cy="-53" rx="27" ry="18"/>
</g>
<!-- 1&#45;&gt;11 -->
<!-- 12 -->
<g id="node4" class="node">
<title>12</title>
<ellipse fill="none" stroke="black" cx="254.16" cy="-34" rx="27" ry="18"/>
</g>
<!-- 11&#45;&gt;12 -->
<g id="edge3" class="edge">
<title>11&#45;&gt;12</title>
<path fill="none" stroke="black" d="M182.01,-48.06C192.95,-45.9 205.96,-43.33 217.86,-40.98"/>
<polygon fill="black" stroke="black" points="218.81,-44.36 227.94,-38.98 217.45,-37.49 218.81,-44.36"/>
<text text-anchor="middle" x="205.08" y="-48.2" font-family="Times,serif" font-size="14.00">ε</text>
</g>
<!-- start12 -->
<g id="node5" class="node">
<title>start12</title>
</g>
<!-- start12&#45;&gt;12 -->
<g id="edge4" class="edge">
<title>start12&#45;&gt;12</title>
<path fill="none" stroke="black" d="M157.07,-16.01C158.77,-16.33 191.41,-22.44 218.18,-27.45"/>
<polygon fill="black" stroke="black" points="228.08,-29.3 217.42,-31.89 223.16,-28.38 218.25,-27.46 218.25,-27.46 218.25,-27.46 223.16,-28.38 219.07,-23.04 228.08,-29.3 228.08,-29.3"/>
</g>
</g>
</svg>
