<?xml version="1.0" encoding="UTF-8" standalone="no"?>
<!DOCTYPE svg PUBLIC "-//W3C//DTD SVG 1.1//EN"
 "http://www.w3.org/Graphics/SVG/1.1/DTD/svg11.dtd">
<!-- Generated by graphviz version 2.44.1 (20210116.0638)
 -->
<!-- Title: graphname Pages: 1 -->
<svg width="214pt" height="193pt"
 viewBox="0.00 0.00 214.16 193.00" xmlns="http://www.w3.org/2000/svg" xmlns:xlink="http://www.w3.org/1999/xlink">
<g id="graph0" class="graph" transform="scale(1 1) rotate(0) translate(4 189)">
<title>graphname</title>
<polygon fill="white" stroke="transparent" points="-4,4 -4,-189 210.16,-189 210.16,4 -4,4"/>
<g id="clust1" class="cluster">
<title>cluster_1</title>
<polygon fill="none" stroke="black" points="30,-46 30,-177 198.16,-177 198.16,-46 30,-46"/>
<text text-anchor="middle" x="114.08" y="-160.4" font-family="Times,serif" font-size="14.00">M</text>
</g>
<!-- start2 -->
<g id="node1" class="node">
<title>start2</title>
</g>
<!-- 2 -->
<g id="node2" class="node">
<title>2</title>
<ellipse fill="none" stroke="black" cx="65" cy="-95" rx="27" ry="18"/>
</g>
<!-- start2&#45;&gt;2 -->
<g id="edge1" class="edge">
<title>start2&#45;&gt;2</title>
<path fill="none" stroke="black" d="M1.05,-95C1.88,-95 14.11,-95 27.57,-95"/>
<polygon fill="black" stroke="black" points="37.94,-95 27.94,-99.5 32.94,-95 27.94,-95 27.94,-95 27.94,-95 32.94,-95 27.94,-90.5 37.94,-95 37.94,-95"/>
</g>
<!-- 23 -->
<g id="node3" class="node">
<title>23</title>
<ellipse fill="lightgrey" stroke="black" stroke-width="2" cx="163.16" cy="-18" rx="27" ry="18"/>
</g>
<!-- 2&#45;&gt;23 -->
<g id="edge4" class="edge">
<title>2&#45;&gt;23</title>
<path fill="none" stroke="black" d="M79.44,-79.55C87.75,-70.46 98.92,-59.04 110,-50.2 117.05,-44.57 125.16,-39.13 132.84,-34.38"/>
<polygon fill="black" stroke="black" points="134.8,-37.29 141.59,-29.15 131.21,-31.29 134.8,-37.29"/>
<text text-anchor="middle" x="114.08" y="-54.2" font-family="Times,serif" font-size="14.00">ε</text>
</g>
<!-- 21 -->
<g id="node4" class="node">
<title>21</title>
<ellipse fill="lightgrey" stroke="black" stroke-width="2" cx="163.16" cy="-72" rx="27" ry="18"/>
</g>
<!-- 2&#45;&gt;21 -->
<g id="edge2" class="edge">
<title>2&#45;&gt;21</title>
<path fill="none" stroke="black" d="M94.63,-78.61C99.61,-76.4 104.85,-74.47 110,-73.2 118.36,-71.14 127.69,-70.45 136.13,-70.38"/>
<polygon fill="black" stroke="black" points="92.9,-75.56 85.44,-83.08 95.97,-81.85 92.9,-75.56"/>
<text text-anchor="middle" x="114.08" y="-77.2" font-family="Times,serif" font-size="14.00">ε</text>
</g>
<!-- 2&#45;&gt;21 -->
<!-- 22 -->
<g id="node5" class="node">
<title>22</title>
<ellipse fill="lightgrey" stroke="black" stroke-width="2" cx="163.16" cy="-126" rx="27" ry="18"/>
</g>
<!-- 2&#45;&gt;22 -->
<g id="edge3" class="edge">
<title>2&#45;&gt;22</title>
<path fill="none" stroke="black" d="M99.31,-105.74C112.27,-109.92 126.83,-114.61 138.66,-118.43"/>
<polygon fill="black" stroke="black" points="100.36,-102.4 89.77,-102.66 98.21,-109.06 100.36,-102.4"/>
<text text-anchor="middle" x="114.08" y="-115.2" font-family="Times,serif" font-size="14.00">ε</text>
</g>
<!-- 2&#45;&gt;22 -->
</g>
</svg>
