<?xml version="1.0" encoding="UTF-8" standalone="no"?>
<!DOCTYPE svg PUBLIC "-//W3C//DTD SVG 1.1//EN"
 "http://www.w3.org/Graphics/SVG/1.1/DTD/svg11.dtd">
<!-- Generated by graphviz version 2.44.1 (20210116.0638)
 -->
<!-- Title: graphname Pages: 1 -->
<svg width="458pt" height="76pt"
 viewBox="0.00 0.00 457.59 76.00" xmlns="http://www.w3.org/2000/svg" xmlns:xlink="http://www.w3.org/1999/xlink">
<g id="graph0" class="graph" transform="scale(1 1) rotate(0) translate(4 72)">
<title>graphname</title>
<polygon fill="white" stroke="transparent" points="-4,4 -4,-72 453.59,-72 453.59,4 -4,4"/>
<g id="clust1" class="cluster">
<title>cluster_0</title>
<polygon fill="none" stroke="transparent" points="8,-8 8,-60 263.38,-60 263.38,-8 8,-8"/>
</g>
<g id="clust2" class="cluster">
<title>cluster_1</title>
<polygon fill="none" stroke="transparent" points="284.38,-8 284.38,-60 441.59,-60 441.59,-8 284.38,-8"/>
</g>
<!-- 0 -->
<g id="node1" class="node">
<title>0</title>
</g>
<!-- 1 -->
<g id="node3" class="node">
<title>1</title>
<ellipse fill="none" stroke="black" cx="86.21" cy="-34" rx="27" ry="18"/>
</g>
<!-- 0&#45;&gt;1 -->
<g id="edge1" class="edge">
<title>0&#45;&gt;1</title>
<path fill="none" stroke="black" d="M17.05,-34C18.02,-34 33,-34 48.67,-34"/>
<polygon fill="black" stroke="black" points="48.93,-37.5 58.93,-34 48.93,-30.5 48.93,-37.5"/>
<text text-anchor="middle" x="38.11" y="-38.2" font-family="Times,serif" font-size="14.00">a</text>
</g>
<!-- 3 -->
<g id="node2" class="node">
<title>3</title>
</g>
<!-- 4 -->
<g id="node5" class="node">
<title>4</title>
</g>
<!-- 3&#45;&gt;4 -->
<g id="edge6" class="edge">
<title>3&#45;&gt;4</title>
<path fill="none" stroke="red" d="M263.37,-34C268.65,-34 275.78,-34 281.59,-34"/>
<polygon fill="red" stroke="red" points="274.38,-37.5 284.38,-34 274.38,-30.5 274.38,-37.5"/>
</g>
<!-- 2 -->
<g id="node4" class="node">
<title>2</title>
<ellipse fill="none" stroke="black" cx="184.38" cy="-34" rx="27" ry="18"/>
</g>
<!-- 1&#45;&gt;2 -->
<g id="edge2" class="edge">
<title>1&#45;&gt;2</title>
<path fill="none" stroke="black" d="M113.24,-34C123.71,-34 135.97,-34 147.29,-34"/>
<polygon fill="black" stroke="black" points="147.33,-37.5 157.33,-34 147.33,-30.5 147.33,-37.5"/>
<text text-anchor="middle" x="135.29" y="-38.2" font-family="Times,serif" font-size="14.00">ε</text>
</g>
<!-- 2&#45;&gt;3 -->
<g id="edge3" class="edge">
<title>2&#45;&gt;3</title>
<path fill="none" stroke="black" d="M211.46,-34C222.85,-34 235.54,-34 244.14,-34"/>
<polygon fill="black" stroke="black" points="244.31,-37.5 254.31,-34 244.31,-30.5 244.31,-37.5"/>
<text text-anchor="middle" x="232.88" y="-38.2" font-family="Times,serif" font-size="14.00">b</text>
</g>
<!-- 5 -->
<g id="node6" class="node">
<title>5</title>
<ellipse fill="none" stroke="black" cx="362.59" cy="-34" rx="27" ry="18"/>
</g>
<!-- 4&#45;&gt;5 -->
<g id="edge4" class="edge">
<title>4&#45;&gt;5</title>
<path fill="none" stroke="black" d="M293.42,-34C294.39,-34 309.37,-34 325.04,-34"/>
<polygon fill="black" stroke="black" points="325.3,-37.5 335.3,-34 325.3,-30.5 325.3,-37.5"/>
<text text-anchor="middle" x="314.48" y="-38.2" font-family="Times,serif" font-size="14.00">a</text>
</g>
<!-- 6 -->
<g id="node7" class="node">
<title>6</title>
</g>
<!-- 5&#45;&gt;6 -->
<g id="edge5" class="edge">
<title>5&#45;&gt;6</title>
<path fill="none" stroke="black" d="M389.68,-34C401.06,-34 413.75,-34 422.36,-34"/>
<polygon fill="black" stroke="black" points="422.52,-37.5 432.52,-34 422.52,-30.5 422.52,-37.5"/>
<text text-anchor="middle" x="411.09" y="-38.2" font-family="Times,serif" font-size="14.00">b</text>
</g>
</g>
</svg>
