<?xml version="1.0" encoding="UTF-8" standalone="no"?>
<!DOCTYPE svg PUBLIC "-//W3C//DTD SVG 1.1//EN"
 "http://www.w3.org/Graphics/SVG/1.1/DTD/svg11.dtd">
<!-- Generated by graphviz version 2.44.1 (20210116.0638)
 -->
<!-- Title: graphname Pages: 1 -->
<svg width="370pt" height="76pt"
 viewBox="0.00 0.00 369.59 76.00" xmlns="http://www.w3.org/2000/svg" xmlns:xlink="http://www.w3.org/1999/xlink">
<g id="graph0" class="graph" transform="scale(1 1) rotate(0) translate(4 72)">
<title>graphname</title>
<polygon fill="white" stroke="transparent" points="-4,4 -4,-72 365.59,-72 365.59,4 -4,4"/>
<g id="clust1" class="cluster">
<title>cluster_0</title>
<polygon fill="none" stroke="transparent" points="8,-8 8,-60 219.38,-60 219.38,-8 8,-8"/>
</g>
<g id="clust2" class="cluster">
<title>cluster_1</title>
<polygon fill="none" stroke="transparent" points="240.38,-8 240.38,-60 353.59,-60 353.59,-8 240.38,-8"/>
</g>
<!-- 0 -->
<g id="node1" class="node">
<title>0</title>
</g>
<!-- 1 -->
<g id="node2" class="node">
<title>1</title>
<ellipse fill="none" stroke="black" cx="86.21" cy="-34" rx="27" ry="18"/>
</g>
<!-- 0&#45;&gt;1 -->
<g id="edge1" class="edge">
<title>0&#45;&gt;1</title>
<path fill="none" stroke="black" d="M17.05,-34C18.02,-34 33,-34 48.67,-34"/>
<polygon fill="black" stroke="black" points="48.93,-37.5 58.93,-34 48.93,-30.5 48.93,-37.5"/>
<text text-anchor="middle" x="38.11" y="-38.2" font-family="Times,serif" font-size="14.00">a</text>
</g>
<!-- 2 -->
<g id="node3" class="node">
<title>2</title>
<ellipse fill="lightgrey" stroke="black" stroke-width="2" cx="184.38" cy="-34" rx="27" ry="18"/>
</g>
<!-- 1&#45;&gt;2 -->
<g id="edge2" class="edge">
<title>1&#45;&gt;2</title>
<path fill="none" stroke="black" d="M113.24,-34C123.71,-34 135.97,-34 147.29,-34"/>
<polygon fill="black" stroke="black" points="147.33,-37.5 157.33,-34 147.33,-30.5 147.33,-37.5"/>
<text text-anchor="middle" x="135.29" y="-38.2" font-family="Times,serif" font-size="14.00">ε</text>
</g>
<!-- 4 -->
<g id="node4" class="node">
<title>4</title>
</g>
<!-- 2&#45;&gt;4 -->
<g id="edge4" class="edge">
<title>2&#45;&gt;4</title>
<path fill="none" stroke="red" d="M219.37,-34C226.04,-34 232.54,-34 237.64,-34"/>
<polygon fill="red" stroke="red" points="230.38,-37.5 240.38,-34 230.38,-30.5 230.38,-37.5"/>
</g>
<!-- 5 -->
<g id="node5" class="node">
<title>5</title>
<ellipse fill="lightgrey" stroke="black" stroke-width="2" cx="318.59" cy="-34" rx="27" ry="18"/>
</g>
<!-- 4&#45;&gt;5 -->
<g id="edge3" class="edge">
<title>4&#45;&gt;5</title>
<path fill="none" stroke="black" d="M249.42,-34C250.39,-34 265.37,-34 281.04,-34"/>
<polygon fill="black" stroke="black" points="281.3,-37.5 291.3,-34 281.3,-30.5 281.3,-37.5"/>
<text text-anchor="middle" x="270.48" y="-38.2" font-family="Times,serif" font-size="14.00">a</text>
</g>
</g>
</svg>
