<?xml version="1.0" encoding="UTF-8" standalone="no"?>
<!DOCTYPE svg PUBLIC "-//W3C//DTD SVG 1.1//EN"
 "http://www.w3.org/Graphics/SVG/1.1/DTD/svg11.dtd">
<!-- Generated by graphviz version 2.44.1 (20210116.0638)
 -->
<!-- Title: graphname Pages: 1 -->
<svg width="276pt" height="144pt"
 viewBox="0.00 0.00 276.00 144.00" xmlns="http://www.w3.org/2000/svg" xmlns:xlink="http://www.w3.org/1999/xlink">
<g id="graph0" class="graph" transform="scale(1 1) rotate(0) translate(4 140)">
<title>graphname</title>
<polygon fill="white" stroke="transparent" points="-4,4 -4,-140 272,-140 272,4 -4,4"/>
<g id="clust1" class="cluster">
<title>cluster_0</title>
<polygon fill="none" stroke="transparent" points="8,-8 8,-128 78,-128 78,-8 8,-8"/>
</g>
<g id="clust2" class="cluster">
<title>cluster_1</title>
<polygon fill="none" stroke="transparent" points="99,-8 99,-94 169,-94 169,-8 99,-8"/>
</g>
<g id="clust3" class="cluster">
<title>cluster_2</title>
<polygon fill="none" stroke="transparent" points="190,-8 190,-94 260,-94 260,-8 190,-8"/>
</g>
<!-- 1 -->
<g id="node1" class="node">
<title>1</title>
<ellipse fill="none" stroke="black" cx="43" cy="-34" rx="27" ry="18"/>
</g>
<!-- 1&#45;&gt;1 -->
<g id="edge1" class="edge">
<title>1&#45;&gt;1</title>
<path fill="none" stroke="black" d="M39.02,-52.15C38.41,-61.54 39.73,-70 43,-70 44.99,-70 46.26,-66.86 46.81,-62.28"/>
<polygon fill="black" stroke="black" points="50.31,-62.21 46.98,-52.15 43.31,-62.09 50.31,-62.21"/>
<text text-anchor="middle" x="43" y="-74.2" font-family="Times,serif" font-size="14.00">a</text>
</g>
<!-- 1&#45;&gt;1 -->
<g id="edge2" class="edge">
<title>1&#45;&gt;1</title>
<path fill="none" stroke="black" d="M36.44,-51.7C32.82,-69 35.01,-88 43,-88 49.43,-88 52.1,-75.69 51.01,-61.87"/>
<polygon fill="black" stroke="black" points="54.44,-61.1 49.56,-51.7 47.51,-62.09 54.44,-61.1"/>
<text text-anchor="middle" x="43" y="-92.2" font-family="Times,serif" font-size="14.00">b</text>
</g>
<!-- 2 -->
<g id="node2" class="node">
<title>2</title>
<ellipse fill="none" stroke="black" cx="134" cy="-34" rx="27" ry="18"/>
</g>
<!-- 1&#45;&gt;2 -->
<g id="edge5" class="edge">
<title>1&#45;&gt;2</title>
<path fill="none" stroke="red" d="M78,-34C84.15,-34 90.6,-34 96.82,-34"/>
<polygon fill="red" stroke="red" points="89,-37.5 99,-34 89,-30.5 89,-37.5"/>
</g>
<!-- 2&#45;&gt;2 -->
<g id="edge3" class="edge">
<title>2&#45;&gt;2</title>
<path fill="none" stroke="black" d="M126.14,-51.41C124.68,-61.09 127.3,-70 134,-70 138.19,-70 140.78,-66.52 141.78,-61.54"/>
<polygon fill="black" stroke="black" points="145.28,-61.44 141.86,-51.41 138.28,-61.38 145.28,-61.44"/>
<text text-anchor="middle" x="134" y="-74.2" font-family="Times,serif" font-size="14.00">{a,b}</text>
</g>
<!-- 3 -->
<g id="node3" class="node">
<title>3</title>
<ellipse fill="none" stroke="black" cx="225" cy="-34" rx="27" ry="18"/>
</g>
<!-- 2&#45;&gt;3 -->
<g id="edge6" class="edge">
<title>2&#45;&gt;3</title>
<path fill="none" stroke="red" d="M169,-34C175.15,-34 181.6,-34 187.82,-34"/>
<polygon fill="red" stroke="red" points="180,-37.5 190,-34 180,-30.5 180,-37.5"/>
</g>
<!-- 3&#45;&gt;3 -->
<g id="edge4" class="edge">
<title>3&#45;&gt;3</title>
<path fill="none" stroke="black" d="M217.14,-51.41C215.68,-61.09 218.3,-70 225,-70 229.19,-70 231.78,-66.52 232.78,-61.54"/>
<polygon fill="black" stroke="black" points="236.28,-61.44 232.86,-51.41 229.28,-61.38 236.28,-61.44"/>
<text text-anchor="middle" x="225" y="-74.2" font-family="Times,serif" font-size="14.00">a+b</text>
</g>
</g>
</svg>
