<?xml version="1.0" encoding="UTF-8" standalone="no"?>
<!DOCTYPE svg PUBLIC "-//W3C//DTD SVG 1.1//EN"
 "http://www.w3.org/Graphics/SVG/1.1/DTD/svg11.dtd">
<!-- Generated by graphviz version 2.44.1 (20210116.0638)
 -->
<!-- Title: graphname Pages: 1 -->
<svg width="461pt" height="322pt"
 viewBox="0.00 0.00 461.36 322.00" xmlns="http://www.w3.org/2000/svg" xmlns:xlink="http://www.w3.org/1999/xlink">
<g id="graph0" class="graph" transform="scale(1 1) rotate(0) translate(4 318)">
<title>graphname</title>
<polygon fill="white" stroke="transparent" points="-4,4 -4,-318 457.36,-318 457.36,4 -4,4"/>
<g id="clust2" class="cluster">
<title>cluster_1</title>
<polygon fill="none" stroke="transparent" points="107.34,-68 107.34,-159 300.01,-159 300.01,-68 107.34,-68"/>
</g>
<g id="clust1" class="cluster">
<title>cluster_0</title>
<polygon fill="none" stroke="transparent" points="8,-167 8,-306 300.01,-306 300.01,-167 8,-167"/>
</g>
<g id="clust3" class="cluster">
<title>cluster_2</title>
<polygon fill="none" stroke="transparent" points="230.01,-8 230.01,-60 445.36,-60 445.36,-8 230.01,-8"/>
</g>
<!-- 1 -->
<g id="node1" class="node">
<title>1</title>
<ellipse fill="none" stroke="black" cx="43" cy="-193" rx="27" ry="18"/>
</g>
<!-- 2 -->
<g id="node2" class="node">
<title>2</title>
<ellipse fill="none" stroke="black" cx="265.01" cy="-205" rx="27" ry="18"/>
</g>
<!-- 1&#45;&gt;2 -->
<g id="edge1" class="edge">
<title>1&#45;&gt;2</title>
<path fill="none" stroke="black" d="M70.1,-194.42C109.3,-196.56 183.5,-200.61 227.88,-203.03"/>
<polygon fill="black" stroke="black" points="227.76,-206.53 237.94,-203.58 228.15,-199.54 227.76,-206.53"/>
<text text-anchor="middle" x="142.34" y="-203.2" font-family="Times,serif" font-size="14.00">P</text>
</g>
<!-- 3 -->
<g id="node3" class="node">
<title>3</title>
<ellipse fill="none" stroke="black" cx="142.34" cy="-246" rx="27" ry="18"/>
</g>
<!-- 1&#45;&gt;3 -->
<g id="edge2" class="edge">
<title>1&#45;&gt;3</title>
<path fill="none" stroke="black" d="M64.64,-204.24C78.32,-211.69 96.48,-221.58 111.7,-229.86"/>
<polygon fill="black" stroke="black" points="110.27,-233.07 120.72,-234.78 113.62,-226.92 110.27,-233.07"/>
<text text-anchor="middle" x="92.67" y="-225.2" font-family="Times,serif" font-size="14.00">R</text>
</g>
<!-- 4 -->
<g id="node4" class="node">
<title>4</title>
<ellipse fill="none" stroke="black" cx="142.34" cy="-113" rx="27" ry="18"/>
</g>
<!-- 1&#45;&gt;4 -->
<g id="edge8" class="edge">
<title>1&#45;&gt;4</title>
<path fill="none" stroke="red" d="M75.63,-167C83.24,-160.75 91.48,-153.98 99.47,-147.41"/>
<polygon fill="red" stroke="red" points="101.84,-150 107.34,-140.94 97.39,-144.59 101.84,-150"/>
</g>
<!-- 3&#45;&gt;2 -->
<g id="edge3" class="edge">
<title>3&#45;&gt;2</title>
<path fill="none" stroke="black" d="M166.6,-238.09C184.85,-231.9 210.48,-223.19 230.87,-216.26"/>
<polygon fill="black" stroke="black" points="232.06,-219.55 240.4,-213.02 229.81,-212.92 232.06,-219.55"/>
<text text-anchor="middle" x="203.67" y="-234.2" font-family="Times,serif" font-size="14.00">T</text>
</g>
<!-- 3&#45;&gt;3 -->
<g id="edge4" class="edge">
<title>3&#45;&gt;3</title>
<path fill="none" stroke="black" d="M133.77,-263.41C132.17,-273.09 135.02,-282 142.34,-282 146.91,-282 149.74,-278.52 150.83,-273.54"/>
<polygon fill="black" stroke="black" points="154.33,-273.44 150.91,-263.41 147.33,-273.38 154.33,-273.44"/>
<text text-anchor="middle" x="142.34" y="-286.2" font-family="Times,serif" font-size="14.00">S</text>
</g>
<!-- 5 -->
<g id="node5" class="node">
<title>5</title>
<ellipse fill="none" stroke="black" cx="265.01" cy="-113" rx="27" ry="18"/>
</g>
<!-- 4&#45;&gt;5 -->
<g id="edge5" class="edge">
<title>4&#45;&gt;5</title>
<path fill="none" stroke="black" d="M164.76,-102.41C171.78,-99.47 179.73,-96.68 187.34,-95.2 201.59,-92.43 205.76,-92.43 220.01,-95.2 224.29,-96.03 228.67,-97.28 232.94,-98.74"/>
<polygon fill="black" stroke="black" points="231.99,-102.12 242.58,-102.41 234.49,-95.58 231.99,-102.12"/>
<text text-anchor="middle" x="203.67" y="-99.2" font-family="Times,serif" font-size="14.00">P</text>
</g>
<!-- 4&#45;&gt;5 -->
<g id="edge6" class="edge">
<title>4&#45;&gt;5</title>
<path fill="none" stroke="black" d="M169.52,-113C186.52,-113 208.91,-113 227.63,-113"/>
<polygon fill="black" stroke="black" points="227.88,-116.5 237.88,-113 227.88,-109.5 227.88,-116.5"/>
<text text-anchor="middle" x="203.67" y="-117.2" font-family="Times,serif" font-size="14.00">RS*T</text>
</g>
<!-- 6 -->
<g id="node6" class="node">
<title>6</title>
<ellipse fill="none" stroke="black" cx="265.01" cy="-34" rx="27" ry="18"/>
</g>
<!-- 4&#45;&gt;6 -->
<g id="edge9" class="edge">
<title>4&#45;&gt;6</title>
<path fill="none" stroke="red" d="M212.07,-68C215.27,-65.91 218.44,-63.83 221.53,-61.81"/>
<polygon fill="red" stroke="red" points="223.56,-64.66 230.01,-56.26 219.73,-58.81 223.56,-64.66"/>
</g>
<!-- 7 -->
<g id="node7" class="node">
<title>7</title>
<ellipse fill="none" stroke="black" cx="410.36" cy="-34" rx="27" ry="18"/>
</g>
<!-- 6&#45;&gt;7 -->
<g id="edge7" class="edge">
<title>6&#45;&gt;7</title>
<path fill="none" stroke="black" d="M292.3,-34C314.93,-34 347.82,-34 372.98,-34"/>
<polygon fill="black" stroke="black" points="373.23,-37.5 383.23,-34 373.23,-30.5 373.23,-37.5"/>
<text text-anchor="middle" x="337.68" y="-38.2" font-family="Times,serif" font-size="14.00">P + RS*T</text>
</g>
</g>
</svg>
