<?xml version="1.0" encoding="UTF-8" standalone="no"?>
<!DOCTYPE svg PUBLIC "-//W3C//DTD SVG 1.1//EN"
 "http://www.w3.org/Graphics/SVG/1.1/DTD/svg11.dtd">
<!-- Generated by graphviz version 2.44.1 (20210116.0638)
 -->
<!-- Title: graphname Pages: 1 -->
<svg width="293pt" height="112pt"
 viewBox="0.00 0.00 293.21 112.00" xmlns="http://www.w3.org/2000/svg" xmlns:xlink="http://www.w3.org/1999/xlink">
<g id="graph0" class="graph" transform="scale(1 1) rotate(0) translate(4 108)">
<title>graphname</title>
<polygon fill="white" stroke="transparent" points="-4,4 -4,-108 289.21,-108 289.21,4 -4,4"/>
<!-- start -->
<g id="node1" class="node">
<title>start</title>
</g>
<!-- q₀ -->
<g id="node2" class="node">
<title>q₀</title>
<ellipse fill="lightgrey" stroke="black" stroke-width="2" cx="65" cy="-35" rx="27" ry="18"/>
<text text-anchor="middle" x="65" y="-30.8" font-family="Times,serif" font-size="14.00">q₀</text>
</g>
<!-- start&#45;&gt;q₀ -->
<g id="edge1" class="edge">
<title>start&#45;&gt;q₀</title>
<path fill="none" stroke="black" d="M1.05,-35C1.88,-35 14.11,-35 27.57,-35"/>
<polygon fill="black" stroke="black" points="37.94,-35 27.94,-39.5 32.94,-35 27.94,-35 27.94,-35 27.94,-35 32.94,-35 27.94,-30.5 37.94,-35 37.94,-35"/>
</g>
<!-- q₁ -->
<g id="node3" class="node">
<title>q₁</title>
<ellipse fill="none" stroke="black" cx="162" cy="-55" rx="27" ry="18"/>
<text text-anchor="middle" x="162" y="-50.8" font-family="Times,serif" font-size="14.00">q₁</text>
</g>
<!-- q₀&#45;&gt;q₁ -->
<g id="edge2" class="edge">
<title>q₀&#45;&gt;q₁</title>
<path fill="none" stroke="black" d="M87.45,-45.52C94.47,-48.49 102.42,-51.35 110,-53 114.73,-54.03 119.76,-54.71 124.76,-55.14"/>
<polygon fill="black" stroke="black" points="124.65,-58.64 134.83,-55.72 125.05,-51.65 124.65,-58.64"/>
<text text-anchor="middle" x="113.5" y="-58.2" font-family="Times,serif" font-size="14.00">a</text>
</g>
<!-- q₂ -->
<g id="node4" class="node">
<title>q₂</title>
<ellipse fill="none" stroke="black" cx="258.21" cy="-18" rx="27" ry="18"/>
<text text-anchor="middle" x="258.21" y="-13.8" font-family="Times,serif" font-size="14.00">q₂</text>
</g>
<!-- q₀&#45;&gt;q₂ -->
<g id="edge4" class="edge">
<title>q₀&#45;&gt;q₂</title>
<path fill="none" stroke="black" d="M87.88,-25.36C101.21,-20.02 118.75,-13.92 135,-11.2 163.97,-6.34 197.3,-8.72 221.82,-11.93"/>
<polygon fill="black" stroke="black" points="221.36,-15.39 231.76,-13.33 222.35,-8.46 221.36,-15.39"/>
<text text-anchor="middle" x="162" y="-15.2" font-family="Times,serif" font-size="14.00">b</text>
</g>
<!-- q₁&#45;&gt;q₀ -->
<g id="edge3" class="edge">
<title>q₁&#45;&gt;q₀</title>
<path fill="none" stroke="black" d="M142.08,-42.67C134.58,-38.48 125.69,-34.32 117,-32.2 112.14,-31.02 106.95,-30.49 101.8,-30.39"/>
<polygon fill="black" stroke="black" points="101.32,-26.9 91.43,-30.7 101.53,-33.9 101.32,-26.9"/>
<text text-anchor="middle" x="113.5" y="-36.2" font-family="Times,serif" font-size="14.00">b</text>
</g>
<!-- q₁&#45;&gt;q₂ -->
<g id="edge5" class="edge">
<title>q₁&#45;&gt;q₂</title>
<path fill="none" stroke="black" d="M185.81,-46.04C197.61,-41.41 212.22,-35.67 225.14,-30.6"/>
<polygon fill="black" stroke="black" points="226.59,-33.79 234.62,-26.87 224.03,-27.27 226.59,-33.79"/>
<text text-anchor="middle" x="210.11" y="-41.2" font-family="Times,serif" font-size="14.00">a</text>
</g>
<!-- q₂&#45;&gt;q₂ -->
<g id="edge6" class="edge">
<title>q₂&#45;&gt;q₂</title>
<path fill="none" stroke="black" d="M253.9,-35.78C253.17,-45.31 254.61,-54 258.21,-54 260.41,-54 261.81,-50.77 262.39,-46.1"/>
<polygon fill="black" stroke="black" points="265.9,-45.83 262.53,-35.78 258.9,-45.74 265.9,-45.83"/>
<text text-anchor="middle" x="258.21" y="-58.2" font-family="Times,serif" font-size="14.00">a</text>
</g>
<!-- q₂&#45;&gt;q₂ -->
<g id="edge7" class="edge">
<title>q₂&#45;&gt;q₂</title>
<path fill="none" stroke="black" d="M251.13,-35.42C247.09,-52.79 249.45,-72 258.21,-72 265.27,-72 268.18,-59.56 266.94,-45.65"/>
<polygon fill="black" stroke="black" points="270.34,-44.74 265.3,-35.42 263.42,-45.85 270.34,-44.74"/>
<text text-anchor="middle" x="258.21" y="-76.2" font-family="Times,serif" font-size="14.00">b</text>
</g>
</g>
</svg>
