<?xml version="1.0" encoding="UTF-8" standalone="no"?>
<!DOCTYPE svg PUBLIC "-//W3C//DTD SVG 1.1//EN"
 "http://www.w3.org/Graphics/SVG/1.1/DTD/svg11.dtd">
<!-- Generated by graphviz version 2.44.1 (20210116.0638)
 -->
<!-- Title: graphname Pages: 1 -->
<svg width="379pt" height="48pt"
 viewBox="0.00 0.00 379.00 48.08" xmlns="http://www.w3.org/2000/svg" xmlns:xlink="http://www.w3.org/1999/xlink">
<g id="graph0" class="graph" transform="scale(1 1) rotate(0) translate(4 44.08)">
<title>graphname</title>
<polygon fill="white" stroke="transparent" points="-4,4 -4,-44.08 375,-44.08 375,4 -4,4"/>
<!-- start -->
<g id="node1" class="node">
<title>start</title>
</g>
<!-- q₀ -->
<g id="node2" class="node">
<title>q₀</title>
<ellipse fill="lightgrey" stroke="black" stroke-width="2" cx="65" cy="-22.08" rx="27" ry="18"/>
<text text-anchor="middle" x="65" y="-17.88" font-family="Times,serif" font-size="14.00">q₀</text>
</g>
<!-- start&#45;&gt;q₀ -->
<g id="edge1" class="edge">
<title>start&#45;&gt;q₀</title>
<path fill="none" stroke="black" d="M1.05,-22.08C1.88,-22.08 14.11,-22.08 27.57,-22.08"/>
<polygon fill="black" stroke="black" points="37.94,-22.08 27.94,-26.58 32.94,-22.08 27.94,-22.08 27.94,-22.08 27.94,-22.08 32.94,-22.08 27.94,-17.58 37.94,-22.08 37.94,-22.08"/>
</g>
<!-- q₁ -->
<g id="node3" class="node">
<title>q₁</title>
<ellipse fill="none" stroke="black" cx="162" cy="-22.08" rx="27" ry="18"/>
<text text-anchor="middle" x="162" y="-17.88" font-family="Times,serif" font-size="14.00">q₁</text>
</g>
<!-- q₀&#45;&gt;q₁ -->
<g id="edge2" class="edge">
<title>q₀&#45;&gt;q₁</title>
<path fill="none" stroke="black" d="M92.21,-22.08C102.28,-22.08 113.96,-22.08 124.81,-22.08"/>
<polygon fill="black" stroke="black" points="124.87,-25.58 134.87,-22.08 124.87,-18.58 124.87,-25.58"/>
<text text-anchor="middle" x="113.5" y="-26.28" font-family="Times,serif" font-size="14.00">a</text>
</g>
<!-- q₁&#45;&gt;q₀ -->
<g id="edge3" class="edge">
<title>q₁&#45;&gt;q₀</title>
<path fill="none" stroke="black" d="M143.06,-8.85C133.5,-3.33 121.38,1.28 110,-1.28 105.1,-2.38 100.11,-4.08 95.33,-6.06"/>
<polygon fill="black" stroke="black" points="93.55,-3.03 85.92,-10.38 96.47,-9.39 93.55,-3.03"/>
<text text-anchor="middle" x="113.5" y="-5.28" font-family="Times,serif" font-size="14.00">b</text>
</g>
<!-- q₂ -->
<g id="node4" class="node">
<title>q₂</title>
<ellipse fill="none" stroke="black" cx="253" cy="-22.08" rx="27" ry="18"/>
<text text-anchor="middle" x="253" y="-17.88" font-family="Times,serif" font-size="14.00">q₂</text>
</g>
<!-- q₁&#45;&gt;q₂ -->
<!-- q₃ -->
<g id="node5" class="node">
<title>q₃</title>
<ellipse fill="lightgrey" stroke="black" stroke-width="2" cx="344" cy="-22.08" rx="27" ry="18"/>
<text text-anchor="middle" x="344" y="-17.88" font-family="Times,serif" font-size="14.00">q₃</text>
</g>
<!-- q₂&#45;&gt;q₃ -->
<g id="edge5" class="edge">
<title>q₂&#45;&gt;q₃</title>
<path fill="none" stroke="black" d="M280.22,-22.08C288.55,-22.08 297.91,-22.08 306.82,-22.08"/>
<polygon fill="black" stroke="black" points="306.97,-25.58 316.97,-22.08 306.97,-18.58 306.97,-25.58"/>
</g>
</g>
</svg>
