<?xml version="1.0" encoding="UTF-8" standalone="no"?>
<!DOCTYPE svg PUBLIC "-//W3C//DTD SVG 1.1//EN"
 "http://www.w3.org/Graphics/SVG/1.1/DTD/svg11.dtd">
<!-- Generated by graphviz version 2.44.1 (20210116.0638)
 -->
<!-- Title: graphname Pages: 1 -->
<svg width="293pt" height="136pt"
 viewBox="0.00 0.00 293.43 136.00" xmlns="http://www.w3.org/2000/svg" xmlns:xlink="http://www.w3.org/1999/xlink">
<g id="graph0" class="graph" transform="scale(1 1) rotate(0) translate(4 132)">
<title>graphname</title>
<polygon fill="white" stroke="transparent" points="-4,4 -4,-132 289.43,-132 289.43,4 -4,4"/>
<g id="clust1" class="cluster">
<title>cluster_0</title>
<polygon fill="none" stroke="transparent" points="8,-68 8,-120 277.43,-120 277.43,-68 8,-68"/>
</g>
<g id="clust2" class="cluster">
<title>cluster_1</title>
<polygon fill="none" stroke="transparent" points="104.21,-8 104.21,-60 277.43,-60 277.43,-8 104.21,-8"/>
</g>
<!-- q10 -->
<g id="node1" class="node">
<title>q10</title>
<ellipse fill="none" stroke="black" cx="43" cy="-94" rx="27" ry="18"/>
<text text-anchor="middle" x="43" y="-89.8" font-family="Times,serif" font-size="14.00">q₀</text>
</g>
<!-- q11 -->
<g id="node2" class="node">
<title>q11</title>
<ellipse fill="none" stroke="black" cx="139.21" cy="-94" rx="27" ry="18"/>
<text text-anchor="middle" x="139.21" y="-89.8" font-family="Times,serif" font-size="14.00">q₁</text>
</g>
<!-- q10&#45;&gt;q11 -->
<g id="edge1" class="edge">
<title>q10&#45;&gt;q11</title>
<path fill="none" stroke="black" d="M70.24,-94C80.04,-94 91.36,-94 101.9,-94"/>
<polygon fill="black" stroke="black" points="102.11,-97.5 112.11,-94 102.11,-90.5 102.11,-97.5"/>
<text text-anchor="middle" x="91.11" y="-98.2" font-family="Times,serif" font-size="14.00">a</text>
</g>
<!-- q20 -->
<g id="node4" class="node">
<title>q20</title>
<ellipse fill="none" stroke="black" cx="139.21" cy="-34" rx="27" ry="18"/>
<text text-anchor="middle" x="139.21" y="-29.8" font-family="Times,serif" font-size="14.00">q₀</text>
</g>
<!-- q10&#45;&gt;q20 -->
<g id="edge4" class="edge">
<title>q10&#45;&gt;q20</title>
<path fill="none" stroke="red" d="M84.82,-68C88.4,-65.73 92.02,-63.42 95.62,-61.13"/>
<polygon fill="red" stroke="red" points="97.66,-63.98 104.22,-55.65 93.9,-58.07 97.66,-63.98"/>
</g>
<!-- q12 -->
<g id="node3" class="node">
<title>q12</title>
<ellipse fill="none" stroke="black" cx="242.43" cy="-94" rx="27" ry="18"/>
<text text-anchor="middle" x="242.43" y="-89.8" font-family="Times,serif" font-size="14.00">q₂</text>
</g>
<!-- q11&#45;&gt;q12 -->
<g id="edge2" class="edge">
<title>q11&#45;&gt;q12</title>
<path fill="none" stroke="black" d="M166.28,-94C177.99,-94 192.02,-94 204.77,-94"/>
<polygon fill="black" stroke="black" points="205.1,-97.5 215.1,-94 205.1,-90.5 205.1,-97.5"/>
<text text-anchor="middle" x="190.82" y="-98.2" font-family="Times,serif" font-size="14.00">b</text>
</g>
<!-- q22 -->
<g id="node5" class="node">
<title>q22</title>
<ellipse fill="none" stroke="black" cx="242.43" cy="-34" rx="27" ry="18"/>
<text text-anchor="middle" x="242.43" y="-29.8" font-family="Times,serif" font-size="14.00">q₂</text>
</g>
<!-- q20&#45;&gt;q22 -->
<g id="edge3" class="edge">
<title>q20&#45;&gt;q22</title>
<path fill="none" stroke="black" d="M166.28,-34C177.99,-34 192.02,-34 204.77,-34"/>
<polygon fill="black" stroke="black" points="205.1,-37.5 215.1,-34 205.1,-30.5 205.1,-37.5"/>
<text text-anchor="middle" x="190.82" y="-38.2" font-family="Times,serif" font-size="14.00">ab</text>
</g>
</g>
</svg>
