<?xml version="1.0" encoding="UTF-8" standalone="no"?>
<!DOCTYPE svg PUBLIC "-//W3C//DTD SVG 1.1//EN"
 "http://www.w3.org/Graphics/SVG/1.1/DTD/svg11.dtd">
<!-- Generated by graphviz version 2.44.1 (20210116.0638)
 -->
<!-- Title: graphname Pages: 1 -->
<svg width="317pt" height="79pt"
 viewBox="0.00 0.00 317.15 78.80" xmlns="http://www.w3.org/2000/svg" xmlns:xlink="http://www.w3.org/1999/xlink">
<g id="graph0" class="graph" transform="scale(1 1) rotate(0) translate(4 74.8)">
<title>graphname</title>
<polygon fill="white" stroke="transparent" points="-4,4 -4,-74.8 313.15,-74.8 313.15,4 -4,4"/>
<!-- start -->
<g id="node1" class="node">
<title>start</title>
</g>
<!-- q₀ -->
<g id="node3" class="node">
<title>q₀</title>
<ellipse fill="none" stroke="black" cx="65" cy="-18" rx="27" ry="18"/>
<text text-anchor="middle" x="65" y="-13.8" font-family="Times,serif" font-size="14.00">q₀</text>
</g>
<!-- start&#45;&gt;q₀ -->
<g id="edge1" class="edge">
<title>start&#45;&gt;q₀</title>
<path fill="none" stroke="black" d="M1.05,-18C1.88,-18 14.11,-18 27.57,-18"/>
<polygon fill="black" stroke="black" points="37.94,-18 27.94,-22.5 32.94,-18 27.94,-18 27.94,-18 27.94,-18 32.94,-18 27.94,-13.5 37.94,-18 37.94,-18"/>
</g>
<!-- q₂ -->
<g id="node2" class="node">
<title>q₂</title>
<ellipse fill="lightgrey" stroke="black" stroke-width="2" cx="282.15" cy="-18" rx="27" ry="18"/>
<text text-anchor="middle" x="282.15" y="-13.8" font-family="Times,serif" font-size="14.00">q₂</text>
</g>
<!-- q₀&#45;&gt;q₀ -->
<g id="edge2" class="edge">
<title>q₀&#45;&gt;q₀</title>
<path fill="none" stroke="black" d="M57.14,-35.41C55.68,-45.09 58.3,-54 65,-54 69.19,-54 71.78,-50.52 72.78,-45.54"/>
<polygon fill="black" stroke="black" points="76.28,-45.44 72.86,-35.41 69.28,-45.38 76.28,-45.44"/>
<text text-anchor="middle" x="65" y="-58.2" font-family="Times,serif" font-size="14.00">{a,b}</text>
</g>
<!-- q₁ -->
<g id="node4" class="node">
<title>q₁</title>
<ellipse fill="none" stroke="black" cx="162" cy="-18" rx="27" ry="18"/>
<text text-anchor="middle" x="162" y="-13.8" font-family="Times,serif" font-size="14.00">q₁</text>
</g>
<!-- q₀&#45;&gt;q₁ -->
<g id="edge3" class="edge">
<title>q₀&#45;&gt;q₁</title>
<path fill="none" stroke="black" d="M92.21,-18C102.28,-18 113.96,-18 124.81,-18"/>
<polygon fill="black" stroke="black" points="124.87,-21.5 134.87,-18 124.87,-14.5 124.87,-21.5"/>
<text text-anchor="middle" x="113.5" y="-22.2" font-family="Times,serif" font-size="14.00">b</text>
</g>
<!-- q₁&#45;&gt;q₂ -->
<g id="edge4" class="edge">
<title>q₁&#45;&gt;q₂</title>
<path fill="none" stroke="black" d="M189.22,-18C205.59,-18 226.89,-18 244.87,-18"/>
<polygon fill="black" stroke="black" points="245,-21.5 255,-18 245,-14.5 245,-21.5"/>
<text text-anchor="middle" x="222.08" y="-22.2" font-family="Times,serif" font-size="14.00">{a,b}</text>
</g>
</g>
</svg>
