<?xml version="1.0" encoding="UTF-8" standalone="no"?>
<!DOCTYPE svg PUBLIC "-//W3C//DTD SVG 1.1//EN"
 "http://www.w3.org/Graphics/SVG/1.1/DTD/svg11.dtd">
<!-- Generated by graphviz version 2.44.1 (20210116.0638)
 -->
<!-- Title: graphname Pages: 1 -->
<svg width="294pt" height="152pt"
 viewBox="0.00 0.00 294.00 152.00" xmlns="http://www.w3.org/2000/svg" xmlns:xlink="http://www.w3.org/1999/xlink">
<g id="graph0" class="graph" transform="scale(1 1) rotate(0) translate(4 148)">
<title>graphname</title>
<polygon fill="white" stroke="transparent" points="-4,4 -4,-148 290,-148 290,4 -4,4"/>
<!-- start -->
<g id="node1" class="node">
<title>start</title>
</g>
<!-- 1 -->
<g id="node2" class="node">
<title>1</title>
<polygon fill="none" stroke="black" points="92,-63 38,-63 38,-27 92,-27 92,-63"/>
<text text-anchor="middle" x="65" y="-40.8" font-family="Times,serif" font-size="14.00">q₀</text>
</g>
<!-- start&#45;&gt;1 -->
<g id="edge1" class="edge">
<title>start&#45;&gt;1</title>
<path fill="none" stroke="yellowgreen" d="M1.05,-45C1.88,-45 14.11,-45 27.57,-45"/>
<polygon fill="yellowgreen" stroke="yellowgreen" points="37.94,-45 27.94,-49.5 32.94,-45 27.94,-45 27.94,-45 27.94,-45 32.94,-45 27.94,-40.5 37.94,-45 37.94,-45"/>
</g>
<!-- 11 -->
<g id="node4" class="node">
<title>11</title>
<polygon fill="none" stroke="black" points="189,-90 135,-90 135,-54 189,-54 189,-90"/>
<text text-anchor="middle" x="162" y="-67.8" font-family="Times,serif" font-size="14.00">q₀</text>
</g>
<!-- 1&#45;&gt;11 -->
<g id="edge2" class="edge">
<title>1&#45;&gt;11</title>
<path fill="none" stroke="black" d="M92.21,-52.45C102.39,-55.34 114.21,-58.7 125.15,-61.81"/>
<polygon fill="black" stroke="black" points="124.3,-65.21 134.87,-64.57 126.21,-58.47 124.3,-65.21"/>
<text text-anchor="middle" x="113.5" y="-63.2" font-family="Times,serif" font-size="14.00">b</text>
</g>
<!-- 12 -->
<g id="node6" class="node">
<title>12</title>
<polygon fill="none" stroke="black" points="189,-36 135,-36 135,0 189,0 189,-36"/>
<text text-anchor="middle" x="162" y="-13.8" font-family="Times,serif" font-size="14.00">q₁</text>
</g>
<!-- 1&#45;&gt;12 -->
<g id="edge4" class="edge">
<title>1&#45;&gt;12</title>
<path fill="none" stroke="yellowgreen" d="M92.21,-37.55C102.39,-34.66 114.21,-31.3 125.15,-28.19"/>
<polygon fill="yellowgreen" stroke="yellowgreen" points="126.21,-31.53 134.87,-25.43 124.3,-24.79 126.21,-31.53"/>
<text text-anchor="middle" x="113.5" y="-37.2" font-family="Times,serif" font-size="14.00">b</text>
</g>
<!-- 121 -->
<g id="node3" class="node">
<title>121</title>
<polygon fill="lightgrey" stroke="black" stroke-width="2" points="286,-36 232,-36 232,0 286,0 286,-36"/>
<text text-anchor="middle" x="259" y="-13.8" font-family="Times,serif" font-size="14.00">q₂</text>
</g>
<!-- 111 -->
<g id="node5" class="node">
<title>111</title>
<polygon fill="none" stroke="black" points="286,-144 232,-144 232,-108 286,-108 286,-144"/>
<text text-anchor="middle" x="259" y="-121.8" font-family="Times,serif" font-size="14.00">q₀</text>
</g>
<!-- 11&#45;&gt;111 -->
<g id="edge3" class="edge">
<title>11&#45;&gt;111</title>
<path fill="none" stroke="black" d="M189.21,-86.9C199.7,-92.86 211.93,-99.81 223.15,-106.19"/>
<polygon fill="black" stroke="black" points="221.45,-109.25 231.87,-111.15 224.91,-103.17 221.45,-109.25"/>
<text text-anchor="middle" x="210.5" y="-104.2" font-family="Times,serif" font-size="14.00">b</text>
</g>
<!-- 112 -->
<g id="node7" class="node">
<title>112</title>
<polygon fill="none" stroke="black" points="286,-90 232,-90 232,-54 286,-54 286,-90"/>
<text text-anchor="middle" x="259" y="-67.8" font-family="Times,serif" font-size="14.00">q₁</text>
</g>
<!-- 11&#45;&gt;112 -->
<g id="edge6" class="edge">
<title>11&#45;&gt;112</title>
<path fill="none" stroke="black" d="M189.21,-72C199.28,-72 210.96,-72 221.81,-72"/>
<polygon fill="black" stroke="black" points="221.87,-75.5 231.87,-72 221.87,-68.5 221.87,-75.5"/>
<text text-anchor="middle" x="210.5" y="-76.2" font-family="Times,serif" font-size="14.00">b</text>
</g>
<!-- 12&#45;&gt;121 -->
<g id="edge5" class="edge">
<title>12&#45;&gt;121</title>
<path fill="none" stroke="yellowgreen" d="M189.21,-18C199.28,-18 210.96,-18 221.81,-18"/>
<polygon fill="yellowgreen" stroke="yellowgreen" points="221.87,-21.5 231.87,-18 221.87,-14.5 221.87,-21.5"/>
<text text-anchor="middle" x="210.5" y="-22.2" font-family="Times,serif" font-size="14.00">b</text>
</g>
</g>
</svg>
