<?xml version="1.0" encoding="UTF-8" standalone="no"?>
<!DOCTYPE svg PUBLIC "-//W3C//DTD SVG 1.1//EN"
 "http://www.w3.org/Graphics/SVG/1.1/DTD/svg11.dtd">
<!-- Generated by graphviz version 2.44.1 (20210116.0638)
 -->
<!-- Title: graphname Pages: 1 -->
<svg width="394pt" height="206pt"
 viewBox="0.00 0.00 393.96 206.00" xmlns="http://www.w3.org/2000/svg" xmlns:xlink="http://www.w3.org/1999/xlink">
<g id="graph0" class="graph" transform="scale(1 1) rotate(0) translate(4 202)">
<title>graphname</title>
<polygon fill="white" stroke="transparent" points="-4,4 -4,-202 389.96,-202 389.96,4 -4,4"/>
<!-- start -->
<g id="node1" class="node">
<title>start</title>
</g>
<!-- 1 -->
<g id="node2" class="node">
<title>1</title>
<polygon fill="none" stroke="black" points="92,-63 38,-63 38,-27 92,-27 92,-63"/>
<text text-anchor="middle" x="65" y="-40.8" font-family="Times,serif" font-size="14.00">q₀</text>
</g>
<!-- start&#45;&gt;1 -->
<g id="edge1" class="edge">
<title>start&#45;&gt;1</title>
<path fill="none" stroke="yellowgreen" d="M1.05,-45C1.88,-45 14.11,-45 27.57,-45"/>
<polygon fill="yellowgreen" stroke="yellowgreen" points="37.94,-45 27.94,-49.5 32.94,-45 27.94,-45 27.94,-45 27.94,-45 32.94,-45 27.94,-40.5 37.94,-45 37.94,-45"/>
</g>
<!-- 11 -->
<g id="node5" class="node">
<title>11</title>
<polygon fill="none" stroke="black" points="189,-90 135,-90 135,-54 189,-54 189,-90"/>
<text text-anchor="middle" x="162" y="-67.8" font-family="Times,serif" font-size="14.00">q₀</text>
</g>
<!-- 1&#45;&gt;11 -->
<g id="edge2" class="edge">
<title>1&#45;&gt;11</title>
<path fill="none" stroke="yellowgreen" d="M92.21,-52.45C102.39,-55.34 114.21,-58.7 125.15,-61.81"/>
<polygon fill="yellowgreen" stroke="yellowgreen" points="124.3,-65.21 134.87,-64.57 126.21,-58.47 124.3,-65.21"/>
<text text-anchor="middle" x="113.5" y="-63.2" font-family="Times,serif" font-size="14.00">b</text>
</g>
<!-- 12 -->
<g id="node8" class="node">
<title>12</title>
<polygon fill="none" stroke="black" points="189,-36 135,-36 135,0 189,0 189,-36"/>
<text text-anchor="middle" x="162" y="-13.8" font-family="Times,serif" font-size="14.00">q₁</text>
</g>
<!-- 1&#45;&gt;12 -->
<g id="edge5" class="edge">
<title>1&#45;&gt;12</title>
<path fill="none" stroke="black" d="M92.21,-37.55C102.39,-34.66 114.21,-31.3 125.15,-28.19"/>
<polygon fill="black" stroke="black" points="126.21,-31.53 134.87,-25.43 124.3,-24.79 126.21,-31.53"/>
<text text-anchor="middle" x="113.5" y="-37.2" font-family="Times,serif" font-size="14.00">b</text>
</g>
<!-- 121 -->
<g id="node3" class="node">
<title>121</title>
<polygon fill="lightgrey" stroke="black" stroke-width="2" points="286,-36 232,-36 232,0 286,0 286,-36"/>
<text text-anchor="middle" x="259" y="-13.8" font-family="Times,serif" font-size="14.00">q₂</text>
</g>
<!-- 1211 -->
<g id="node9" class="node">
<title>1211</title>
<polygon fill="none" stroke="black" points="385.93,-36 329.02,-36 329.02,0 385.93,0 385.93,-36"/>
<text text-anchor="middle" x="357.48" y="-13.8" font-family="Times,serif" font-size="14.00">&quot;crash&quot;</text>
</g>
<!-- 121&#45;&gt;1211 -->
<g id="edge7" class="edge">
<title>121&#45;&gt;1211</title>
<path fill="none" stroke="black" d="M286.11,-18C296.17,-18 307.88,-18 318.82,-18"/>
<polygon fill="black" stroke="black" points="319,-21.5 329,-18 319,-14.5 319,-21.5"/>
<text text-anchor="middle" x="307.5" y="-22.2" font-family="Times,serif" font-size="14.00">b</text>
</g>
<!-- 1121 -->
<g id="node4" class="node">
<title>1121</title>
<polygon fill="lightgrey" stroke="black" stroke-width="2" points="384.48,-90 330.48,-90 330.48,-54 384.48,-54 384.48,-90"/>
<text text-anchor="middle" x="357.48" y="-67.8" font-family="Times,serif" font-size="14.00">q₂</text>
</g>
<!-- 111 -->
<g id="node6" class="node">
<title>111</title>
<polygon fill="none" stroke="black" points="286,-144 232,-144 232,-108 286,-108 286,-144"/>
<text text-anchor="middle" x="259" y="-121.8" font-family="Times,serif" font-size="14.00">q₀</text>
</g>
<!-- 11&#45;&gt;111 -->
<g id="edge3" class="edge">
<title>11&#45;&gt;111</title>
<path fill="none" stroke="black" d="M189.21,-86.9C199.7,-92.86 211.93,-99.81 223.15,-106.19"/>
<polygon fill="black" stroke="black" points="221.45,-109.25 231.87,-111.15 224.91,-103.17 221.45,-109.25"/>
<text text-anchor="middle" x="210.5" y="-104.2" font-family="Times,serif" font-size="14.00">b</text>
</g>
<!-- 112 -->
<g id="node10" class="node">
<title>112</title>
<polygon fill="none" stroke="black" points="286,-90 232,-90 232,-54 286,-54 286,-90"/>
<text text-anchor="middle" x="259" y="-67.8" font-family="Times,serif" font-size="14.00">q₁</text>
</g>
<!-- 11&#45;&gt;112 -->
<g id="edge8" class="edge">
<title>11&#45;&gt;112</title>
<path fill="none" stroke="yellowgreen" d="M189.21,-72C199.28,-72 210.96,-72 221.81,-72"/>
<polygon fill="yellowgreen" stroke="yellowgreen" points="221.87,-75.5 231.87,-72 221.87,-68.5 221.87,-75.5"/>
<text text-anchor="middle" x="210.5" y="-76.2" font-family="Times,serif" font-size="14.00">b</text>
</g>
<!-- 1111 -->
<g id="node7" class="node">
<title>1111</title>
<polygon fill="none" stroke="black" points="384.48,-198 330.48,-198 330.48,-162 384.48,-162 384.48,-198"/>
<text text-anchor="middle" x="357.48" y="-175.8" font-family="Times,serif" font-size="14.00">q₀</text>
</g>
<!-- 111&#45;&gt;1111 -->
<g id="edge4" class="edge">
<title>111&#45;&gt;1111</title>
<path fill="none" stroke="black" d="M286.11,-140.61C296.94,-146.68 309.67,-153.8 321.31,-160.32"/>
<polygon fill="black" stroke="black" points="319.91,-163.55 330.35,-165.38 323.33,-157.44 319.91,-163.55"/>
<text text-anchor="middle" x="307.5" y="-157.2" font-family="Times,serif" font-size="14.00">b</text>
</g>
<!-- 1112 -->
<g id="node11" class="node">
<title>1112</title>
<polygon fill="none" stroke="black" points="384.48,-144 330.48,-144 330.48,-108 384.48,-108 384.48,-144"/>
<text text-anchor="middle" x="357.48" y="-121.8" font-family="Times,serif" font-size="14.00">q₁</text>
</g>
<!-- 111&#45;&gt;1112 -->
<g id="edge10" class="edge">
<title>111&#45;&gt;1112</title>
<path fill="none" stroke="black" d="M286.11,-126C296.62,-126 308.92,-126 320.27,-126"/>
<polygon fill="black" stroke="black" points="320.35,-129.5 330.35,-126 320.35,-122.5 320.35,-129.5"/>
<text text-anchor="middle" x="307.5" y="-130.2" font-family="Times,serif" font-size="14.00">b</text>
</g>
<!-- 12&#45;&gt;121 -->
<g id="edge6" class="edge">
<title>12&#45;&gt;121</title>
<path fill="none" stroke="black" d="M189.21,-18C199.28,-18 210.96,-18 221.81,-18"/>
<polygon fill="black" stroke="black" points="221.87,-21.5 231.87,-18 221.87,-14.5 221.87,-21.5"/>
<text text-anchor="middle" x="210.5" y="-22.2" font-family="Times,serif" font-size="14.00">b</text>
</g>
<!-- 112&#45;&gt;1121 -->
<g id="edge9" class="edge">
<title>112&#45;&gt;1121</title>
<path fill="none" stroke="yellowgreen" d="M286.11,-72C296.62,-72 308.92,-72 320.27,-72"/>
<polygon fill="yellowgreen" stroke="yellowgreen" points="320.35,-75.5 330.35,-72 320.35,-68.5 320.35,-75.5"/>
<text text-anchor="middle" x="307.5" y="-76.2" font-family="Times,serif" font-size="14.00">b</text>
</g>
</g>
</svg>
