<?xml version="1.0" encoding="UTF-8" standalone="no"?>
<!DOCTYPE svg PUBLIC "-//W3C//DTD SVG 1.1//EN"
 "http://www.w3.org/Graphics/SVG/1.1/DTD/svg11.dtd">
<!-- Generated by graphviz version 2.44.1 (20201217.1751)
 -->
<!-- Title: arithmetic Pages: 1 -->
<svg width="291pt" height="332pt"
 viewBox="0.00 0.00 290.70 332.00" xmlns="http://www.w3.org/2000/svg" xmlns:xlink="http://www.w3.org/1999/xlink">
<g id="graph0" class="graph" transform="scale(1 1) rotate(0) translate(4 328)">
<title>arithmetic</title>
<polygon fill="white" stroke="transparent" points="-4,4 -4,-328 286.7,-328 286.7,4 -4,4"/>
<!-- E1 -->
<g id="node1" class="node">
<title>E1</title>
<ellipse fill="none" stroke="black" cx="177.35" cy="-306" rx="27" ry="18"/>
<text text-anchor="middle" x="177.35" y="-301.8" font-family="Times,serif" font-size="14.00">Exp</text>
</g>
<!-- E2 -->
<g id="node2" class="node">
<title>E2</title>
<ellipse fill="none" stroke="black" cx="105.35" cy="-234" rx="27" ry="18"/>
<text text-anchor="middle" x="105.35" y="-229.8" font-family="Times,serif" font-size="14.00">Exp</text>
</g>
<!-- E1&#45;&gt;E2 -->
<g id="edge1" class="edge">
<title>E1&#45;&gt;E2</title>
<path fill="none" stroke="black" d="M162.78,-290.83C152.6,-280.94 138.82,-267.55 127.32,-256.36"/>
<polygon fill="black" stroke="black" points="129.75,-253.85 120.14,-249.38 124.87,-258.87 129.75,-253.85"/>
</g>
<!-- Op1 -->
<g id="node3" class="node">
<title>Op1</title>
<ellipse fill="none" stroke="black" cx="177.35" cy="-234" rx="27" ry="18"/>
<text text-anchor="middle" x="177.35" y="-229.8" font-family="Times,serif" font-size="14.00">Op</text>
</g>
<!-- E1&#45;&gt;Op1 -->
<g id="edge2" class="edge">
<title>E1&#45;&gt;Op1</title>
<path fill="none" stroke="black" d="M177.35,-287.7C177.35,-279.98 177.35,-270.71 177.35,-262.11"/>
<polygon fill="black" stroke="black" points="180.85,-262.1 177.35,-252.1 173.85,-262.1 180.85,-262.1"/>
</g>
<!-- E3 -->
<g id="node5" class="node">
<title>E3</title>
<ellipse fill="none" stroke="black" cx="252.35" cy="-234" rx="30.2" ry="18"/>
<text text-anchor="middle" x="252.35" y="-229.8" font-family="Times,serif" font-size="14.00">Num</text>
</g>
<!-- E1&#45;&gt;E3 -->
<g id="edge5" class="edge">
<title>E1&#45;&gt;E3</title>
<path fill="none" stroke="black" d="M192.53,-290.83C203.06,-281 217.29,-267.72 229.23,-256.58"/>
<polygon fill="black" stroke="black" points="231.75,-259.01 236.68,-249.63 226.98,-253.89 231.75,-259.01"/>
</g>
<!-- E4 -->
<g id="node7" class="node">
<title>E4</title>
<ellipse fill="none" stroke="black" cx="105.35" cy="-162" rx="27" ry="18"/>
<text text-anchor="middle" x="105.35" y="-157.8" font-family="Times,serif" font-size="14.00">Exp</text>
</g>
<!-- E2&#45;&gt;E4 -->
<g id="edge6" class="edge">
<title>E2&#45;&gt;E4</title>
<path fill="none" stroke="black" d="M105.35,-215.7C105.35,-207.98 105.35,-198.71 105.35,-190.11"/>
<polygon fill="black" stroke="black" points="108.85,-190.1 105.35,-180.1 101.85,-190.1 108.85,-190.1"/>
</g>
<!-- /  -->
<g id="node4" class="node">
<title>/ </title>
<ellipse fill="none" stroke="black" cx="177.35" cy="-162" rx="27" ry="18"/>
<text text-anchor="middle" x="177.35" y="-157.8" font-family="Times,serif" font-size="14.00">/ </text>
</g>
<!-- Op1&#45;&gt;/  -->
<g id="edge3" class="edge">
<title>Op1&#45;&gt;/ </title>
<path fill="none" stroke="black" d="M177.35,-215.7C177.35,-207.98 177.35,-198.71 177.35,-190.11"/>
<polygon fill="black" stroke="black" points="180.85,-190.1 177.35,-180.1 173.85,-190.1 180.85,-190.1"/>
</g>
<!-- 5 -->
<g id="node6" class="node">
<title>5</title>
<ellipse fill="none" stroke="black" cx="252.35" cy="-162" rx="27" ry="18"/>
<text text-anchor="middle" x="252.35" y="-157.8" font-family="Times,serif" font-size="14.00">5</text>
</g>
<!-- E3&#45;&gt;5 -->
<g id="edge4" class="edge">
<title>E3&#45;&gt;5</title>
<path fill="none" stroke="black" d="M252.35,-215.7C252.35,-207.98 252.35,-198.71 252.35,-190.11"/>
<polygon fill="black" stroke="black" points="255.85,-190.1 252.35,-180.1 248.85,-190.1 255.85,-190.1"/>
</g>
<!-- E5 -->
<g id="node8" class="node">
<title>E5</title>
<ellipse fill="none" stroke="black" cx="30.35" cy="-90" rx="30.2" ry="18"/>
<text text-anchor="middle" x="30.35" y="-85.8" font-family="Times,serif" font-size="14.00">Num</text>
</g>
<!-- E4&#45;&gt;E5 -->
<g id="edge7" class="edge">
<title>E4&#45;&gt;E5</title>
<path fill="none" stroke="black" d="M90.17,-146.83C79.64,-137 65.41,-123.72 53.47,-112.58"/>
<polygon fill="black" stroke="black" points="55.72,-109.89 46.02,-105.63 50.94,-115.01 55.72,-109.89"/>
</g>
<!-- Op2 -->
<g id="node9" class="node">
<title>Op2</title>
<ellipse fill="none" stroke="black" cx="105.35" cy="-90" rx="27" ry="18"/>
<text text-anchor="middle" x="105.35" y="-85.8" font-family="Times,serif" font-size="14.00">Op</text>
</g>
<!-- E4&#45;&gt;Op2 -->
<g id="edge8" class="edge">
<title>E4&#45;&gt;Op2</title>
<path fill="none" stroke="black" d="M105.35,-143.7C105.35,-135.98 105.35,-126.71 105.35,-118.11"/>
<polygon fill="black" stroke="black" points="108.85,-118.1 105.35,-108.1 101.85,-118.1 108.85,-118.1"/>
</g>
<!-- E7 -->
<g id="node10" class="node">
<title>E7</title>
<ellipse fill="none" stroke="black" cx="180.35" cy="-90" rx="30.2" ry="18"/>
<text text-anchor="middle" x="180.35" y="-85.8" font-family="Times,serif" font-size="14.00">Num</text>
</g>
<!-- E4&#45;&gt;E7 -->
<g id="edge9" class="edge">
<title>E4&#45;&gt;E7</title>
<path fill="none" stroke="black" d="M120.53,-146.83C131.06,-137 145.29,-123.72 157.23,-112.58"/>
<polygon fill="black" stroke="black" points="159.75,-115.01 164.68,-105.63 154.98,-109.89 159.75,-115.01"/>
</g>
<!-- 10 -->
<g id="node11" class="node">
<title>10</title>
<ellipse fill="none" stroke="black" cx="30.35" cy="-18" rx="27" ry="18"/>
<text text-anchor="middle" x="30.35" y="-13.8" font-family="Times,serif" font-size="14.00">10</text>
</g>
<!-- E5&#45;&gt;10 -->
<g id="edge10" class="edge">
<title>E5&#45;&gt;10</title>
<path fill="none" stroke="black" d="M30.35,-71.7C30.35,-63.98 30.35,-54.71 30.35,-46.11"/>
<polygon fill="black" stroke="black" points="33.85,-46.1 30.35,-36.1 26.85,-46.1 33.85,-46.1"/>
</g>
<!-- / -->
<g id="node12" class="node">
<title>/</title>
<ellipse fill="none" stroke="black" cx="105.35" cy="-18" rx="27" ry="18"/>
<text text-anchor="middle" x="105.35" y="-13.8" font-family="Times,serif" font-size="14.00">/</text>
</g>
<!-- Op2&#45;&gt;/ -->
<g id="edge11" class="edge">
<title>Op2&#45;&gt;/</title>
<path fill="none" stroke="black" d="M105.35,-71.7C105.35,-63.98 105.35,-54.71 105.35,-46.11"/>
<polygon fill="black" stroke="black" points="108.85,-46.1 105.35,-36.1 101.85,-46.1 108.85,-46.1"/>
</g>
<!-- 2 -->
<g id="node13" class="node">
<title>2</title>
<ellipse fill="none" stroke="black" cx="180.35" cy="-18" rx="27" ry="18"/>
<text text-anchor="middle" x="180.35" y="-13.8" font-family="Times,serif" font-size="14.00">2</text>
</g>
<!-- E7&#45;&gt;2 -->
<g id="edge12" class="edge">
<title>E7&#45;&gt;2</title>
<path fill="none" stroke="black" d="M180.35,-71.7C180.35,-63.98 180.35,-54.71 180.35,-46.11"/>
<polygon fill="black" stroke="black" points="183.85,-46.1 180.35,-36.1 176.85,-46.1 183.85,-46.1"/>
</g>
</g>
</svg>
