<svg version="1.1" xmlns="http://www.w3.org/2000/svg" viewBox="0 0 456.9191757533606 260.6162349264417">
  <!-- svg-source:excalidraw -->
  <defs>
    <style>
      @font-face {
        font-family: "Virgil";
        src: url("https://excalidraw.com/FG_Virgil.woff2");
      }
      @font-face {
        font-family: "Cascadia";
        src: url("https://excalidraw.com/Cascadia.woff2");
      }
    </style>
  </defs>
  <rect x="0" y="0" width="456.9191757533606" height="260.6162349264417" fill="#ffffff"></rect><g><g transform="translate(10.7449049487617 218.92873492644168) rotate(0 217.7146829279186 -0.6464217961253667)"><path d="M0.4886467415839433 0.2668629985302686 C73.0813876071324 0.0016786795109509645, 363.5481227277467 -0.8653349775820971, 436.1742708045989 -0.9310224551707507 M-0.7449049487616868 -1.4667816753778609 C71.50093324980077 -1.550604075053707, 362.43485987972156 -1.6762720014248045, 434.9122165852878 -1.3302428214345128" style="stroke: rgb(0, 0, 0); stroke-width: 1; fill: none;"></path></g><g transform="translate(10.7449049487617 218.92873492644168) rotate(0 217.7146829279186 -0.6464217961253667)"><path d="M407.1481862848399 10.453710202141435 C415.01052715349044 6.86861597798205, 426.26511208301275 3.1585347675674313, 434.00805437394416 -2.144346590572968 M406.0961832187844 9.213708638227315 C413.2556250958176 7.632901511310405, 419.7235793887986 4.231206020600588, 435.75114964243954 -1.1926410500425846" style="stroke: rgb(0, 0, 0); stroke-width: 1; fill: none;"></path></g><g transform="translate(10.7449049487617 218.92873492644168) rotate(0 217.7146829279186 -0.6464217961253667)"><path d="M407.1843203719015 -10.067466584621842 C415.1468413786898 -6.439518249965884, 426.3887257017247 -2.936704041597685, 434.00805437394416 -2.144346590572968 M406.132317305846 -11.307468148535962 C413.2481271492894 -8.376998347566303, 419.70813743564696 -7.267154248586694, 435.75114964243954 -1.1926410500425846" style="stroke: rgb(0, 0, 0); stroke-width: 1; fill: none;"></path></g></g><g><g transform="translate(13.8699049487617 219.37404742644168) rotate(0 -0.2775991623010441 -104.66275718391873)"><path d="M-0.45782971791923044 -0.6983136791735888 C-0.32830804996192453 -35.20241096206009, -0.3876339238137007 -173.09979266114533, -0.29960738830268385 -207.81542825885117 M-0.8944702091719956 0.04853305860422541 C-0.9478733181860298 -34.55747340784408, -0.010554939201101565 -174.59012642637825, 0.3392718845698983 -209.37404742644168" style="stroke: rgb(0, 0, 0); stroke-width: 1; fill: none;"></path></g><g transform="translate(13.8699049487617 219.37404742644168) rotate(0 -0.2775991623010441 -104.66275718391873)"><path d="M9.210915901603109 -181.60169809860932 C8.537174884116613 -186.96816710128047, 4.465826353361337 -192.30915221697046, -1.560191096579656 -210.351610496575 M11.032963691184229 -181.5328472283651 C6.8717158427708736 -189.86457513791774, 4.038615148186588 -199.20631144352177, -0.6256087541859596 -209.12736081046052" style="stroke: rgb(0, 0, 0); stroke-width: 1; fill: none;"></path></g><g transform="translate(13.8699049487617 219.37404742644168) rotate(0 -0.2775991623010441 -104.66275718391873)"><path d="M-11.309640359102673 -181.76532308767898 C-7.6695637072817755 -187.01909535164762, -7.426016219290187 -192.32567473267162, -1.560191096579656 -210.351610496575 M-9.487592569521553 -181.69647221743477 C-7.437948037240519 -189.80970817065239, -4.060459702815684 -199.10192303302273, -0.6256087541859596 -209.12736081046052" style="stroke: rgb(0, 0, 0); stroke-width: 1; fill: none;"></path></g></g><g><g transform="translate(19.9011549487617 208.44435992644168) rotate(0 112.33011580903548 -16.83221013006289)"><path d="M-1.001778845116496 0.7333673816174269 C36.782861637944976 -4.883661216373245, 187.95013895419737 -27.63147423056265, 225.83781555481255 -33.192072393372655 M-1.1775839367415757 0.3057895474042742 C36.50812774102825 -5.473599283952886, 187.90132848492203 -29.001636620520927, 225.44818025172688 -34.3977876417432" style="stroke: rgb(0, 0, 0); stroke-width: 1; fill: none;"></path></g></g><g><g transform="translate(247.1042799487617 172.47951617644168) rotate(0 76.35875850830695 -79.89354675651528)"><path d="M-0.9263888161629439 -0.9145450014621019 C24.249847380196055 -27.480261597906548, 126.04794160115222 -131.92672598945597, 151.48104692287743 -158.36289203353226 M0.14149268419481809 0.4333587680663915 C25.768550422399617 -26.215711389839026, 128.4405657936229 -133.59433123703735, 153.6439058327768 -160.22045228109695" style="stroke: rgb(0, 0, 0); stroke-width: 1; fill: none;"></path></g></g><g transform="translate(363.8152174487617 225.61623492644168) rotate(0 19.5 12.5)"><text x="0" y="18" font-family="Virgil" font-size="20px" fill="#000000">time</text></g><g transform="translate(24.9792799487617 33.78420367644168) rotate(0 31.5 12.5)"><text x="0" y="18" font-family="Virgil" font-size="20px" fill="#000000">effort</text></g></svg>