<?xml version="1.0" encoding="UTF-8" standalone="no"?>
<!DOCTYPE svg PUBLIC "-//W3C//DTD SVG 1.1//EN"
 "http://www.w3.org/Graphics/SVG/1.1/DTD/svg11.dtd">
<!-- Generated by graphviz version 2.44.1 (20201217.1751)
 -->
<!-- Title: graphname Pages: 1 -->
<svg width="933pt" height="260pt"
 viewBox="0.00 0.00 932.92 260.00" xmlns="http://www.w3.org/2000/svg" xmlns:xlink="http://www.w3.org/1999/xlink">
<g id="graph0" class="graph" transform="scale(1 1) rotate(0) translate(4 256)">
<title>graphname</title>
<polygon fill="white" stroke="transparent" points="-4,4 -4,-256 928.92,-256 928.92,4 -4,4"/>
<!-- Expression -->
<g id="node1" class="node">
<title>Expression</title>
<ellipse fill="none" stroke="black" cx="456.4" cy="-234" rx="53.89" ry="18"/>
<text text-anchor="middle" x="456.4" y="-229.8" font-family="Times,serif" font-size="14.00">Expression</text>
</g>
<!-- IfExpression -->
<g id="node2" class="node">
<title>IfExpression</title>
<ellipse fill="none" stroke="black" cx="456.4" cy="-162" rx="60.25" ry="18"/>
<text text-anchor="middle" x="456.4" y="-157.8" font-family="Times,serif" font-size="14.00">IfExpression</text>
</g>
<!-- Expression&#45;&gt;IfExpression -->
<g id="edge1" class="edge">
<title>Expression&#45;&gt;IfExpression</title>
<path fill="none" stroke="black" d="M456.4,-215.7C456.4,-207.98 456.4,-198.71 456.4,-190.11"/>
<polygon fill="black" stroke="black" points="459.9,-190.1 456.4,-180.1 452.9,-190.1 459.9,-190.1"/>
</g>
<!-- IfKeyword -->
<g id="node3" class="node">
<title>IfKeyword</title>
<ellipse fill="none" stroke="black" cx="53.4" cy="-90" rx="53.29" ry="18"/>
<text text-anchor="middle" x="53.4" y="-85.8" font-family="Times,serif" font-size="14.00">IfKeyword</text>
</g>
<!-- IfExpression&#45;&gt;IfKeyword -->
<g id="edge2" class="edge">
<title>IfExpression&#45;&gt;IfKeyword</title>
<path fill="none" stroke="black" d="M401.42,-154.41C333.72,-145.84 215.43,-129.42 115.4,-108 111.04,-107.07 106.54,-106.01 102.04,-104.9"/>
<polygon fill="black" stroke="black" points="102.81,-101.48 92.26,-102.38 101.07,-108.26 102.81,-101.48"/>
</g>
<!-- e1 -->
<g id="node4" class="node">
<title>e1</title>
<ellipse fill="none" stroke="black" cx="178.4" cy="-90" rx="53.89" ry="18"/>
<text text-anchor="middle" x="178.4" y="-85.8" font-family="Times,serif" font-size="14.00">Expression</text>
</g>
<!-- IfExpression&#45;&gt;e1 -->
<g id="edge3" class="edge">
<title>IfExpression&#45;&gt;e1</title>
<path fill="none" stroke="black" d="M411.02,-150.12C367.46,-139.6 299.84,-123.09 241.4,-108 237.26,-106.93 232.98,-105.81 228.68,-104.67"/>
<polygon fill="black" stroke="black" points="229.26,-101.21 218.69,-102.01 227.45,-107.97 229.26,-101.21"/>
</g>
<!-- ThenKeyword -->
<g id="node6" class="node">
<title>ThenKeyword</title>
<ellipse fill="none" stroke="black" cx="317.4" cy="-90" rx="66.62" ry="18"/>
<text text-anchor="middle" x="317.4" y="-85.8" font-family="Times,serif" font-size="14.00">ThenKeyword</text>
</g>
<!-- IfExpression&#45;&gt;ThenKeyword -->
<g id="edge5" class="edge">
<title>IfExpression&#45;&gt;ThenKeyword</title>
<path fill="none" stroke="black" d="M426.92,-146.15C406.56,-135.9 379.24,-122.15 356.99,-110.94"/>
<polygon fill="black" stroke="black" points="358.3,-107.68 347.79,-106.31 355.15,-113.93 358.3,-107.68"/>
</g>
<!-- e2 -->
<g id="node7" class="node">
<title>e2</title>
<ellipse fill="none" stroke="black" cx="456.4" cy="-90" rx="53.89" ry="18"/>
<text text-anchor="middle" x="456.4" y="-85.8" font-family="Times,serif" font-size="14.00">Expression</text>
</g>
<!-- IfExpression&#45;&gt;e2 -->
<g id="edge6" class="edge">
<title>IfExpression&#45;&gt;e2</title>
<path fill="none" stroke="black" d="M456.4,-143.7C456.4,-135.98 456.4,-126.71 456.4,-118.11"/>
<polygon fill="black" stroke="black" points="459.9,-118.1 456.4,-108.1 452.9,-118.1 459.9,-118.1"/>
</g>
<!-- ElseKeyword -->
<g id="node9" class="node">
<title>ElseKeyword</title>
<ellipse fill="none" stroke="black" cx="592.4" cy="-90" rx="63.68" ry="18"/>
<text text-anchor="middle" x="592.4" y="-85.8" font-family="Times,serif" font-size="14.00">ElseKeyword</text>
</g>
<!-- IfExpression&#45;&gt;ElseKeyword -->
<g id="edge8" class="edge">
<title>IfExpression&#45;&gt;ElseKeyword</title>
<path fill="none" stroke="black" d="M485.24,-146.15C505.3,-135.83 532.25,-121.96 554.11,-110.71"/>
<polygon fill="black" stroke="black" points="555.84,-113.75 563.13,-106.07 552.63,-107.53 555.84,-113.75"/>
</g>
<!-- e3 -->
<g id="node10" class="node">
<title>e3</title>
<ellipse fill="none" stroke="black" cx="728.4" cy="-90" rx="53.89" ry="18"/>
<text text-anchor="middle" x="728.4" y="-85.8" font-family="Times,serif" font-size="14.00">Expression</text>
</g>
<!-- IfExpression&#45;&gt;e3 -->
<g id="edge9" class="edge">
<title>IfExpression&#45;&gt;e3</title>
<path fill="none" stroke="black" d="M501.29,-149.82C543.65,-139.23 608.9,-122.78 665.4,-108 669.53,-106.92 673.81,-105.79 678.1,-104.64"/>
<polygon fill="black" stroke="black" points="679.33,-107.94 688.09,-101.97 677.53,-101.18 679.33,-107.94"/>
</g>
<!-- EndKeyword -->
<g id="node12" class="node">
<title>EndKeyword</title>
<ellipse fill="none" stroke="black" cx="862.4" cy="-90" rx="62.55" ry="18"/>
<text text-anchor="middle" x="862.4" y="-85.8" font-family="Times,serif" font-size="14.00">EndKeyword</text>
</g>
<!-- IfExpression&#45;&gt;EndKeyword -->
<g id="edge11" class="edge">
<title>IfExpression&#45;&gt;EndKeyword</title>
<path fill="none" stroke="black" d="M510.29,-153.8C576.68,-144.62 692.78,-127.58 791.4,-108 796.47,-106.99 801.73,-105.87 807,-104.71"/>
<polygon fill="black" stroke="black" points="808.09,-108.05 817.06,-102.41 806.53,-101.22 808.09,-108.05"/>
</g>
<!-- exp1 -->
<g id="node5" class="node">
<title>exp1</title>
<ellipse fill="none" stroke="black" cx="178.4" cy="-18" rx="29.62" ry="18"/>
<text text-anchor="middle" x="178.4" y="-13.8" font-family="Times,serif" font-size="14.00">exp1</text>
</g>
<!-- e1&#45;&gt;exp1 -->
<g id="edge4" class="edge">
<title>e1&#45;&gt;exp1</title>
<path fill="none" stroke="black" d="M178.4,-71.7C178.4,-63.98 178.4,-54.71 178.4,-46.11"/>
<polygon fill="black" stroke="black" points="181.9,-46.1 178.4,-36.1 174.9,-46.1 181.9,-46.1"/>
</g>
<!-- exp2 -->
<g id="node8" class="node">
<title>exp2</title>
<ellipse fill="none" stroke="black" cx="456.4" cy="-18" rx="29.62" ry="18"/>
<text text-anchor="middle" x="456.4" y="-13.8" font-family="Times,serif" font-size="14.00">exp2</text>
</g>
<!-- e2&#45;&gt;exp2 -->
<g id="edge7" class="edge">
<title>e2&#45;&gt;exp2</title>
<path fill="none" stroke="black" d="M456.4,-71.7C456.4,-63.98 456.4,-54.71 456.4,-46.11"/>
<polygon fill="black" stroke="black" points="459.9,-46.1 456.4,-36.1 452.9,-46.1 459.9,-46.1"/>
</g>
<!-- exp3 -->
<g id="node11" class="node">
<title>exp3</title>
<ellipse fill="none" stroke="black" cx="728.4" cy="-18" rx="29.62" ry="18"/>
<text text-anchor="middle" x="728.4" y="-13.8" font-family="Times,serif" font-size="14.00">exp3</text>
</g>
<!-- e3&#45;&gt;exp3 -->
<g id="edge10" class="edge">
<title>e3&#45;&gt;exp3</title>
<path fill="none" stroke="black" d="M728.4,-71.7C728.4,-63.98 728.4,-54.71 728.4,-46.11"/>
<polygon fill="black" stroke="black" points="731.9,-46.1 728.4,-36.1 724.9,-46.1 731.9,-46.1"/>
</g>
</g>
</svg>
