<?xml version="1.0" encoding="UTF-8" standalone="no"?>
<!DOCTYPE svg PUBLIC "-//W3C//DTD SVG 1.1//EN"
 "http://www.w3.org/Graphics/SVG/1.1/DTD/svg11.dtd">
<!-- Generated by graphviz version 2.44.1 (20201217.1751)
 -->
<!-- Title: graphname Pages: 1 -->
<svg width="224pt" height="116pt"
 viewBox="0.00 0.00 223.62 116.00" xmlns="http://www.w3.org/2000/svg" xmlns:xlink="http://www.w3.org/1999/xlink">
<g id="graph0" class="graph" transform="scale(1 1) rotate(0) translate(4 112)">
<title>graphname</title>
<polygon fill="white" stroke="transparent" points="-4,4 -4,-112 219.62,-112 219.62,4 -4,4"/>
<!-- IfExpression -->
<g id="node1" class="node">
<title>IfExpression</title>
<ellipse fill="none" stroke="black" cx="107.81" cy="-90" rx="60.25" ry="18"/>
<text text-anchor="middle" x="107.81" y="-85.8" font-family="Times,serif" font-size="14.00">IfExpression</text>
</g>
<!-- exp1 -->
<g id="node2" class="node">
<title>exp1</title>
<ellipse fill="none" stroke="black" cx="29.81" cy="-18" rx="29.62" ry="18"/>
<text text-anchor="middle" x="29.81" y="-13.8" font-family="Times,serif" font-size="14.00">exp1</text>
</g>
<!-- IfExpression&#45;&gt;exp1 -->
<g id="edge1" class="edge">
<title>IfExpression&#45;&gt;exp1</title>
<path fill="none" stroke="black" d="M89.72,-72.76C78.89,-63.05 65.02,-50.6 53.35,-40.13"/>
<polygon fill="black" stroke="black" points="55.47,-37.32 45.69,-33.25 50.79,-42.53 55.47,-37.32"/>
</g>
<!-- exp2 -->
<g id="node3" class="node">
<title>exp2</title>
<ellipse fill="none" stroke="black" cx="107.81" cy="-18" rx="29.62" ry="18"/>
<text text-anchor="middle" x="107.81" y="-13.8" font-family="Times,serif" font-size="14.00">exp2</text>
</g>
<!-- IfExpression&#45;&gt;exp2 -->
<g id="edge2" class="edge">
<title>IfExpression&#45;&gt;exp2</title>
<path fill="none" stroke="black" d="M107.81,-71.7C107.81,-63.98 107.81,-54.71 107.81,-46.11"/>
<polygon fill="black" stroke="black" points="111.31,-46.1 107.81,-36.1 104.31,-46.1 111.31,-46.1"/>
</g>
<!-- exp3 -->
<g id="node4" class="node">
<title>exp3</title>
<ellipse fill="none" stroke="black" cx="185.81" cy="-18" rx="29.62" ry="18"/>
<text text-anchor="middle" x="185.81" y="-13.8" font-family="Times,serif" font-size="14.00">exp3</text>
</g>
<!-- IfExpression&#45;&gt;exp3 -->
<g id="edge3" class="edge">
<title>IfExpression&#45;&gt;exp3</title>
<path fill="none" stroke="black" d="M125.9,-72.76C136.72,-63.05 150.6,-50.6 162.27,-40.13"/>
<polygon fill="black" stroke="black" points="164.83,-42.53 169.93,-33.25 160.15,-37.32 164.83,-42.53"/>
</g>
</g>
</svg>
