<?xml version="1.0" encoding="UTF-8" standalone="no"?>
<!DOCTYPE svg PUBLIC "-//W3C//DTD SVG 1.1//EN"
 "http://www.w3.org/Graphics/SVG/1.1/DTD/svg11.dtd">
<!-- Generated by graphviz version 2.44.1 (20210116.0638)
 -->
<!-- Title: timeline Pages: 1 -->
<svg width="504pt" height="533pt"
 viewBox="0.00 0.00 504.00 533.19" xmlns="http://www.w3.org/2000/svg" xmlns:xlink="http://www.w3.org/1999/xlink">
<g id="graph0" class="graph" transform="scale(0.85 0.85) rotate(0) translate(4 623.2)">
<title>timeline</title>
<polygon fill="white" stroke="transparent" points="-4,4 -4,-623.2 588.86,-623.2 588.86,4 -4,4"/>
<!-- 1975 -->
<g id="node1" class="node">
<title>1975</title>
<text text-anchor="middle" x="32" y="-593.6" font-family="Times,serif" font-size="24.00">1975</text>
</g>
<!-- 1985 -->
<g id="node2" class="node">
<title>1985</title>
<text text-anchor="middle" x="32" y="-520.8" font-family="Times,serif" font-size="24.00">1985</text>
</g>
<!-- 1975&#45;&gt;1985 -->
<!-- 1989 -->
<g id="node3" class="node">
<title>1989</title>
<text text-anchor="middle" x="32" y="-448" font-family="Times,serif" font-size="24.00">1989</text>
</g>
<!-- 1985&#45;&gt;1989 -->
<!-- 1992 -->
<g id="node4" class="node">
<title>1992</title>
<text text-anchor="middle" x="32" y="-375.2" font-family="Times,serif" font-size="24.00">1992</text>
</g>
<!-- 1989&#45;&gt;1992 -->
<!-- 1995 -->
<g id="node5" class="node">
<title>1995</title>
<text text-anchor="middle" x="32" y="-302.4" font-family="Times,serif" font-size="24.00">1995</text>
</g>
<!-- 1992&#45;&gt;1995 -->
<!-- 1996 -->
<g id="node6" class="node">
<title>1996</title>
<text text-anchor="middle" x="32" y="-229.6" font-family="Times,serif" font-size="24.00">1996</text>
</g>
<!-- 1995&#45;&gt;1996 -->
<!-- 2001 -->
<g id="node7" class="node">
<title>2001</title>
<text text-anchor="middle" x="32" y="-156.8" font-family="Times,serif" font-size="24.00">2001</text>
</g>
<!-- 1996&#45;&gt;2001 -->
<!-- 2006 -->
<g id="node8" class="node">
<title>2006</title>
<text text-anchor="middle" x="32" y="-84" font-family="Times,serif" font-size="24.00">2006</text>
</g>
<!-- 2001&#45;&gt;2006 -->
<!-- 2007 -->
<g id="node9" class="node">
<title>2007</title>
<text text-anchor="middle" x="32" y="-11.2" font-family="Times,serif" font-size="24.00">2007</text>
</g>
<!-- 2006&#45;&gt;2007 -->
<!-- Burge -->
<g id="node10" class="node">
<title>Burge</title>
<polygon fill="none" stroke="black" points="284.37,-618.8 219.63,-618.8 219.63,-582.8 284.37,-582.8 284.37,-618.8"/>
<text text-anchor="middle" x="252" y="-594.8" font-family="Times,serif" font-size="20.00">Burge</text>
</g>
<!-- Wadler -->
<g id="node11" class="node">
<title>Wadler</title>
<polygon fill="none" stroke="black" points="289.35,-546 214.65,-546 214.65,-510 289.35,-510 289.35,-546"/>
<text text-anchor="middle" x="252" y="-522" font-family="Times,serif" font-size="20.00">Wadler</text>
</g>
<!-- Burge&#45;&gt;Wadler -->
<g id="edge14" class="edge">
<title>Burge&#45;&gt;Wadler</title>
<path fill="none" stroke="black" stroke-dasharray="1,5" d="M252,-582.66C252,-574.86 252,-565.44 252,-556.68"/>
<polygon fill="black" stroke="black" points="255.5,-556.47 252,-546.47 248.5,-556.47 255.5,-556.47"/>
</g>
<!-- Frost, Launchbury -->
<g id="node12" class="node">
<title>Frost, Launchbury</title>
<polygon fill="none" stroke="black" points="264.74,-473.2 101.26,-473.2 101.26,-437.2 264.74,-437.2 264.74,-473.2"/>
<text text-anchor="middle" x="183" y="-449.2" font-family="Times,serif" font-size="20.00">Frost, Launchbury</text>
</g>
<!-- Wadler&#45;&gt;Frost, Launchbury -->
<g id="edge16" class="edge">
<title>Wadler&#45;&gt;Frost, Launchbury</title>
<path fill="none" stroke="black" stroke-dasharray="1,5" d="M235.3,-509.86C226.86,-501.21 216.47,-490.55 207.18,-481.02"/>
<polygon fill="black" stroke="black" points="209.51,-478.39 200.03,-473.67 204.5,-483.28 209.51,-478.39"/>
</g>
<!-- Hutton -->
<g id="node13" class="node">
<title>Hutton</title>
<polygon fill="none" stroke="black" points="370.56,-400.4 299.44,-400.4 299.44,-364.4 370.56,-364.4 370.56,-400.4"/>
<text text-anchor="middle" x="335" y="-376.4" font-family="Times,serif" font-size="20.00">Hutton</text>
</g>
<!-- Wadler&#45;&gt;Hutton -->
<g id="edge15" class="edge">
<title>Wadler&#45;&gt;Hutton</title>
<path fill="none" stroke="black" stroke-dasharray="1,5" d="M261.85,-509.96C276.26,-485.03 303.22,-438.39 320.08,-409.22"/>
<polygon fill="black" stroke="black" points="323.19,-410.82 325.17,-400.41 317.13,-407.32 323.19,-410.82"/>
</g>
<!-- Frost, Szydlowski -->
<g id="node16" class="node">
<title>Frost, Szydlowski</title>
<polygon fill="none" stroke="black" points="263.44,-254.8 102.56,-254.8 102.56,-218.8 263.44,-218.8 263.44,-254.8"/>
<text text-anchor="middle" x="183" y="-230.8" font-family="Times,serif" font-size="20.00">Frost, Szydlowski</text>
</g>
<!-- Frost, Launchbury&#45;&gt;Frost, Szydlowski -->
<g id="edge9" class="edge">
<title>Frost, Launchbury&#45;&gt;Frost, Szydlowski</title>
<path fill="none" stroke="black" d="M183,-436.86C183,-399.33 183,-310.35 183,-265.16"/>
<polygon fill="black" stroke="black" points="186.5,-264.93 183,-254.93 179.5,-264.93 186.5,-264.93"/>
</g>
<!-- Fokker -->
<g id="node14" class="node">
<title>Fokker</title>
<polygon fill="none" stroke="black" points="321.15,-327.6 248.85,-327.6 248.85,-291.6 321.15,-291.6 321.15,-327.6"/>
<text text-anchor="middle" x="285" y="-303.6" font-family="Times,serif" font-size="20.00">Fokker</text>
</g>
<!-- Hutton&#45;&gt;Fokker -->
<g id="edge18" class="edge">
<title>Hutton&#45;&gt;Fokker</title>
<path fill="none" stroke="black" stroke-dasharray="1,5" d="M322.9,-364.26C316.97,-355.86 309.7,-345.58 303.13,-336.27"/>
<polygon fill="black" stroke="black" points="305.97,-334.22 297.34,-328.07 300.25,-338.26 305.97,-334.22"/>
</g>
<!-- Hutton, Meijer -->
<g id="node15" class="node">
<title>Hutton, Meijer</title>
<polygon fill="none" stroke="black" points="416.36,-254.8 281.64,-254.8 281.64,-218.8 416.36,-218.8 416.36,-254.8"/>
<text text-anchor="middle" x="349" y="-230.8" font-family="Times,serif" font-size="20.00">Hutton, Meijer</text>
</g>
<!-- Hutton&#45;&gt;Hutton, Meijer -->
<g id="edge12" class="edge">
<title>Hutton&#45;&gt;Hutton, Meijer</title>
<path fill="none" stroke="black" d="M336.66,-364.36C339.05,-339.86 343.48,-294.4 346.33,-265.15"/>
<polygon fill="black" stroke="black" points="349.85,-265.11 347.34,-254.81 342.89,-264.43 349.85,-265.11"/>
</g>
<!-- Parsec -->
<g id="node17" class="node">
<title>Parsec</title>
<polygon fill="lightgrey" stroke="black" points="383.19,-182 314.81,-182 314.81,-146 383.19,-146 383.19,-182"/>
<text text-anchor="middle" x="349" y="-158" font-family="Times,serif" font-size="20.00">Parsec</text>
</g>
<!-- Hutton, Meijer&#45;&gt;Parsec -->
<g id="edge13" class="edge">
<title>Hutton, Meijer&#45;&gt;Parsec</title>
<path fill="none" stroke="black" d="M349,-218.66C349,-210.86 349,-201.44 349,-192.68"/>
<polygon fill="black" stroke="black" points="352.5,-192.47 349,-182.47 345.5,-192.47 352.5,-192.47"/>
</g>
<!-- Swierstra, S. Doaitse -->
<g id="node18" class="node">
<title>Swierstra, S. Doaitse</title>
<polygon fill="none" stroke="black" points="584.73,-182 401.27,-182 401.27,-146 584.73,-146 584.73,-182"/>
<text text-anchor="middle" x="493" y="-158" font-family="Times,serif" font-size="20.00">Swierstra, S. Doaitse</text>
</g>
<!-- Hutton, Meijer&#45;&gt;Swierstra, S. Doaitse -->
<g id="edge17" class="edge">
<title>Hutton, Meijer&#45;&gt;Swierstra, S. Doaitse</title>
<path fill="none" stroke="black" stroke-dasharray="1,5" d="M383.86,-218.66C403.51,-209 428.24,-196.84 449.19,-186.54"/>
<polygon fill="black" stroke="black" points="450.78,-189.66 458.21,-182.1 447.7,-183.37 450.78,-189.66"/>
</g>
<!-- Frost, Hafiz -->
<g id="node19" class="node">
<title>Frost, Hafiz</title>
<polygon fill="none" stroke="black" points="238.52,-109.2 127.48,-109.2 127.48,-73.2 238.52,-73.2 238.52,-109.2"/>
<text text-anchor="middle" x="183" y="-85.2" font-family="Times,serif" font-size="20.00">Frost, Hafiz</text>
</g>
<!-- Frost, Szydlowski&#45;&gt;Frost, Hafiz -->
<g id="edge10" class="edge">
<title>Frost, Szydlowski&#45;&gt;Frost, Hafiz</title>
<path fill="none" stroke="black" d="M183,-218.76C183,-194.26 183,-148.8 183,-119.55"/>
<polygon fill="black" stroke="black" points="186.5,-119.21 183,-109.21 179.5,-119.21 186.5,-119.21"/>
</g>
<!-- Frost, Hafiz, Callaghan -->
<g id="node20" class="node">
<title>Frost, Hafiz, Callaghan</title>
<polygon fill="none" stroke="black" points="284.11,-36.4 81.89,-36.4 81.89,-0.4 284.11,-0.4 284.11,-36.4"/>
<text text-anchor="middle" x="183" y="-12.4" font-family="Times,serif" font-size="20.00">Frost, Hafiz, Callaghan</text>
</g>
<!-- Frost, Hafiz&#45;&gt;Frost, Hafiz, Callaghan -->
<g id="edge11" class="edge">
<title>Frost, Hafiz&#45;&gt;Frost, Hafiz, Callaghan</title>
<path fill="none" stroke="black" d="M183,-73.06C183,-65.26 183,-55.84 183,-47.08"/>
<polygon fill="black" stroke="black" points="186.5,-46.87 183,-36.87 179.5,-46.87 186.5,-46.87"/>
</g>
</g>
</svg>
