<?xml version="1.0" encoding="UTF-8" standalone="no"?>
<!DOCTYPE svg PUBLIC "-//W3C//DTD SVG 1.1//EN"
 "http://www.w3.org/Graphics/SVG/1.1/DTD/svg11.dtd">
<!-- Generated by graphviz version 2.44.1 (20201217.1751)
 -->
<!-- Title: timeline Pages: 1 -->
<svg width="438pt" height="576pt"
 viewBox="0.00 0.00 437.67 576.00" xmlns="http://www.w3.org/2000/svg" xmlns:xlink="http://www.w3.org/1999/xlink">
<g id="graph0" class="graph" transform="scale(0.35 0.35) rotate(0) translate(4 1642.4)">
<title>timeline</title>
<polygon fill="white" stroke="transparent" points="-4,4 -4,-1642.4 1247,-1642.4 1247,4 -4,4"/>
<!-- 1961 -->
<g id="node1" class="node">
<title>1961</title>
<text text-anchor="middle" x="32" y="-1612.8" font-family="Times,serif" font-size="24.00">1961</text>
</g>
<!-- 1964 -->
<g id="node2" class="node">
<title>1964</title>
<text text-anchor="middle" x="32" y="-1540" font-family="Times,serif" font-size="24.00">1964</text>
</g>
<!-- 1961&#45;&gt;1964 -->
<!-- 1965 -->
<g id="node3" class="node">
<title>1965</title>
<text text-anchor="middle" x="32" y="-1467.2" font-family="Times,serif" font-size="24.00">1965</text>
</g>
<!-- 1964&#45;&gt;1965 -->
<!-- 1968 -->
<g id="node4" class="node">
<title>1968</title>
<text text-anchor="middle" x="32" y="-1394.4" font-family="Times,serif" font-size="24.00">1968</text>
</g>
<!-- 1965&#45;&gt;1968 -->
<!-- 1969 -->
<g id="node5" class="node">
<title>1969</title>
<text text-anchor="middle" x="32" y="-1321.6" font-family="Times,serif" font-size="24.00">1969</text>
</g>
<!-- 1968&#45;&gt;1969 -->
<!-- 1970 -->
<g id="node6" class="node">
<title>1970</title>
<text text-anchor="middle" x="32" y="-1248.8" font-family="Times,serif" font-size="24.00">1970</text>
</g>
<!-- 1969&#45;&gt;1970 -->
<!-- 1971 -->
<g id="node7" class="node">
<title>1971</title>
<text text-anchor="middle" x="32" y="-1176" font-family="Times,serif" font-size="24.00">1971</text>
</g>
<!-- 1970&#45;&gt;1971 -->
<!-- 1984 -->
<g id="node8" class="node">
<title>1984</title>
<text text-anchor="middle" x="32" y="-1103.2" font-family="Times,serif" font-size="24.00">1984</text>
</g>
<!-- 1971&#45;&gt;1984 -->
<!-- 1990 -->
<g id="node9" class="node">
<title>1990</title>
<text text-anchor="middle" x="32" y="-1030.4" font-family="Times,serif" font-size="24.00">1990</text>
</g>
<!-- 1984&#45;&gt;1990 -->
<!-- 1993 -->
<g id="node10" class="node">
<title>1993</title>
<text text-anchor="middle" x="32" y="-957.6" font-family="Times,serif" font-size="24.00">1993</text>
</g>
<!-- 1990&#45;&gt;1993 -->
<!-- 1999 -->
<g id="node11" class="node">
<title>1999</title>
<text text-anchor="middle" x="32" y="-884.8" font-family="Times,serif" font-size="24.00">1999</text>
</g>
<!-- 1993&#45;&gt;1999 -->
<!-- 2004 -->
<g id="node12" class="node">
<title>2004</title>
<text text-anchor="middle" x="32" y="-812" font-family="Times,serif" font-size="24.00">2004</text>
</g>
<!-- 1999&#45;&gt;2004 -->
<!-- 2005 -->
<g id="node13" class="node">
<title>2005</title>
<text text-anchor="middle" x="32" y="-739.2" font-family="Times,serif" font-size="24.00">2005</text>
</g>
<!-- 2004&#45;&gt;2005 -->
<!-- 2006 -->
<g id="node14" class="node">
<title>2006</title>
<text text-anchor="middle" x="32" y="-666.4" font-family="Times,serif" font-size="24.00">2006</text>
</g>
<!-- 2005&#45;&gt;2006 -->
<!-- 2007 -->
<g id="node15" class="node">
<title>2007</title>
<text text-anchor="middle" x="32" y="-593.6" font-family="Times,serif" font-size="24.00">2007</text>
</g>
<!-- 2006&#45;&gt;2007 -->
<!-- 2009 -->
<g id="node16" class="node">
<title>2009</title>
<text text-anchor="middle" x="32" y="-520.8" font-family="Times,serif" font-size="24.00">2009</text>
</g>
<!-- 2007&#45;&gt;2009 -->
<!-- 2010 -->
<g id="node17" class="node">
<title>2010</title>
<text text-anchor="middle" x="32" y="-448" font-family="Times,serif" font-size="24.00">2010</text>
</g>
<!-- 2009&#45;&gt;2010 -->
<!-- 2011 -->
<g id="node18" class="node">
<title>2011</title>
<text text-anchor="middle" x="32" y="-375.2" font-family="Times,serif" font-size="24.00">2011</text>
</g>
<!-- 2010&#45;&gt;2011 -->
<!-- 2014 -->
<g id="node19" class="node">
<title>2014</title>
<text text-anchor="middle" x="32" y="-302.4" font-family="Times,serif" font-size="24.00">2014</text>
</g>
<!-- 2011&#45;&gt;2014 -->
<!-- 2016 -->
<g id="node20" class="node">
<title>2016</title>
<text text-anchor="middle" x="32" y="-229.6" font-family="Times,serif" font-size="24.00">2016</text>
</g>
<!-- 2014&#45;&gt;2016 -->
<!-- 2018 -->
<g id="node21" class="node">
<title>2018</title>
<text text-anchor="middle" x="32" y="-156.8" font-family="Times,serif" font-size="24.00">2018</text>
</g>
<!-- 2016&#45;&gt;2018 -->
<!-- 2019 -->
<g id="node22" class="node">
<title>2019</title>
<text text-anchor="middle" x="32" y="-84" font-family="Times,serif" font-size="24.00">2019</text>
</g>
<!-- 2018&#45;&gt;2019 -->
<!-- 2020 -->
<g id="node23" class="node">
<title>2020</title>
<text text-anchor="middle" x="32" y="-11.2" font-family="Times,serif" font-size="24.00">2020</text>
</g>
<!-- 2019&#45;&gt;2020 -->
<!-- CYK -->
<g id="node24" class="node">
<title>CYK</title>
<polygon fill="none" stroke="black" points="259.21,-1638 200.79,-1638 200.79,-1602 259.21,-1602 259.21,-1638"/>
<text text-anchor="middle" x="230" y="-1614" font-family="Times,serif" font-size="20.00">CYK</text>
</g>
<!-- Earley -->
<g id="node27" class="node">
<title>Earley</title>
<polygon fill="none" stroke="black" points="264.19,-1419.6 195.81,-1419.6 195.81,-1383.6 264.19,-1383.6 264.19,-1419.6"/>
<text text-anchor="middle" x="230" y="-1395.6" font-family="Times,serif" font-size="20.00">Earley</text>
</g>
<!-- CYK&#45;&gt;Earley -->
<g id="edge23" class="edge">
<title>CYK&#45;&gt;Earley</title>
<path fill="none" stroke="black" stroke-dasharray="1,5" d="M230,-1601.66C230,-1561.04 230,-1460.13 230,-1419.73"/>
</g>
<!-- Brzozowski Derivative -->
<g id="node25" class="node">
<title>Brzozowski Derivative</title>
<polygon fill="none" stroke="black" points="1072.43,-1565.2 871.57,-1565.2 871.57,-1529.2 1072.43,-1529.2 1072.43,-1565.2"/>
<text text-anchor="middle" x="972" y="-1541.2" font-family="Times,serif" font-size="20.00">Brzozowski Derivative</text>
</g>
<!-- Regular&#45;expression derivatives -->
<g id="node41" class="node">
<title>Regular&#45;expression derivatives</title>
<polygon fill="none" stroke="black" points="1104.24,-546 839.76,-546 839.76,-510 1104.24,-510 1104.24,-546"/>
<text text-anchor="middle" x="972" y="-522" font-family="Times,serif" font-size="20.00">Regular&#45;expression derivatives</text>
</g>
<!-- Brzozowski Derivative&#45;&gt;Regular&#45;expression derivatives -->
<g id="edge52" class="edge">
<title>Brzozowski Derivative&#45;&gt;Regular&#45;expression derivatives</title>
<path fill="none" stroke="black" stroke-dasharray="5,2" d="M972,-1528.96C972,-1502 972,-1448.22 972,-1402.6 972,-1402.6 972,-1402.6 972,-672.6 972,-632.15 972,-585.28 972,-556.38"/>
<polygon fill="black" stroke="black" points="975.5,-556.24 972,-546.24 968.5,-556.24 975.5,-556.24"/>
</g>
<!-- LR -->
<g id="node26" class="node">
<title>LR</title>
<polygon fill="none" stroke="black" points="412,-1492.4 358,-1492.4 358,-1456.4 412,-1456.4 412,-1492.4"/>
<text text-anchor="middle" x="385" y="-1468.4" font-family="Times,serif" font-size="20.00">LR</text>
</g>
<!-- LR&#45;&gt;Earley -->
<g id="edge24" class="edge">
<title>LR&#45;&gt;Earley</title>
<path fill="none" stroke="black" stroke-dasharray="1,5" d="M357.65,-1460.91C331.57,-1449 292.23,-1431.03 264.12,-1418.19"/>
</g>
<!-- LALR -->
<g id="node29" class="node">
<title>LALR</title>
<polygon fill="none" stroke="black" points="452.21,-1346.8 383.79,-1346.8 383.79,-1310.8 452.21,-1310.8 452.21,-1346.8"/>
<text text-anchor="middle" x="418" y="-1322.8" font-family="Times,serif" font-size="20.00">LALR</text>
</g>
<!-- LR&#45;&gt;LALR -->
<g id="edge32" class="edge">
<title>LR&#45;&gt;LALR</title>
<path fill="none" stroke="black" stroke-dasharray="5,2" d="M388.92,-1456.36C394.57,-1431.75 405.09,-1385.99 411.8,-1356.77"/>
<polygon fill="black" stroke="black" points="415.26,-1357.34 414.09,-1346.81 408.44,-1355.78 415.26,-1357.34"/>
</g>
<!-- GLR -->
<g id="node32" class="node">
<title>GLR</title>
<polygon fill="none" stroke="black" points="357.99,-1128.4 302.01,-1128.4 302.01,-1092.4 357.99,-1092.4 357.99,-1128.4"/>
<text text-anchor="middle" x="330" y="-1104.4" font-family="Times,serif" font-size="20.00">GLR</text>
</g>
<!-- LR&#45;&gt;GLR -->
<g id="edge35" class="edge">
<title>LR&#45;&gt;GLR</title>
<path fill="none" stroke="black" stroke-dasharray="5,2" d="M378.52,-1455.99C369.17,-1429.26 353,-1376.29 353,-1329.8 353,-1329.8 353,-1329.8 353,-1255 353,-1214.03 343.76,-1167.3 336.99,-1138.58"/>
<polygon fill="black" stroke="black" points="340.31,-1137.39 334.54,-1128.5 333.5,-1139.04 340.31,-1137.39"/>
</g>
<!-- LLLR -->
<g id="node49" class="node">
<title>LLLR</title>
<polygon fill="none" stroke="black" points="825.99,-254.8 760.01,-254.8 760.01,-218.8 825.99,-218.8 825.99,-254.8"/>
<text text-anchor="middle" x="793" y="-230.8" font-family="Times,serif" font-size="20.00">LLLR</text>
</g>
<!-- LR&#45;&gt;LLLR -->
<g id="edge49" class="edge">
<title>LR&#45;&gt;LLLR</title>
<path fill="none" stroke="black" stroke-dasharray="5,2" d="M412.22,-1471.14C481.73,-1465.03 664.08,-1446.84 718,-1420 769.83,-1394.2 812,-1387.7 812,-1329.8 812,-1329.8 812,-1329.8 812,-381.4 812,-340.59 804.37,-293.82 798.78,-265.04"/>
<polygon fill="black" stroke="black" points="802.15,-264.06 796.75,-254.94 795.29,-265.44 802.15,-264.06"/>
</g>
<!-- Earley&#45;&gt;GLR -->
<g id="edge25" class="edge">
<title>Earley&#45;&gt;GLR</title>
<path fill="none" stroke="black" stroke-dasharray="1,5" d="M235.96,-1383.38C253.74,-1331.94 306.33,-1179.85 324.08,-1128.53"/>
</g>
<!-- Yakker -->
<g id="node44" class="node">
<title>Yakker</title>
<polygon fill="none" stroke="black" points="156.35,-473.2 81.65,-473.2 81.65,-437.2 156.35,-437.2 156.35,-473.2"/>
<text text-anchor="middle" x="119" y="-449.2" font-family="Times,serif" font-size="20.00">Yakker</text>
</g>
<!-- Earley&#45;&gt;Yakker -->
<g id="edge26" class="edge">
<title>Earley&#45;&gt;Yakker</title>
<path fill="none" stroke="black" stroke-dasharray="5,2" d="M204.26,-1383.54C171.46,-1359.53 119,-1312.46 119,-1257 119,-1257 119,-1257 119,-599.8 119,-559.35 119,-512.48 119,-483.58"/>
<polygon fill="black" stroke="black" points="122.5,-483.44 119,-473.44 115.5,-483.44 122.5,-483.44"/>
</g>
<!-- SEVM -->
<g id="node51" class="node">
<title>SEVM</title>
<polygon fill="none" stroke="black" points="219.55,-109.2 148.45,-109.2 148.45,-73.2 219.55,-73.2 219.55,-109.2"/>
<text text-anchor="middle" x="184" y="-85.2" font-family="Times,serif" font-size="20.00">SEVM</text>
</g>
<!-- Earley&#45;&gt;SEVM -->
<g id="edge27" class="edge">
<title>Earley&#45;&gt;SEVM</title>
<path fill="none" stroke="black" stroke-dasharray="5,2" d="M220.69,-1383.48C207.25,-1357.12 184,-1304.64 184,-1257 184,-1257 184,-1257 184,-235.8 184,-195.35 184,-148.48 184,-119.58"/>
<polygon fill="black" stroke="black" points="187.5,-119.44 184,-109.44 180.5,-119.44 187.5,-119.44"/>
</g>
<!-- LL(k) -->
<g id="node28" class="node">
<title>LL(k)</title>
<polygon fill="none" stroke="black" points="708.75,-1419.6 645.25,-1419.6 645.25,-1383.6 708.75,-1383.6 708.75,-1419.6"/>
<text text-anchor="middle" x="677" y="-1395.6" font-family="Times,serif" font-size="20.00">LL(k)</text>
</g>
<!-- Efficient LL(k) -->
<g id="node33" class="node">
<title>Efficient LL(k)</title>
<polygon fill="none" stroke="black" points="746.22,-1055.6 607.78,-1055.6 607.78,-1019.6 746.22,-1019.6 746.22,-1055.6"/>
<text text-anchor="middle" x="677" y="-1031.6" font-family="Times,serif" font-size="20.00">Efficient LL(k)</text>
</g>
<!-- LL(k)&#45;&gt;Efficient LL(k) -->
<g id="edge28" class="edge">
<title>LL(k)&#45;&gt;Efficient LL(k)</title>
<path fill="none" stroke="black" stroke-dasharray="5,2" d="M677,-1383.36C677,-1356.4 677,-1302.62 677,-1257 677,-1257 677,-1257 677,-1182.2 677,-1141.75 677,-1094.88 677,-1065.98"/>
<polygon fill="black" stroke="black" points="680.5,-1065.84 677,-1055.84 673.5,-1065.84 680.5,-1065.84"/>
</g>
<!-- GLL -->
<g id="node42" class="node">
<title>GLL</title>
<polygon fill="none" stroke="black" points="505.37,-473.2 450.63,-473.2 450.63,-437.2 505.37,-437.2 505.37,-473.2"/>
<text text-anchor="middle" x="478" y="-449.2" font-family="Times,serif" font-size="20.00">GLL</text>
</g>
<!-- LL(k)&#45;&gt;GLL -->
<g id="edge31" class="edge">
<title>LL(k)&#45;&gt;GLL</title>
<path fill="none" stroke="black" stroke-dasharray="5,2" d="M654.99,-1383.23C626.37,-1358.51 580,-1310.25 580,-1257 580,-1257 580,-1257 580,-599.8 580,-550.11 538.91,-505.65 508.89,-479.8"/>
<polygon fill="black" stroke="black" points="511.06,-477.05 501.15,-473.32 506.57,-482.42 511.06,-477.05"/>
</g>
<!-- LL(k)&#45;&gt;LLLR -->
<g id="edge48" class="edge">
<title>LL(k)&#45;&gt;LLLR</title>
<path fill="none" stroke="black" stroke-dasharray="5,2" d="M699.01,-1383.23C727.63,-1358.51 774,-1310.25 774,-1257 774,-1257 774,-1257 774,-381.4 774,-340.59 781.63,-293.82 787.22,-265.04"/>
<polygon fill="black" stroke="black" points="790.71,-265.44 789.25,-254.94 783.85,-264.06 790.71,-265.44"/>
</g>
<!-- SLR -->
<g id="node31" class="node">
<title>SLR</title>
<polygon fill="none" stroke="black" points="445,-1201.2 391,-1201.2 391,-1165.2 445,-1165.2 445,-1201.2"/>
<text text-anchor="middle" x="418" y="-1177.2" font-family="Times,serif" font-size="20.00">SLR</text>
</g>
<!-- LALR&#45;&gt;SLR -->
<g id="edge33" class="edge">
<title>LALR&#45;&gt;SLR</title>
<path fill="none" stroke="black" d="M418,-1310.76C418,-1286.26 418,-1240.8 418,-1211.55"/>
<polygon fill="black" stroke="black" points="421.5,-1211.21 418,-1201.21 414.5,-1211.21 421.5,-1211.21"/>
</g>
<!-- LAR(m) -->
<g id="node34" class="node">
<title>LAR(m)</title>
<polygon fill="none" stroke="black" points="552.37,-1055.6 467.63,-1055.6 467.63,-1019.6 552.37,-1019.6 552.37,-1055.6"/>
<text text-anchor="middle" x="510" y="-1031.6" font-family="Times,serif" font-size="20.00">LAR(m)</text>
</g>
<!-- LALR&#45;&gt;LAR(m) -->
<g id="edge34" class="edge">
<title>LALR&#45;&gt;LAR(m)</title>
<path fill="none" stroke="black" stroke-dasharray="5,2" d="M423.48,-1310.58C438.92,-1262.05 482.85,-1123.96 501.48,-1065.39"/>
<polygon fill="black" stroke="black" points="504.85,-1066.32 504.55,-1055.73 498.18,-1064.2 504.85,-1066.32"/>
</g>
<!-- TDPL -->
<g id="node30" class="node">
<title>TDPL</title>
<polygon fill="none" stroke="black" points="1206.99,-1274 1141.01,-1274 1141.01,-1238 1206.99,-1238 1206.99,-1274"/>
<text text-anchor="middle" x="1174" y="-1250" font-family="Times,serif" font-size="20.00">TDPL</text>
</g>
<!-- PEG -->
<g id="node37" class="node">
<title>PEG</title>
<polygon fill="none" stroke="black" points="1201,-837.2 1147,-837.2 1147,-801.2 1201,-801.2 1201,-837.2"/>
<text text-anchor="middle" x="1174" y="-813.2" font-family="Times,serif" font-size="20.00">PEG</text>
</g>
<!-- TDPL&#45;&gt;PEG -->
<g id="edge45" class="edge">
<title>TDPL&#45;&gt;PEG</title>
<path fill="none" stroke="black" stroke-dasharray="5,2" d="M1174,-1237.76C1174,-1210.8 1174,-1157.02 1174,-1111.4 1174,-1111.4 1174,-1111.4 1174,-963.8 1174,-923.35 1174,-876.48 1174,-847.58"/>
<polygon fill="black" stroke="black" points="1177.5,-847.44 1174,-837.44 1170.5,-847.44 1177.5,-847.44"/>
</g>
<!-- GLR* -->
<g id="node35" class="node">
<title>GLR*</title>
<polygon fill="none" stroke="black" points="423.99,-982.8 358.01,-982.8 358.01,-946.8 423.99,-946.8 423.99,-982.8"/>
<text text-anchor="middle" x="391" y="-958.8" font-family="Times,serif" font-size="20.00">GLR*</text>
</g>
<!-- GLR&#45;&gt;GLR* -->
<g id="edge38" class="edge">
<title>GLR&#45;&gt;GLR*</title>
<path fill="none" stroke="black" d="M337.24,-1092.36C347.74,-1067.64 367.3,-1021.59 379.71,-992.38"/>
<polygon fill="black" stroke="black" points="383.08,-993.39 383.77,-982.81 376.64,-990.65 383.08,-993.39"/>
</g>
<!-- SGLR -->
<g id="node36" class="node">
<title>SGLR</title>
<polygon fill="none" stroke="black" points="409.61,-910 342.39,-910 342.39,-874 409.61,-874 409.61,-910"/>
<text text-anchor="middle" x="376" y="-886" font-family="Times,serif" font-size="20.00">SGLR</text>
</g>
<!-- GLR&#45;&gt;SGLR -->
<g id="edge36" class="edge">
<title>GLR&#45;&gt;SGLR</title>
<path fill="none" stroke="black" stroke-dasharray="5,2" d="M330.04,-1092.35C330.53,-1062.24 333.49,-997.97 349,-946.4 351.78,-937.15 356.11,-927.57 360.48,-919.13"/>
<polygon fill="black" stroke="black" points="363.66,-920.61 365.37,-910.15 357.52,-917.26 363.66,-920.61"/>
</g>
<!-- RIGLR -->
<g id="node38" class="node">
<title>RIGLR</title>
<polygon fill="none" stroke="black" points="331.99,-764.4 256.01,-764.4 256.01,-728.4 331.99,-728.4 331.99,-764.4"/>
<text text-anchor="middle" x="294" y="-740.4" font-family="Times,serif" font-size="20.00">RIGLR</text>
</g>
<!-- GLR&#45;&gt;RIGLR -->
<g id="edge41" class="edge">
<title>GLR&#45;&gt;RIGLR</title>
<path fill="none" stroke="black" stroke-dasharray="5,2" d="M322.31,-1092.11C311.21,-1065.51 292,-1012.74 292,-965.8 292,-965.8 292,-965.8 292,-891 292,-850.54 292.8,-803.68 293.39,-774.78"/>
<polygon fill="black" stroke="black" points="296.89,-774.71 293.6,-764.64 289.9,-774.56 296.89,-774.71"/>
</g>
<!-- GLR&#45;&gt;GLL -->
<g id="edge51" class="edge">
<title>GLR&#45;&gt;GLL</title>
<path fill="none" stroke="black" stroke-dasharray="1,5" d="M344.71,-1092.19C353.56,-1081.77 365.01,-1068.19 375,-1056 401.22,-1024 415.37,-1020.63 433,-983.2 450.46,-946.14 452,-933.97 452,-893 452,-893 452,-893 452,-599.8 452,-553.44 465.29,-499.98 472.86,-473.26"/>
</g>
<!-- IGLR -->
<g id="node43" class="node">
<title>IGLR</title>
<polygon fill="none" stroke="black" points="283.15,-473.2 220.85,-473.2 220.85,-437.2 283.15,-437.2 283.15,-473.2"/>
<text text-anchor="middle" x="252" y="-449.2" font-family="Times,serif" font-size="20.00">IGLR</text>
</g>
<!-- GLR&#45;&gt;IGLR -->
<g id="edge39" class="edge">
<title>GLR&#45;&gt;IGLR</title>
<path fill="none" stroke="black" stroke-dasharray="5,2" d="M305.22,-1092.38C273.34,-1068.26 222,-1020.86 222,-965.8 222,-965.8 222,-965.8 222,-599.8 222,-558.29 234.16,-511.43 243,-482.86"/>
<polygon fill="black" stroke="black" points="246.37,-483.79 246.07,-473.2 239.7,-481.67 246.37,-483.79"/>
</g>
<!-- LL(*) -->
<g id="node46" class="node">
<title>LL(*)</title>
<polygon fill="none" stroke="black" points="617.75,-400.4 554.25,-400.4 554.25,-364.4 617.75,-364.4 617.75,-400.4"/>
<text text-anchor="middle" x="586" y="-376.4" font-family="Times,serif" font-size="20.00">LL(*)</text>
</g>
<!-- Efficient LL(k)&#45;&gt;LL(*) -->
<g id="edge29" class="edge">
<title>Efficient LL(k)&#45;&gt;LL(*)</title>
<path fill="none" stroke="black" d="M671.27,-1019.58C662.82,-992.92 648,-939.54 648,-893 648,-893 648,-893 648,-527 648,-482.65 622.76,-436.44 604.49,-408.8"/>
<polygon fill="black" stroke="black" points="607.37,-406.8 598.85,-400.5 601.58,-410.73 607.37,-406.8"/>
</g>
<!-- LAR(m)&#45;&gt;LL(*) -->
<g id="edge50" class="edge">
<title>LAR(m)&#45;&gt;LL(*)</title>
<path fill="none" stroke="black" stroke-dasharray="1,5" d="M515.33,-1019.55C523.2,-992.86 537,-939.42 537,-893 537,-893 537,-893 537,-527 537,-479.06 561.77,-426.7 576.08,-400.44"/>
</g>
<!-- MSGLR -->
<g id="node50" class="node">
<title>MSGLR</title>
<polygon fill="none" stroke="black" points="386.39,-182 301.61,-182 301.61,-146 386.39,-146 386.39,-182"/>
<text text-anchor="middle" x="344" y="-158" font-family="Times,serif" font-size="20.00">MSGLR</text>
</g>
<!-- SGLR&#45;&gt;MSGLR -->
<g id="edge37" class="edge">
<title>SGLR&#45;&gt;MSGLR</title>
<path fill="none" stroke="black" stroke-dasharray="5,2" d="M376,-873.76C376,-846.8 376,-793.02 376,-747.4 376,-747.4 376,-747.4 376,-308.6 376,-267.2 363.17,-220.65 353.76,-192.08"/>
<polygon fill="black" stroke="black" points="357,-190.75 350.48,-182.41 350.38,-193 357,-190.75"/>
</g>
<!-- ISGLR -->
<g id="node53" class="node">
<title>ISGLR</title>
<polygon fill="none" stroke="black" points="373.77,-36.4 300.23,-36.4 300.23,-0.4 373.77,-0.4 373.77,-36.4"/>
<text text-anchor="middle" x="337" y="-12.4" font-family="Times,serif" font-size="20.00">ISGLR</text>
</g>
<!-- SGLR&#45;&gt;ISGLR -->
<g id="edge44" class="edge">
<title>SGLR&#45;&gt;ISGLR</title>
<path fill="none" stroke="black" stroke-dasharray="5,2" d="M383.69,-873.71C394.79,-847.11 414,-794.34 414,-747.4 414,-747.4 414,-747.4 414,-163 414,-117.11 383.08,-71.72 360.43,-44.62"/>
<polygon fill="black" stroke="black" points="362.89,-42.11 353.71,-36.82 357.58,-46.68 362.89,-42.11"/>
</g>
<!-- Tratt&#39;s PEG -->
<g id="node45" class="node">
<title>Tratt&#39;s PEG</title>
<polygon fill="none" stroke="black" points="1188.08,-473.2 1075.92,-473.2 1075.92,-437.2 1188.08,-437.2 1188.08,-473.2"/>
<text text-anchor="middle" x="1132" y="-449.2" font-family="Times,serif" font-size="20.00">Tratt&#39;s PEG</text>
</g>
<!-- PEG&#45;&gt;Tratt&#39;s PEG -->
<g id="edge47" class="edge">
<title>PEG&#45;&gt;Tratt&#39;s PEG</title>
<path fill="none" stroke="black" stroke-dasharray="5,2" d="M1165.5,-800.99C1153.23,-774.51 1132,-721.87 1132,-674.6 1132,-674.6 1132,-674.6 1132,-599.8 1132,-559.35 1132,-512.48 1132,-483.58"/>
<polygon fill="black" stroke="black" points="1135.5,-483.44 1132,-473.44 1128.5,-483.44 1135.5,-483.44"/>
</g>
<!-- Pika -->
<g id="node54" class="node">
<title>Pika</title>
<polygon fill="none" stroke="black" points="1243,-36.4 1189,-36.4 1189,-0.4 1243,-0.4 1243,-36.4"/>
<text text-anchor="middle" x="1216" y="-12.4" font-family="Times,serif" font-size="20.00">Pika</text>
</g>
<!-- PEG&#45;&gt;Pika -->
<g id="edge46" class="edge">
<title>PEG&#45;&gt;Pika</title>
<path fill="none" stroke="black" stroke-dasharray="5,2" d="M1182.5,-800.99C1194.77,-774.51 1216,-721.87 1216,-674.6 1216,-674.6 1216,-674.6 1216,-163 1216,-122.55 1216,-75.68 1216,-46.78"/>
<polygon fill="black" stroke="black" points="1219.5,-46.64 1216,-36.64 1212.5,-46.64 1219.5,-46.64"/>
</g>
<!-- RNGLR -->
<g id="node39" class="node">
<title>RNGLR</title>
<polygon fill="none" stroke="black" points="337.77,-691.6 254.23,-691.6 254.23,-655.6 337.77,-655.6 337.77,-691.6"/>
<text text-anchor="middle" x="296" y="-667.6" font-family="Times,serif" font-size="20.00">RNGLR</text>
</g>
<!-- RIGLR&#45;&gt;RNGLR -->
<g id="edge42" class="edge">
<title>RIGLR&#45;&gt;RNGLR</title>
<path fill="none" stroke="black" d="M294.48,-728.26C294.7,-720.46 294.97,-711.04 295.22,-702.28"/>
<polygon fill="black" stroke="black" points="298.72,-702.17 295.51,-692.07 291.73,-701.97 298.72,-702.17"/>
</g>
<!-- BRNGLR -->
<g id="node40" class="node">
<title>BRNGLR</title>
<polygon fill="none" stroke="black" points="347.61,-618.8 250.39,-618.8 250.39,-582.8 347.61,-582.8 347.61,-618.8"/>
<text text-anchor="middle" x="299" y="-594.8" font-family="Times,serif" font-size="20.00">BRNGLR</text>
</g>
<!-- RNGLR&#45;&gt;BRNGLR -->
<g id="edge43" class="edge">
<title>RNGLR&#45;&gt;BRNGLR</title>
<path fill="none" stroke="black" d="M296.73,-655.46C297.06,-647.66 297.46,-638.24 297.83,-629.48"/>
<polygon fill="black" stroke="black" points="301.33,-629.41 298.26,-619.27 294.34,-629.12 301.33,-629.41"/>
</g>
<!-- Parsing with Derivatives -->
<g id="node47" class="node">
<title>Parsing with Derivatives</title>
<polygon fill="none" stroke="black" points="1078.73,-400.4 865.27,-400.4 865.27,-364.4 1078.73,-364.4 1078.73,-400.4"/>
<text text-anchor="middle" x="972" y="-376.4" font-family="Times,serif" font-size="20.00">Parsing with Derivatives</text>
</g>
<!-- Regular&#45;expression derivatives&#45;&gt;Parsing with Derivatives -->
<g id="edge53" class="edge">
<title>Regular&#45;expression derivatives&#45;&gt;Parsing with Derivatives</title>
<path fill="none" stroke="black" stroke-dasharray="5,2" d="M972,-509.96C972,-485.46 972,-440 972,-410.75"/>
<polygon fill="black" stroke="black" points="975.5,-410.41 972,-400.41 968.5,-410.41 975.5,-410.41"/>
</g>
<!-- IGLR&#45;&gt;ISGLR -->
<g id="edge40" class="edge">
<title>IGLR&#45;&gt;ISGLR</title>
<path fill="none" stroke="black" stroke-dasharray="5,2" d="M253.78,-436.98C256.4,-410.05 261,-356.31 261,-310.6 261,-310.6 261,-310.6 261,-163 261,-116.99 291.86,-71.31 314.25,-44.22"/>
<polygon fill="black" stroke="black" points="317.06,-46.31 320.88,-36.43 311.73,-41.77 317.06,-46.31"/>
</g>
<!-- ALL(*) -->
<g id="node48" class="node">
<title>ALL(*)</title>
<polygon fill="none" stroke="black" points="625.19,-327.6 546.81,-327.6 546.81,-291.6 625.19,-291.6 625.19,-327.6"/>
<text text-anchor="middle" x="586" y="-303.6" font-family="Times,serif" font-size="20.00">ALL(*)</text>
</g>
<!-- LL(*)&#45;&gt;ALL(*) -->
<g id="edge30" class="edge">
<title>LL(*)&#45;&gt;ALL(*)</title>
<path fill="none" stroke="black" d="M586,-364.26C586,-356.46 586,-347.04 586,-338.28"/>
<polygon fill="black" stroke="black" points="589.5,-338.07 586,-328.07 582.5,-338.07 589.5,-338.07"/>
</g>
<!-- LL(1) Parsing with Derivatives and Zippers -->
<g id="node52" class="node">
<title>LL(1) Parsing with Derivatives and Zippers</title>
<polygon fill="none" stroke="black" points="1155.45,-109.2 788.55,-109.2 788.55,-73.2 1155.45,-73.2 1155.45,-109.2"/>
<text text-anchor="middle" x="972" y="-85.2" font-family="Times,serif" font-size="20.00">LL(1) Parsing with Derivatives and Zippers</text>
</g>
<!-- Parsing with Derivatives&#45;&gt;LL(1) Parsing with Derivatives and Zippers -->
<g id="edge54" class="edge">
<title>Parsing with Derivatives&#45;&gt;LL(1) Parsing with Derivatives and Zippers</title>
<path fill="none" stroke="black" stroke-dasharray="5,2" d="M972,-364.18C972,-315.75 972,-178.13 972,-119.35"/>
<polygon fill="black" stroke="black" points="975.5,-119.33 972,-109.33 968.5,-119.33 975.5,-119.33"/>
</g>
</g>
</svg>
