<?xml version="1.0" encoding="UTF-8" standalone="no"?>
<!DOCTYPE svg PUBLIC "-//W3C//DTD SVG 1.1//EN"
 "http://www.w3.org/Graphics/SVG/1.1/DTD/svg11.dtd">
<!-- Generated by graphviz version 2.44.1 (20201217.1751)
 -->
<!-- Title: timeline Pages: 1 -->
<svg width="383pt" height="576pt"
 viewBox="0.00 0.00 382.64 576.00" xmlns="http://www.w3.org/2000/svg" xmlns:xlink="http://www.w3.org/1999/xlink">
<g id="graph0" class="graph" transform="scale(0.38 0.38) rotate(0) translate(4 1496.8)">
<title>timeline</title>
<polygon fill="white" stroke="transparent" points="-4,4 -4,-1496.8 993,-1496.8 993,4 -4,4"/>
<!-- 1961 -->
<g id="node1" class="node">
<title>1961</title>
<text text-anchor="middle" x="32" y="-1467.2" font-family="Times,serif" font-size="24.00">1961</text>
</g>
<!-- 1965 -->
<g id="node2" class="node">
<title>1965</title>
<text text-anchor="middle" x="32" y="-1394.4" font-family="Times,serif" font-size="24.00">1965</text>
</g>
<!-- 1961&#45;&gt;1965 -->
<!-- 1968 -->
<g id="node3" class="node">
<title>1968</title>
<text text-anchor="middle" x="32" y="-1321.6" font-family="Times,serif" font-size="24.00">1968</text>
</g>
<!-- 1965&#45;&gt;1968 -->
<!-- 1969 -->
<g id="node4" class="node">
<title>1969</title>
<text text-anchor="middle" x="32" y="-1248.8" font-family="Times,serif" font-size="24.00">1969</text>
</g>
<!-- 1968&#45;&gt;1969 -->
<!-- 1970 -->
<g id="node5" class="node">
<title>1970</title>
<text text-anchor="middle" x="32" y="-1176" font-family="Times,serif" font-size="24.00">1970</text>
</g>
<!-- 1969&#45;&gt;1970 -->
<!-- 1971 -->
<g id="node6" class="node">
<title>1971</title>
<text text-anchor="middle" x="32" y="-1103.2" font-family="Times,serif" font-size="24.00">1971</text>
</g>
<!-- 1970&#45;&gt;1971 -->
<!-- 1984 -->
<g id="node7" class="node">
<title>1984</title>
<text text-anchor="middle" x="32" y="-1030.4" font-family="Times,serif" font-size="24.00">1984</text>
</g>
<!-- 1971&#45;&gt;1984 -->
<!-- 1990 -->
<g id="node8" class="node">
<title>1990</title>
<text text-anchor="middle" x="32" y="-957.6" font-family="Times,serif" font-size="24.00">1990</text>
</g>
<!-- 1984&#45;&gt;1990 -->
<!-- 1993 -->
<g id="node9" class="node">
<title>1993</title>
<text text-anchor="middle" x="32" y="-884.8" font-family="Times,serif" font-size="24.00">1993</text>
</g>
<!-- 1990&#45;&gt;1993 -->
<!-- 1999 -->
<g id="node10" class="node">
<title>1999</title>
<text text-anchor="middle" x="32" y="-812" font-family="Times,serif" font-size="24.00">1999</text>
</g>
<!-- 1993&#45;&gt;1999 -->
<!-- 2004 -->
<g id="node11" class="node">
<title>2004</title>
<text text-anchor="middle" x="32" y="-739.2" font-family="Times,serif" font-size="24.00">2004</text>
</g>
<!-- 1999&#45;&gt;2004 -->
<!-- 2005 -->
<g id="node12" class="node">
<title>2005</title>
<text text-anchor="middle" x="32" y="-666.4" font-family="Times,serif" font-size="24.00">2005</text>
</g>
<!-- 2004&#45;&gt;2005 -->
<!-- 2006 -->
<g id="node13" class="node">
<title>2006</title>
<text text-anchor="middle" x="32" y="-593.6" font-family="Times,serif" font-size="24.00">2006</text>
</g>
<!-- 2005&#45;&gt;2006 -->
<!-- 2007 -->
<g id="node14" class="node">
<title>2007</title>
<text text-anchor="middle" x="32" y="-520.8" font-family="Times,serif" font-size="24.00">2007</text>
</g>
<!-- 2006&#45;&gt;2007 -->
<!-- 2010 -->
<g id="node15" class="node">
<title>2010</title>
<text text-anchor="middle" x="32" y="-448" font-family="Times,serif" font-size="24.00">2010</text>
</g>
<!-- 2007&#45;&gt;2010 -->
<!-- 2011 -->
<g id="node16" class="node">
<title>2011</title>
<text text-anchor="middle" x="32" y="-375.2" font-family="Times,serif" font-size="24.00">2011</text>
</g>
<!-- 2010&#45;&gt;2011 -->
<!-- 2014 -->
<g id="node17" class="node">
<title>2014</title>
<text text-anchor="middle" x="32" y="-302.4" font-family="Times,serif" font-size="24.00">2014</text>
</g>
<!-- 2011&#45;&gt;2014 -->
<!-- 2016 -->
<g id="node18" class="node">
<title>2016</title>
<text text-anchor="middle" x="32" y="-229.6" font-family="Times,serif" font-size="24.00">2016</text>
</g>
<!-- 2014&#45;&gt;2016 -->
<!-- 2018 -->
<g id="node19" class="node">
<title>2018</title>
<text text-anchor="middle" x="32" y="-156.8" font-family="Times,serif" font-size="24.00">2018</text>
</g>
<!-- 2016&#45;&gt;2018 -->
<!-- 2019 -->
<g id="node20" class="node">
<title>2019</title>
<text text-anchor="middle" x="32" y="-84" font-family="Times,serif" font-size="24.00">2019</text>
</g>
<!-- 2018&#45;&gt;2019 -->
<!-- 2020 -->
<g id="node21" class="node">
<title>2020</title>
<text text-anchor="middle" x="32" y="-11.2" font-family="Times,serif" font-size="24.00">2020</text>
</g>
<!-- 2019&#45;&gt;2020 -->
<!-- CYK -->
<g id="node22" class="node">
<title>CYK</title>
<polygon fill="none" stroke="black" points="275.21,-1492.4 216.79,-1492.4 216.79,-1456.4 275.21,-1456.4 275.21,-1492.4"/>
<text text-anchor="middle" x="246" y="-1468.4" font-family="Times,serif" font-size="20.00">CYK</text>
</g>
<!-- Earley -->
<g id="node24" class="node">
<title>Earley</title>
<polygon fill="none" stroke="black" points="280.19,-1346.8 211.81,-1346.8 211.81,-1310.8 280.19,-1310.8 280.19,-1346.8"/>
<text text-anchor="middle" x="246" y="-1322.8" font-family="Times,serif" font-size="20.00">Earley</text>
</g>
<!-- CYK&#45;&gt;Earley -->
<g id="edge21" class="edge">
<title>CYK&#45;&gt;Earley</title>
<path fill="none" stroke="black" stroke-dasharray="1,5" d="M246,-1456.36C246,-1428.73 246,-1374.44 246,-1346.81"/>
</g>
<!-- LR -->
<g id="node23" class="node">
<title>LR</title>
<polygon fill="none" stroke="black" points="405,-1419.6 351,-1419.6 351,-1383.6 405,-1383.6 405,-1419.6"/>
<text text-anchor="middle" x="378" y="-1395.6" font-family="Times,serif" font-size="20.00">LR</text>
</g>
<!-- LR&#45;&gt;Earley -->
<g id="edge22" class="edge">
<title>LR&#45;&gt;Earley</title>
<path fill="none" stroke="black" stroke-dasharray="1,5" d="M350.97,-1386.1C329.85,-1374.77 300.44,-1359 278.12,-1347.03"/>
</g>
<!-- LALR -->
<g id="node26" class="node">
<title>LALR</title>
<polygon fill="none" stroke="black" points="453.21,-1274 384.79,-1274 384.79,-1238 453.21,-1238 453.21,-1274"/>
<text text-anchor="middle" x="419" y="-1250" font-family="Times,serif" font-size="20.00">LALR</text>
</g>
<!-- LR&#45;&gt;LALR -->
<g id="edge30" class="edge">
<title>LR&#45;&gt;LALR</title>
<path fill="none" stroke="black" stroke-dasharray="5,2" d="M382.86,-1383.56C389.89,-1358.95 402.96,-1313.19 411.3,-1283.97"/>
<polygon fill="black" stroke="black" points="414.76,-1284.59 414.14,-1274.01 408.03,-1282.67 414.76,-1284.59"/>
</g>
<!-- GLR -->
<g id="node29" class="node">
<title>GLR</title>
<polygon fill="none" stroke="black" points="371.99,-1055.6 316.01,-1055.6 316.01,-1019.6 371.99,-1019.6 371.99,-1055.6"/>
<text text-anchor="middle" x="344" y="-1031.6" font-family="Times,serif" font-size="20.00">GLR</text>
</g>
<!-- LR&#45;&gt;GLR -->
<g id="edge33" class="edge">
<title>LR&#45;&gt;GLR</title>
<path fill="none" stroke="black" stroke-dasharray="5,2" d="M372.47,-1383.57C364.31,-1356.89 350,-1303.48 350,-1257 350,-1257 350,-1257 350,-1182.2 350,-1141.71 347.59,-1094.85 345.82,-1065.97"/>
<polygon fill="black" stroke="black" points="349.31,-1065.59 345.19,-1055.83 342.32,-1066.03 349.31,-1065.59"/>
</g>
<!-- LLLR -->
<g id="node44" class="node">
<title>LLLR</title>
<polygon fill="none" stroke="black" points="807.99,-254.8 742.01,-254.8 742.01,-218.8 807.99,-218.8 807.99,-254.8"/>
<text text-anchor="middle" x="775" y="-230.8" font-family="Times,serif" font-size="20.00">LLLR</text>
</g>
<!-- LR&#45;&gt;LLLR -->
<g id="edge47" class="edge">
<title>LR&#45;&gt;LLLR</title>
<path fill="none" stroke="black" stroke-dasharray="5,2" d="M405.08,-1401.36C462.62,-1401.9 599.94,-1397.34 700,-1347.2 751.76,-1321.26 794,-1314.9 794,-1257 794,-1257 794,-1257 794,-381.4 794,-340.59 786.37,-293.82 780.78,-265.04"/>
<polygon fill="black" stroke="black" points="784.15,-264.06 778.75,-254.94 777.29,-265.44 784.15,-264.06"/>
</g>
<!-- Earley&#45;&gt;GLR -->
<g id="edge23" class="edge">
<title>Earley&#45;&gt;GLR</title>
<path fill="none" stroke="black" stroke-dasharray="1,5" d="M251.84,-1310.58C269.27,-1259.14 320.8,-1107.05 338.19,-1055.73"/>
</g>
<!-- Yakker -->
<g id="node40" class="node">
<title>Yakker</title>
<polygon fill="none" stroke="black" points="156.35,-473.2 81.65,-473.2 81.65,-437.2 156.35,-437.2 156.35,-473.2"/>
<text text-anchor="middle" x="119" y="-449.2" font-family="Times,serif" font-size="20.00">Yakker</text>
</g>
<!-- Earley&#45;&gt;Yakker -->
<g id="edge24" class="edge">
<title>Earley&#45;&gt;Yakker</title>
<path fill="none" stroke="black" stroke-dasharray="5,2" d="M214.93,-1310.66C177.33,-1287.38 119,-1241.94 119,-1184.2 119,-1184.2 119,-1184.2 119,-599.8 119,-559.35 119,-512.48 119,-483.58"/>
<polygon fill="black" stroke="black" points="122.5,-483.44 119,-473.44 115.5,-483.44 122.5,-483.44"/>
</g>
<!-- SEVM -->
<g id="node46" class="node">
<title>SEVM</title>
<polygon fill="none" stroke="black" points="219.55,-109.2 148.45,-109.2 148.45,-73.2 219.55,-73.2 219.55,-109.2"/>
<text text-anchor="middle" x="184" y="-85.2" font-family="Times,serif" font-size="20.00">SEVM</text>
</g>
<!-- Earley&#45;&gt;SEVM -->
<g id="edge25" class="edge">
<title>Earley&#45;&gt;SEVM</title>
<path fill="none" stroke="black" stroke-dasharray="5,2" d="M233.15,-1310.7C214.99,-1284.78 184,-1233.35 184,-1184.2 184,-1184.2 184,-1184.2 184,-235.8 184,-195.35 184,-148.48 184,-119.58"/>
<polygon fill="black" stroke="black" points="187.5,-119.44 184,-109.44 180.5,-119.44 187.5,-119.44"/>
</g>
<!-- LL(k) -->
<g id="node25" class="node">
<title>LL(k)</title>
<polygon fill="none" stroke="black" points="690.75,-1346.8 627.25,-1346.8 627.25,-1310.8 690.75,-1310.8 690.75,-1346.8"/>
<text text-anchor="middle" x="659" y="-1322.8" font-family="Times,serif" font-size="20.00">LL(k)</text>
</g>
<!-- Efficient LL(k) -->
<g id="node30" class="node">
<title>Efficient LL(k)</title>
<polygon fill="none" stroke="black" points="728.22,-982.8 589.78,-982.8 589.78,-946.8 728.22,-946.8 728.22,-982.8"/>
<text text-anchor="middle" x="659" y="-958.8" font-family="Times,serif" font-size="20.00">Efficient LL(k)</text>
</g>
<!-- LL(k)&#45;&gt;Efficient LL(k) -->
<g id="edge26" class="edge">
<title>LL(k)&#45;&gt;Efficient LL(k)</title>
<path fill="none" stroke="black" stroke-dasharray="5,2" d="M659,-1310.56C659,-1283.6 659,-1229.82 659,-1184.2 659,-1184.2 659,-1184.2 659,-1109.4 659,-1068.95 659,-1022.08 659,-993.18"/>
<polygon fill="black" stroke="black" points="662.5,-993.04 659,-983.04 655.5,-993.04 662.5,-993.04"/>
</g>
<!-- GLL -->
<g id="node38" class="node">
<title>GLL</title>
<polygon fill="none" stroke="black" points="588.37,-473.2 533.63,-473.2 533.63,-437.2 588.37,-437.2 588.37,-473.2"/>
<text text-anchor="middle" x="561" y="-449.2" font-family="Times,serif" font-size="20.00">GLL</text>
</g>
<!-- LL(k)&#45;&gt;GLL -->
<g id="edge29" class="edge">
<title>LL(k)&#45;&gt;GLL</title>
<path fill="none" stroke="black" stroke-dasharray="5,2" d="M636.99,-1310.43C608.37,-1285.71 562,-1237.45 562,-1184.2 562,-1184.2 562,-1184.2 562,-599.8 562,-559.34 561.6,-512.48 561.3,-483.58"/>
<polygon fill="black" stroke="black" points="564.8,-483.4 561.2,-473.44 557.8,-483.48 564.8,-483.4"/>
</g>
<!-- LL(k)&#45;&gt;LLLR -->
<g id="edge46" class="edge">
<title>LL(k)&#45;&gt;LLLR</title>
<path fill="none" stroke="black" stroke-dasharray="5,2" d="M681.01,-1310.43C709.63,-1285.71 756,-1237.45 756,-1184.2 756,-1184.2 756,-1184.2 756,-381.4 756,-340.59 763.63,-293.82 769.22,-265.04"/>
<polygon fill="black" stroke="black" points="772.71,-265.44 771.25,-254.94 765.85,-264.06 772.71,-265.44"/>
</g>
<!-- SLR -->
<g id="node28" class="node">
<title>SLR</title>
<polygon fill="none" stroke="black" points="446,-1128.4 392,-1128.4 392,-1092.4 446,-1092.4 446,-1128.4"/>
<text text-anchor="middle" x="419" y="-1104.4" font-family="Times,serif" font-size="20.00">SLR</text>
</g>
<!-- LALR&#45;&gt;SLR -->
<g id="edge31" class="edge">
<title>LALR&#45;&gt;SLR</title>
<path fill="none" stroke="black" d="M419,-1237.96C419,-1213.46 419,-1168 419,-1138.75"/>
<polygon fill="black" stroke="black" points="422.5,-1138.41 419,-1128.41 415.5,-1138.41 422.5,-1138.41"/>
</g>
<!-- LAR(m) -->
<g id="node31" class="node">
<title>LAR(m)</title>
<polygon fill="none" stroke="black" points="534.37,-982.8 449.63,-982.8 449.63,-946.8 534.37,-946.8 534.37,-982.8"/>
<text text-anchor="middle" x="492" y="-958.8" font-family="Times,serif" font-size="20.00">LAR(m)</text>
</g>
<!-- LALR&#45;&gt;LAR(m) -->
<g id="edge32" class="edge">
<title>LALR&#45;&gt;LAR(m)</title>
<path fill="none" stroke="black" stroke-dasharray="5,2" d="M424.19,-1237.93C431.47,-1213.75 444.95,-1168.09 455,-1128.8 467.15,-1081.32 479.38,-1025.53 486.29,-993.07"/>
<polygon fill="black" stroke="black" points="489.77,-993.51 488.42,-983.01 482.92,-992.06 489.77,-993.51"/>
</g>
<!-- TDPL -->
<g id="node27" class="node">
<title>TDPL</title>
<polygon fill="none" stroke="black" points="952.99,-1201.2 887.01,-1201.2 887.01,-1165.2 952.99,-1165.2 952.99,-1201.2"/>
<text text-anchor="middle" x="920" y="-1177.2" font-family="Times,serif" font-size="20.00">TDPL</text>
</g>
<!-- PEG -->
<g id="node34" class="node">
<title>PEG</title>
<polygon fill="none" stroke="black" points="947,-764.4 893,-764.4 893,-728.4 947,-728.4 947,-764.4"/>
<text text-anchor="middle" x="920" y="-740.4" font-family="Times,serif" font-size="20.00">PEG</text>
</g>
<!-- TDPL&#45;&gt;PEG -->
<g id="edge43" class="edge">
<title>TDPL&#45;&gt;PEG</title>
<path fill="none" stroke="black" stroke-dasharray="5,2" d="M920,-1164.96C920,-1138 920,-1084.22 920,-1038.6 920,-1038.6 920,-1038.6 920,-891 920,-850.55 920,-803.68 920,-774.78"/>
<polygon fill="black" stroke="black" points="923.5,-774.64 920,-764.64 916.5,-774.64 923.5,-774.64"/>
</g>
<!-- GLR* -->
<g id="node32" class="node">
<title>GLR*</title>
<polygon fill="none" stroke="black" points="315.99,-910 250.01,-910 250.01,-874 315.99,-874 315.99,-910"/>
<text text-anchor="middle" x="283" y="-886" font-family="Times,serif" font-size="20.00">GLR*</text>
</g>
<!-- GLR&#45;&gt;GLR* -->
<g id="edge36" class="edge">
<title>GLR&#45;&gt;GLR*</title>
<path fill="none" stroke="black" d="M336.76,-1019.56C326.26,-994.84 306.7,-948.79 294.29,-919.58"/>
<polygon fill="black" stroke="black" points="297.36,-917.85 290.23,-910.01 290.92,-920.59 297.36,-917.85"/>
</g>
<!-- SGLR -->
<g id="node33" class="node">
<title>SGLR</title>
<polygon fill="none" stroke="black" points="436.61,-837.2 369.39,-837.2 369.39,-801.2 436.61,-801.2 436.61,-837.2"/>
<text text-anchor="middle" x="403" y="-813.2" font-family="Times,serif" font-size="20.00">SGLR</text>
</g>
<!-- GLR&#45;&gt;SGLR -->
<g id="edge34" class="edge">
<title>GLR&#45;&gt;SGLR</title>
<path fill="none" stroke="black" stroke-dasharray="5,2" d="M348.73,-1019.26C359,-981.57 383.42,-892 395.7,-846.99"/>
<polygon fill="black" stroke="black" points="399.08,-847.89 398.33,-837.33 392.32,-846.05 399.08,-847.89"/>
</g>
<!-- RIGLR -->
<g id="node35" class="node">
<title>RIGLR</title>
<polygon fill="none" stroke="black" points="291.99,-691.6 216.01,-691.6 216.01,-655.6 291.99,-655.6 291.99,-691.6"/>
<text text-anchor="middle" x="254" y="-667.6" font-family="Times,serif" font-size="20.00">RIGLR</text>
</g>
<!-- GLR&#45;&gt;RIGLR -->
<g id="edge39" class="edge">
<title>GLR&#45;&gt;RIGLR</title>
<path fill="none" stroke="black" stroke-dasharray="5,2" d="M315.7,-1020.16C279.66,-996.86 222,-950.58 222,-893 222,-893 222,-893 222,-818.2 222,-776.8 234.83,-730.25 244.24,-701.68"/>
<polygon fill="black" stroke="black" points="247.62,-702.6 247.52,-692.01 241,-700.35 247.62,-702.6"/>
</g>
<!-- GLR&#45;&gt;GLL -->
<g id="edge49" class="edge">
<title>GLR&#45;&gt;GLL</title>
<path fill="none" stroke="black" stroke-dasharray="1,5" d="M356.95,-1019.39C388.16,-976.15 465,-858.43 465,-747.4 465,-747.4 465,-747.4 465,-599.8 465,-546.42 511.41,-497.85 539.69,-473.2"/>
</g>
<!-- IGLR -->
<g id="node39" class="node">
<title>IGLR</title>
<polygon fill="none" stroke="black" points="334.15,-473.2 271.85,-473.2 271.85,-437.2 334.15,-437.2 334.15,-473.2"/>
<text text-anchor="middle" x="303" y="-449.2" font-family="Times,serif" font-size="20.00">IGLR</text>
</g>
<!-- GLR&#45;&gt;IGLR -->
<g id="edge37" class="edge">
<title>GLR&#45;&gt;IGLR</title>
<path fill="none" stroke="black" stroke-dasharray="5,2" d="M343.7,-1019.32C342.93,-974.46 341,-850.58 341,-747.4 341,-747.4 341,-747.4 341,-599.8 341,-558 325.77,-511.56 314.59,-483.12"/>
<polygon fill="black" stroke="black" points="317.69,-481.45 310.69,-473.49 311.2,-484.08 317.69,-481.45"/>
</g>
<!-- LL(*) -->
<g id="node42" class="node">
<title>LL(*)</title>
<polygon fill="none" stroke="black" points="593.75,-400.4 530.25,-400.4 530.25,-364.4 593.75,-364.4 593.75,-400.4"/>
<text text-anchor="middle" x="562" y="-376.4" font-family="Times,serif" font-size="20.00">LL(*)</text>
</g>
<!-- Efficient LL(k)&#45;&gt;LL(*) -->
<g id="edge27" class="edge">
<title>Efficient LL(k)&#45;&gt;LL(*)</title>
<path fill="none" stroke="black" d="M654.85,-946.68C648.73,-919.88 638,-866.31 638,-820.2 638,-820.2 638,-820.2 638,-527 638,-480.99 607.14,-435.31 584.75,-408.22"/>
<polygon fill="black" stroke="black" points="587.27,-405.77 578.12,-400.43 581.94,-410.31 587.27,-405.77"/>
</g>
<!-- LAR(m)&#45;&gt;LL(*) -->
<g id="edge48" class="edge">
<title>LAR(m)&#45;&gt;LL(*)</title>
<path fill="none" stroke="black" stroke-dasharray="1,5" d="M494.57,-946.6C498.36,-919.71 505,-866.01 505,-820.2 505,-820.2 505,-820.2 505,-527 505,-485.94 508.55,-474.43 525,-436.8 530.69,-423.78 539.74,-410.64 547.47,-400.65"/>
</g>
<!-- MSGLR -->
<g id="node45" class="node">
<title>MSGLR</title>
<polygon fill="none" stroke="black" points="399.39,-182 314.61,-182 314.61,-146 399.39,-146 399.39,-182"/>
<text text-anchor="middle" x="357" y="-158" font-family="Times,serif" font-size="20.00">MSGLR</text>
</g>
<!-- SGLR&#45;&gt;MSGLR -->
<g id="edge35" class="edge">
<title>SGLR&#45;&gt;MSGLR</title>
<path fill="none" stroke="black" stroke-dasharray="5,2" d="M398.26,-801.11C391.26,-774.36 379,-720.86 379,-674.6 379,-674.6 379,-674.6 379,-308.6 379,-267.67 370.16,-220.93 363.69,-192.2"/>
<polygon fill="black" stroke="black" points="367.02,-191.06 361.35,-182.11 360.2,-192.64 367.02,-191.06"/>
</g>
<!-- ISGLR -->
<g id="node47" class="node">
<title>ISGLR</title>
<polygon fill="none" stroke="black" points="393.77,-36.4 320.23,-36.4 320.23,-0.4 393.77,-0.4 393.77,-36.4"/>
<text text-anchor="middle" x="357" y="-12.4" font-family="Times,serif" font-size="20.00">ISGLR</text>
</g>
<!-- SGLR&#45;&gt;ISGLR -->
<g id="edge42" class="edge">
<title>SGLR&#45;&gt;ISGLR</title>
<path fill="none" stroke="black" stroke-dasharray="5,2" d="M407.74,-801.11C414.74,-774.36 427,-720.86 427,-674.6 427,-674.6 427,-674.6 427,-163 427,-117.95 398.82,-72.26 378.22,-44.88"/>
<polygon fill="black" stroke="black" points="380.74,-42.41 371.85,-36.65 375.21,-46.7 380.74,-42.41"/>
</g>
<!-- Tratt&#39;s PEG -->
<g id="node41" class="node">
<title>Tratt&#39;s PEG</title>
<polygon fill="none" stroke="black" points="934.08,-473.2 821.92,-473.2 821.92,-437.2 934.08,-437.2 934.08,-473.2"/>
<text text-anchor="middle" x="878" y="-449.2" font-family="Times,serif" font-size="20.00">Tratt&#39;s PEG</text>
</g>
<!-- PEG&#45;&gt;Tratt&#39;s PEG -->
<g id="edge45" class="edge">
<title>PEG&#45;&gt;Tratt&#39;s PEG</title>
<path fill="none" stroke="black" stroke-dasharray="5,2" d="M917.5,-728.18C910.47,-679.75 890.48,-542.13 881.94,-483.35"/>
<polygon fill="black" stroke="black" points="885.39,-482.73 880.49,-473.33 878.46,-483.73 885.39,-482.73"/>
</g>
<!-- Pika -->
<g id="node48" class="node">
<title>Pika</title>
<polygon fill="none" stroke="black" points="989,-36.4 935,-36.4 935,-0.4 989,-0.4 989,-36.4"/>
<text text-anchor="middle" x="962" y="-12.4" font-family="Times,serif" font-size="20.00">Pika</text>
</g>
<!-- PEG&#45;&gt;Pika -->
<g id="edge44" class="edge">
<title>PEG&#45;&gt;Pika</title>
<path fill="none" stroke="black" stroke-dasharray="5,2" d="M928.5,-728.19C940.77,-701.71 962,-649.07 962,-601.8 962,-601.8 962,-601.8 962,-163 962,-122.55 962,-75.68 962,-46.78"/>
<polygon fill="black" stroke="black" points="965.5,-46.64 962,-36.64 958.5,-46.64 965.5,-46.64"/>
</g>
<!-- RNGLR -->
<g id="node36" class="node">
<title>RNGLR</title>
<polygon fill="none" stroke="black" points="299.77,-618.8 216.23,-618.8 216.23,-582.8 299.77,-582.8 299.77,-618.8"/>
<text text-anchor="middle" x="258" y="-594.8" font-family="Times,serif" font-size="20.00">RNGLR</text>
</g>
<!-- RIGLR&#45;&gt;RNGLR -->
<g id="edge40" class="edge">
<title>RIGLR&#45;&gt;RNGLR</title>
<path fill="none" stroke="black" d="M254.97,-655.46C255.41,-647.66 255.94,-638.24 256.44,-629.48"/>
<polygon fill="black" stroke="black" points="259.94,-629.45 257.01,-619.27 252.95,-629.06 259.94,-629.45"/>
</g>
<!-- BRNGLR -->
<g id="node37" class="node">
<title>BRNGLR</title>
<polygon fill="none" stroke="black" points="309.61,-546 212.39,-546 212.39,-510 309.61,-510 309.61,-546"/>
<text text-anchor="middle" x="261" y="-522" font-family="Times,serif" font-size="20.00">BRNGLR</text>
</g>
<!-- RNGLR&#45;&gt;BRNGLR -->
<g id="edge41" class="edge">
<title>RNGLR&#45;&gt;BRNGLR</title>
<path fill="none" stroke="black" d="M258.73,-582.66C259.06,-574.86 259.46,-565.44 259.83,-556.68"/>
<polygon fill="black" stroke="black" points="263.33,-556.61 260.26,-546.47 256.34,-556.32 263.33,-556.61"/>
</g>
<!-- IGLR&#45;&gt;ISGLR -->
<g id="edge38" class="edge">
<title>IGLR&#45;&gt;ISGLR</title>
<path fill="none" stroke="black" stroke-dasharray="5,2" d="M299.84,-437.03C295.18,-410.16 287,-356.51 287,-310.6 287,-310.6 287,-310.6 287,-163 287,-117.95 315.18,-72.26 335.78,-44.88"/>
<polygon fill="black" stroke="black" points="338.79,-46.7 342.15,-36.65 333.26,-42.41 338.79,-46.7"/>
</g>
<!-- ALL(*) -->
<g id="node43" class="node">
<title>ALL(*)</title>
<polygon fill="none" stroke="black" points="601.19,-327.6 522.81,-327.6 522.81,-291.6 601.19,-291.6 601.19,-327.6"/>
<text text-anchor="middle" x="562" y="-303.6" font-family="Times,serif" font-size="20.00">ALL(*)</text>
</g>
<!-- LL(*)&#45;&gt;ALL(*) -->
<g id="edge28" class="edge">
<title>LL(*)&#45;&gt;ALL(*)</title>
<path fill="none" stroke="black" d="M562,-364.26C562,-356.46 562,-347.04 562,-338.28"/>
<polygon fill="black" stroke="black" points="565.5,-338.07 562,-328.07 558.5,-338.07 565.5,-338.07"/>
</g>
</g>
</svg>
