<?xml version="1.0" encoding="UTF-8" standalone="no"?>
<!DOCTYPE svg PUBLIC "-//W3C//DTD SVG 1.1//EN"
 "http://www.w3.org/Graphics/SVG/1.1/DTD/svg11.dtd">
<!-- Generated by graphviz version 2.44.1 (20201217.1751)
 -->
<!-- Title: shells Pages: 1 -->
<svg width="340pt" height="576pt"
 viewBox="0.00 0.00 340.03 576.00" xmlns="http://www.w3.org/2000/svg" xmlns:xlink="http://www.w3.org/1999/xlink">
<g id="graph0" class="graph" transform="scale(0.4 0.4) rotate(0) translate(4 1424)">
<title>shells</title>
<polygon fill="white" stroke="transparent" points="-4,4 -4,-1424 839,-1424 839,4 -4,4"/>
<!-- 1961 -->
<g id="node1" class="node">
<title>1961</title>
<text text-anchor="middle" x="32" y="-1394.4" font-family="Times,serif" font-size="24.00">1961</text>
</g>
<!-- 1965 -->
<g id="node2" class="node">
<title>1965</title>
<text text-anchor="middle" x="32" y="-1321.6" font-family="Times,serif" font-size="24.00">1965</text>
</g>
<!-- 1961&#45;&gt;1965 -->
<!-- 1968 -->
<g id="node3" class="node">
<title>1968</title>
<text text-anchor="middle" x="32" y="-1248.8" font-family="Times,serif" font-size="24.00">1968</text>
</g>
<!-- 1965&#45;&gt;1968 -->
<!-- 1969 -->
<g id="node4" class="node">
<title>1969</title>
<text text-anchor="middle" x="32" y="-1176" font-family="Times,serif" font-size="24.00">1969</text>
</g>
<!-- 1968&#45;&gt;1969 -->
<!-- 1970 -->
<g id="node5" class="node">
<title>1970</title>
<text text-anchor="middle" x="32" y="-1103.2" font-family="Times,serif" font-size="24.00">1970</text>
</g>
<!-- 1969&#45;&gt;1970 -->
<!-- 1971 -->
<g id="node6" class="node">
<title>1971</title>
<text text-anchor="middle" x="32" y="-1030.4" font-family="Times,serif" font-size="24.00">1971</text>
</g>
<!-- 1970&#45;&gt;1971 -->
<!-- 1984 -->
<g id="node7" class="node">
<title>1984</title>
<text text-anchor="middle" x="32" y="-957.6" font-family="Times,serif" font-size="24.00">1984</text>
</g>
<!-- 1971&#45;&gt;1984 -->
<!-- 1990 -->
<g id="node8" class="node">
<title>1990</title>
<text text-anchor="middle" x="32" y="-884.8" font-family="Times,serif" font-size="24.00">1990</text>
</g>
<!-- 1984&#45;&gt;1990 -->
<!-- 1993 -->
<g id="node9" class="node">
<title>1993</title>
<text text-anchor="middle" x="32" y="-812" font-family="Times,serif" font-size="24.00">1993</text>
</g>
<!-- 1990&#45;&gt;1993 -->
<!-- 1999 -->
<g id="node10" class="node">
<title>1999</title>
<text text-anchor="middle" x="32" y="-739.2" font-family="Times,serif" font-size="24.00">1999</text>
</g>
<!-- 1993&#45;&gt;1999 -->
<!-- 2004 -->
<g id="node11" class="node">
<title>2004</title>
<text text-anchor="middle" x="32" y="-666.4" font-family="Times,serif" font-size="24.00">2004</text>
</g>
<!-- 1999&#45;&gt;2004 -->
<!-- 2005 -->
<g id="node12" class="node">
<title>2005</title>
<text text-anchor="middle" x="32" y="-593.6" font-family="Times,serif" font-size="24.00">2005</text>
</g>
<!-- 2004&#45;&gt;2005 -->
<!-- 2006 -->
<g id="node13" class="node">
<title>2006</title>
<text text-anchor="middle" x="32" y="-520.8" font-family="Times,serif" font-size="24.00">2006</text>
</g>
<!-- 2005&#45;&gt;2006 -->
<!-- 2007 -->
<g id="node14" class="node">
<title>2007</title>
<text text-anchor="middle" x="32" y="-448" font-family="Times,serif" font-size="24.00">2007</text>
</g>
<!-- 2006&#45;&gt;2007 -->
<!-- 2010 -->
<g id="node15" class="node">
<title>2010</title>
<text text-anchor="middle" x="32" y="-375.2" font-family="Times,serif" font-size="24.00">2010</text>
</g>
<!-- 2007&#45;&gt;2010 -->
<!-- 2011 -->
<g id="node16" class="node">
<title>2011</title>
<text text-anchor="middle" x="32" y="-302.4" font-family="Times,serif" font-size="24.00">2011</text>
</g>
<!-- 2010&#45;&gt;2011 -->
<!-- 2014 -->
<g id="node17" class="node">
<title>2014</title>
<text text-anchor="middle" x="32" y="-229.6" font-family="Times,serif" font-size="24.00">2014</text>
</g>
<!-- 2011&#45;&gt;2014 -->
<!-- 2016 -->
<g id="node18" class="node">
<title>2016</title>
<text text-anchor="middle" x="32" y="-156.8" font-family="Times,serif" font-size="24.00">2016</text>
</g>
<!-- 2014&#45;&gt;2016 -->
<!-- 2018 -->
<g id="node19" class="node">
<title>2018</title>
<text text-anchor="middle" x="32" y="-84" font-family="Times,serif" font-size="24.00">2018</text>
</g>
<!-- 2016&#45;&gt;2018 -->
<!-- 2020 -->
<g id="node20" class="node">
<title>2020</title>
<text text-anchor="middle" x="32" y="-11.2" font-family="Times,serif" font-size="24.00">2020</text>
</g>
<!-- 2018&#45;&gt;2020 -->
<!-- CYK -->
<g id="node21" class="node">
<title>CYK</title>
<polygon fill="none" stroke="black" points="574.21,-1419.6 515.79,-1419.6 515.79,-1383.6 574.21,-1383.6 574.21,-1419.6"/>
<text text-anchor="middle" x="545" y="-1395.6" font-family="Times,serif" font-size="20.00">CYK</text>
</g>
<!-- Earley -->
<g id="node23" class="node">
<title>Earley</title>
<polygon fill="none" stroke="black" points="579.19,-1274 510.81,-1274 510.81,-1238 579.19,-1238 579.19,-1274"/>
<text text-anchor="middle" x="545" y="-1250" font-family="Times,serif" font-size="20.00">Earley</text>
</g>
<!-- CYK&#45;&gt;Earley -->
<g id="edge20" class="edge">
<title>CYK&#45;&gt;Earley</title>
<path fill="none" stroke="black" stroke-dasharray="1,5" d="M545,-1383.56C545,-1359.06 545,-1313.6 545,-1284.35"/>
<polygon fill="black" stroke="black" points="548.5,-1284.01 545,-1274.01 541.5,-1284.01 548.5,-1284.01"/>
</g>
<!-- LR -->
<g id="node22" class="node">
<title>LR</title>
<polygon fill="none" stroke="black" points="491,-1346.8 437,-1346.8 437,-1310.8 491,-1310.8 491,-1346.8"/>
<text text-anchor="middle" x="464" y="-1322.8" font-family="Times,serif" font-size="20.00">LR</text>
</g>
<!-- LR&#45;&gt;Earley -->
<g id="edge21" class="edge">
<title>LR&#45;&gt;Earley</title>
<path fill="none" stroke="black" stroke-dasharray="1,5" d="M483.61,-1310.66C493.78,-1301.77 506.37,-1290.76 517.5,-1281.03"/>
<polygon fill="black" stroke="black" points="520.07,-1283.44 525.29,-1274.23 515.46,-1278.17 520.07,-1283.44"/>
</g>
<!-- LALR -->
<g id="node25" class="node">
<title>LALR</title>
<polygon fill="none" stroke="black" points="417.21,-1201.2 348.79,-1201.2 348.79,-1165.2 417.21,-1165.2 417.21,-1201.2"/>
<text text-anchor="middle" x="383" y="-1177.2" font-family="Times,serif" font-size="20.00">LALR</text>
</g>
<!-- LR&#45;&gt;LALR -->
<g id="edge27" class="edge">
<title>LR&#45;&gt;LALR</title>
<path fill="none" stroke="black" stroke-dasharray="5,2" d="M453.01,-1310.65C446.46,-1300.26 438.06,-1286.69 431,-1274.4 418.85,-1253.24 405.9,-1228.79 396.52,-1210.68"/>
<polygon fill="black" stroke="black" points="399.39,-1208.62 391.7,-1201.34 393.17,-1211.83 399.39,-1208.62"/>
</g>
<!-- GLR -->
<g id="node28" class="node">
<title>GLR</title>
<polygon fill="none" stroke="black" points="572.99,-982.8 517.01,-982.8 517.01,-946.8 572.99,-946.8 572.99,-982.8"/>
<text text-anchor="middle" x="545" y="-958.8" font-family="Times,serif" font-size="20.00">GLR</text>
</g>
<!-- LR&#45;&gt;GLR -->
<g id="edge30" class="edge">
<title>LR&#45;&gt;GLR</title>
<path fill="none" stroke="black" stroke-dasharray="5,2" d="M467.75,-1310.66C473.29,-1283.83 483,-1230.22 483,-1184.2 483,-1184.2 483,-1184.2 483,-1109.4 483,-1065.05 508.24,-1018.84 526.51,-991.2"/>
<polygon fill="black" stroke="black" points="529.42,-993.13 532.15,-982.9 523.63,-989.2 529.42,-993.13"/>
</g>
<!-- LLLR -->
<g id="node42" class="node">
<title>LLLR</title>
<polygon fill="none" stroke="black" points="312.99,-182 247.01,-182 247.01,-146 312.99,-146 312.99,-182"/>
<text text-anchor="middle" x="280" y="-158" font-family="Times,serif" font-size="20.00">LLLR</text>
</g>
<!-- LR&#45;&gt;LLLR -->
<g id="edge43" class="edge">
<title>LR&#45;&gt;LLLR</title>
<path fill="none" stroke="black" stroke-dasharray="5,2" d="M460.25,-1310.66C454.71,-1283.83 445,-1230.22 445,-1184.2 445,-1184.2 445,-1184.2 445,-308.6 445,-243.63 371.3,-201.36 322.41,-180.47"/>
<polygon fill="black" stroke="black" points="323.57,-177.16 312.99,-176.58 320.9,-183.63 323.57,-177.16"/>
</g>
<!-- Earley&#45;&gt;GLR -->
<g id="edge22" class="edge">
<title>Earley&#45;&gt;GLR</title>
<path fill="none" stroke="black" stroke-dasharray="1,5" d="M545,-1237.78C545,-1189.35 545,-1051.73 545,-992.95"/>
<polygon fill="black" stroke="black" points="548.5,-992.93 545,-982.93 541.5,-992.93 548.5,-992.93"/>
</g>
<!-- LL(k) -->
<g id="node24" class="node">
<title>LL(k)</title>
<polygon fill="none" stroke="black" points="231.75,-1274 168.25,-1274 168.25,-1238 231.75,-1238 231.75,-1274"/>
<text text-anchor="middle" x="200" y="-1250" font-family="Times,serif" font-size="20.00">LL(k)</text>
</g>
<!-- Efficient LL(k) -->
<g id="node29" class="node">
<title>Efficient LL(k)</title>
<polygon fill="none" stroke="black" points="269.22,-910 130.78,-910 130.78,-874 269.22,-874 269.22,-910"/>
<text text-anchor="middle" x="200" y="-886" font-family="Times,serif" font-size="20.00">Efficient LL(k)</text>
</g>
<!-- LL(k)&#45;&gt;Efficient LL(k) -->
<g id="edge23" class="edge">
<title>LL(k)&#45;&gt;Efficient LL(k)</title>
<path fill="none" stroke="black" stroke-dasharray="5,2" d="M200,-1237.76C200,-1210.8 200,-1157.02 200,-1111.4 200,-1111.4 200,-1111.4 200,-1036.6 200,-996.15 200,-949.28 200,-920.38"/>
<polygon fill="black" stroke="black" points="203.5,-920.24 200,-910.24 196.5,-920.24 203.5,-920.24"/>
</g>
<!-- GLL -->
<g id="node38" class="node">
<title>GLL</title>
<polygon fill="none" stroke="black" points="328.37,-400.4 273.63,-400.4 273.63,-364.4 328.37,-364.4 328.37,-400.4"/>
<text text-anchor="middle" x="301" y="-376.4" font-family="Times,serif" font-size="20.00">GLL</text>
</g>
<!-- LL(k)&#45;&gt;GLL -->
<g id="edge26" class="edge">
<title>LL(k)&#45;&gt;GLL</title>
<path fill="none" stroke="black" stroke-dasharray="5,2" d="M222.01,-1237.63C250.63,-1212.91 297,-1164.65 297,-1111.4 297,-1111.4 297,-1111.4 297,-527 297,-486.53 298.61,-439.67 299.78,-410.78"/>
<polygon fill="black" stroke="black" points="303.29,-410.78 300.21,-400.64 296.29,-410.48 303.29,-410.78"/>
</g>
<!-- LL(k)&#45;&gt;LLLR -->
<g id="edge42" class="edge">
<title>LL(k)&#45;&gt;LLLR</title>
<path fill="none" stroke="black" stroke-dasharray="5,2" d="M177.99,-1237.63C149.37,-1212.91 103,-1164.65 103,-1111.4 103,-1111.4 103,-1111.4 103,-308.6 103,-239.68 184.92,-198.08 237.3,-178.51"/>
<polygon fill="black" stroke="black" points="238.49,-181.81 246.71,-175.12 236.11,-175.22 238.49,-181.81"/>
</g>
<!-- SLR -->
<g id="node27" class="node">
<title>SLR</title>
<polygon fill="none" stroke="black" points="417,-1055.6 363,-1055.6 363,-1019.6 417,-1019.6 417,-1055.6"/>
<text text-anchor="middle" x="390" y="-1031.6" font-family="Times,serif" font-size="20.00">SLR</text>
</g>
<!-- LALR&#45;&gt;SLR -->
<g id="edge28" class="edge">
<title>LALR&#45;&gt;SLR</title>
<path fill="none" stroke="black" d="M383.83,-1165.16C385.03,-1140.66 387.24,-1095.2 388.67,-1065.95"/>
<polygon fill="black" stroke="black" points="392.18,-1065.77 389.17,-1055.61 385.19,-1065.43 392.18,-1065.77"/>
</g>
<!-- LAR(m) -->
<g id="node30" class="node">
<title>LAR(m)</title>
<polygon fill="none" stroke="black" points="409.37,-910 324.63,-910 324.63,-874 409.37,-874 409.37,-910"/>
<text text-anchor="middle" x="367" y="-886" font-family="Times,serif" font-size="20.00">LAR(m)</text>
</g>
<!-- LALR&#45;&gt;LAR(m) -->
<g id="edge29" class="edge">
<title>LALR&#45;&gt;LAR(m)</title>
<path fill="none" stroke="black" stroke-dasharray="5,2" d="M377.7,-1164.86C370.63,-1140.73 358.48,-1095.54 354,-1056 348.6,-1008.36 355.98,-952.62 361.63,-920.22"/>
<polygon fill="black" stroke="black" points="365.12,-920.63 363.46,-910.17 358.23,-919.38 365.12,-920.63"/>
</g>
<!-- TDPL -->
<g id="node26" class="node">
<title>TDPL</title>
<polygon fill="none" stroke="black" points="834.99,-1128.4 769.01,-1128.4 769.01,-1092.4 834.99,-1092.4 834.99,-1128.4"/>
<text text-anchor="middle" x="802" y="-1104.4" font-family="Times,serif" font-size="20.00">TDPL</text>
</g>
<!-- PEG -->
<g id="node33" class="node">
<title>PEG</title>
<polygon fill="none" stroke="black" points="829,-691.6 775,-691.6 775,-655.6 829,-655.6 829,-691.6"/>
<text text-anchor="middle" x="802" y="-667.6" font-family="Times,serif" font-size="20.00">PEG</text>
</g>
<!-- TDPL&#45;&gt;PEG -->
<g id="edge40" class="edge">
<title>TDPL&#45;&gt;PEG</title>
<path fill="none" stroke="black" stroke-dasharray="5,2" d="M802,-1092.16C802,-1065.2 802,-1011.42 802,-965.8 802,-965.8 802,-965.8 802,-818.2 802,-777.75 802,-730.88 802,-701.98"/>
<polygon fill="black" stroke="black" points="805.5,-701.84 802,-691.84 798.5,-701.84 805.5,-701.84"/>
</g>
<!-- GLR* -->
<g id="node31" class="node">
<title>GLR*</title>
<polygon fill="none" stroke="black" points="614.99,-837.2 549.01,-837.2 549.01,-801.2 614.99,-801.2 614.99,-837.2"/>
<text text-anchor="middle" x="582" y="-813.2" font-family="Times,serif" font-size="20.00">GLR*</text>
</g>
<!-- GLR&#45;&gt;GLR* -->
<g id="edge33" class="edge">
<title>GLR&#45;&gt;GLR*</title>
<path fill="none" stroke="black" d="M549.39,-946.76C555.73,-922.15 567.52,-876.39 575.05,-847.17"/>
<polygon fill="black" stroke="black" points="578.51,-847.77 577.62,-837.21 571.73,-846.02 578.51,-847.77"/>
</g>
<!-- SGLR -->
<g id="node32" class="node">
<title>SGLR</title>
<polygon fill="none" stroke="black" points="738.61,-764.4 671.39,-764.4 671.39,-728.4 738.61,-728.4 738.61,-764.4"/>
<text text-anchor="middle" x="705" y="-740.4" font-family="Times,serif" font-size="20.00">SGLR</text>
</g>
<!-- GLR&#45;&gt;SGLR -->
<g id="edge31" class="edge">
<title>GLR&#45;&gt;SGLR</title>
<path fill="none" stroke="black" stroke-dasharray="5,2" d="M573.43,-957.29C598.85,-950.02 635.33,-935.81 657,-910.4 690.31,-871.34 700.51,-810.08 703.63,-774.84"/>
<polygon fill="black" stroke="black" points="707.13,-775.02 704.39,-764.79 700.15,-774.5 707.13,-775.02"/>
</g>
<!-- RIGLR -->
<g id="node34" class="node">
<title>RIGLR</title>
<polygon fill="none" stroke="black" points="659.99,-618.8 584.01,-618.8 584.01,-582.8 659.99,-582.8 659.99,-618.8"/>
<text text-anchor="middle" x="622" y="-594.8" font-family="Times,serif" font-size="20.00">RIGLR</text>
</g>
<!-- GLR&#45;&gt;RIGLR -->
<g id="edge36" class="edge">
<title>GLR&#45;&gt;RIGLR</title>
<path fill="none" stroke="black" stroke-dasharray="5,2" d="M567.24,-946.48C596.15,-921.82 643,-873.62 643,-820.2 643,-820.2 643,-820.2 643,-745.4 643,-704.52 634.56,-657.76 628.38,-629.01"/>
<polygon fill="black" stroke="black" points="631.73,-627.93 626.15,-618.92 624.89,-629.44 631.73,-627.93"/>
</g>
<!-- GLR&#45;&gt;GLL -->
<g id="edge45" class="edge">
<title>GLR&#45;&gt;GLL</title>
<path fill="none" stroke="black" stroke-dasharray="1,5" d="M532.15,-946.7C513.99,-920.78 483,-869.35 483,-820.2 483,-820.2 483,-820.2 483,-527 483,-449.32 379.56,-407.15 328.64,-391.1"/>
</g>
<!-- IGLR -->
<g id="node39" class="node">
<title>IGLR</title>
<polygon fill="none" stroke="black" points="581.15,-400.4 518.85,-400.4 518.85,-364.4 581.15,-364.4 581.15,-400.4"/>
<text text-anchor="middle" x="550" y="-376.4" font-family="Times,serif" font-size="20.00">IGLR</text>
</g>
<!-- GLR&#45;&gt;IGLR -->
<g id="edge34" class="edge">
<title>GLR&#45;&gt;IGLR</title>
<path fill="none" stroke="black" stroke-dasharray="5,2" d="M540.26,-946.71C533.26,-919.96 521,-866.46 521,-820.2 521,-820.2 521,-820.2 521,-527 521,-485.55 532.75,-438.67 541.3,-410.08"/>
<polygon fill="black" stroke="black" points="544.67,-411 544.27,-400.42 537.98,-408.94 544.67,-411"/>
</g>
<!-- LL(*) -->
<g id="node40" class="node">
<title>LL(*)</title>
<polygon fill="none" stroke="black" points="336.75,-327.6 273.25,-327.6 273.25,-291.6 336.75,-291.6 336.75,-327.6"/>
<text text-anchor="middle" x="305" y="-303.6" font-family="Times,serif" font-size="20.00">LL(*)</text>
</g>
<!-- Efficient LL(k)&#45;&gt;LL(*) -->
<g id="edge24" class="edge">
<title>Efficient LL(k)&#45;&gt;LL(*)</title>
<path fill="none" stroke="black" d="M204.94,-873.93C212.22,-847.19 225,-793.71 225,-747.4 225,-747.4 225,-747.4 225,-454.2 225,-407.91 257.12,-362.62 280.66,-335.66"/>
<polygon fill="black" stroke="black" points="283.55,-337.67 287.64,-327.89 278.35,-332.99 283.55,-337.67"/>
</g>
<!-- LAR(m)&#45;&gt;LL(*) -->
<g id="edge44" class="edge">
<title>LAR(m)&#45;&gt;LL(*)</title>
<path fill="none" stroke="black" stroke-dasharray="1,5" d="M365.62,-873.77C363.58,-846.83 360,-793.08 360,-747.4 360,-747.4 360,-747.4 360,-454.2 360,-412.83 352.91,-402.19 337,-364 331.68,-351.23 323.68,-337.88 317.01,-327.72"/>
</g>
<!-- MSGLR -->
<g id="node43" class="node">
<title>MSGLR</title>
<polygon fill="none" stroke="black" points="719.39,-109.2 634.61,-109.2 634.61,-73.2 719.39,-73.2 719.39,-109.2"/>
<text text-anchor="middle" x="677" y="-85.2" font-family="Times,serif" font-size="20.00">MSGLR</text>
</g>
<!-- SGLR&#45;&gt;MSGLR -->
<g id="edge32" class="edge">
<title>SGLR&#45;&gt;MSGLR</title>
<path fill="none" stroke="black" stroke-dasharray="5,2" d="M702.63,-728.2C699.13,-701.29 693,-647.58 693,-601.8 693,-601.8 693,-601.8 693,-235.8 693,-195.09 686.57,-148.3 681.86,-119.48"/>
<polygon fill="black" stroke="black" points="685.27,-118.65 680.16,-109.37 678.37,-119.81 685.27,-118.65"/>
</g>
<!-- ISGLR -->
<g id="node44" class="node">
<title>ISGLR</title>
<polygon fill="none" stroke="black" points="698.77,-36.4 625.23,-36.4 625.23,-0.4 698.77,-0.4 698.77,-36.4"/>
<text text-anchor="middle" x="662" y="-12.4" font-family="Times,serif" font-size="20.00">ISGLR</text>
</g>
<!-- SGLR&#45;&gt;ISGLR -->
<g id="edge39" class="edge">
<title>SGLR&#45;&gt;ISGLR</title>
<path fill="none" stroke="black" stroke-dasharray="5,2" d="M713.5,-728.19C725.77,-701.71 747,-649.07 747,-601.8 747,-601.8 747,-601.8 747,-163 747,-122.03 749.38,-107.75 728,-72.8 720.83,-61.08 710.13,-50.81 699.42,-42.49"/>
<polygon fill="black" stroke="black" points="701.42,-39.62 691.28,-36.52 697.27,-45.26 701.42,-39.62"/>
</g>
<!-- Pika -->
<g id="node35" class="node">
<title>Pika</title>
<polygon fill="none" stroke="black" points="829,-618.8 775,-618.8 775,-582.8 829,-582.8 829,-618.8"/>
<text text-anchor="middle" x="802" y="-594.8" font-family="Times,serif" font-size="20.00">Pika</text>
</g>
<!-- PEG&#45;&gt;Pika -->
<g id="edge41" class="edge">
<title>PEG&#45;&gt;Pika</title>
<path fill="none" stroke="black" stroke-dasharray="5,2" d="M802,-655.46C802,-647.66 802,-638.24 802,-629.48"/>
<polygon fill="black" stroke="black" points="805.5,-629.27 802,-619.27 798.5,-629.27 805.5,-629.27"/>
</g>
<!-- RNGLR -->
<g id="node36" class="node">
<title>RNGLR</title>
<polygon fill="none" stroke="black" points="660.77,-546 577.23,-546 577.23,-510 660.77,-510 660.77,-546"/>
<text text-anchor="middle" x="619" y="-522" font-family="Times,serif" font-size="20.00">RNGLR</text>
</g>
<!-- RIGLR&#45;&gt;RNGLR -->
<g id="edge37" class="edge">
<title>RIGLR&#45;&gt;RNGLR</title>
<path fill="none" stroke="black" d="M621.27,-582.66C620.94,-574.86 620.54,-565.44 620.17,-556.68"/>
<polygon fill="black" stroke="black" points="623.66,-556.32 619.74,-546.47 616.67,-556.61 623.66,-556.32"/>
</g>
<!-- BRNGLR -->
<g id="node37" class="node">
<title>BRNGLR</title>
<polygon fill="none" stroke="black" points="664.61,-473.2 567.39,-473.2 567.39,-437.2 664.61,-437.2 664.61,-473.2"/>
<text text-anchor="middle" x="616" y="-449.2" font-family="Times,serif" font-size="20.00">BRNGLR</text>
</g>
<!-- RNGLR&#45;&gt;BRNGLR -->
<g id="edge38" class="edge">
<title>RNGLR&#45;&gt;BRNGLR</title>
<path fill="none" stroke="black" d="M618.27,-509.86C617.94,-502.06 617.54,-492.64 617.17,-483.88"/>
<polygon fill="black" stroke="black" points="620.66,-483.52 616.74,-473.67 613.67,-483.81 620.66,-483.52"/>
</g>
<!-- IGLR&#45;&gt;ISGLR -->
<g id="edge35" class="edge">
<title>IGLR&#45;&gt;ISGLR</title>
<path fill="none" stroke="black" stroke-dasharray="5,2" d="M555.53,-364.37C563.69,-337.69 578,-284.28 578,-237.8 578,-237.8 578,-237.8 578,-163 578,-115.95 612.02,-70.62 636.76,-43.89"/>
<polygon fill="black" stroke="black" points="639.41,-46.18 643.77,-36.53 634.34,-41.35 639.41,-46.18"/>
</g>
<!-- ALL(*) -->
<g id="node41" class="node">
<title>ALL(*)</title>
<polygon fill="none" stroke="black" points="344.19,-254.8 265.81,-254.8 265.81,-218.8 344.19,-218.8 344.19,-254.8"/>
<text text-anchor="middle" x="305" y="-230.8" font-family="Times,serif" font-size="20.00">ALL(*)</text>
</g>
<!-- LL(*)&#45;&gt;ALL(*) -->
<g id="edge25" class="edge">
<title>LL(*)&#45;&gt;ALL(*)</title>
<path fill="none" stroke="black" d="M305,-291.46C305,-283.66 305,-274.24 305,-265.48"/>
<polygon fill="black" stroke="black" points="308.5,-265.27 305,-255.27 301.5,-265.27 308.5,-265.27"/>
</g>
</g>
</svg>
