<?xml version="1.0" encoding="UTF-8" standalone="no"?>
<!DOCTYPE svg PUBLIC "-//W3C//DTD SVG 1.1//EN"
 "http://www.w3.org/Graphics/SVG/1.1/DTD/svg11.dtd">
<!-- Generated by graphviz version 2.44.1 (20201217.1751)
 -->
<!-- Title: D Pages: 1 -->
<svg width="234pt" height="264pt"
 viewBox="0.00 0.00 234.00 264.00" xmlns="http://www.w3.org/2000/svg" xmlns:xlink="http://www.w3.org/1999/xlink">
<g id="graph0" class="graph" transform="scale(1 1) rotate(0) translate(4 260)">
<title>D</title>
<polygon fill="white" stroke="transparent" points="-4,4 -4,-260 230,-260 230,4 -4,4"/>
<g id="clust1" class="cluster">
<title>cluster_1</title>
<polygon fill="none" stroke="black" points="8,-8 8,-248 218,-248 218,-8 8,-8"/>
<text text-anchor="middle" x="113" y="-231.4" font-family="Times,serif" font-size="14.00">Recursively enumerable</text>
</g>
<g id="clust2" class="cluster">
<title>cluster_2</title>
<polygon fill="none" stroke="black" points="16,-16 16,-215.2 210,-215.2 210,-16 16,-16"/>
<text text-anchor="middle" x="113" y="-198.6" font-family="Times,serif" font-size="14.00">Recursive</text>
</g>
<g id="clust3" class="cluster">
<title>cluster_3</title>
<polygon fill="none" stroke="black" points="24,-24 24,-182.4 202,-182.4 202,-24 24,-24"/>
<text text-anchor="middle" x="113" y="-165.8" font-family="Times,serif" font-size="14.00">Context&#45;sensitive</text>
</g>
<g id="clust4" class="cluster">
<title>cluster_4</title>
<polygon fill="none" stroke="black" points="32,-32 32,-149.6 194,-149.6 194,-32 32,-32"/>
<text text-anchor="middle" x="113" y="-133" font-family="Times,serif" font-size="14.00">non&#45;determnisitic CFG</text>
</g>
<g id="clust5" class="cluster">
<title>cluster_5</title>
<polygon fill="none" stroke="black" points="40,-40 40,-116.8 186,-116.8 186,-40 40,-40"/>
<text text-anchor="middle" x="113" y="-100.2" font-family="Times,serif" font-size="14.00">deterministic CFG</text>
</g>
<!-- Regular expressions -->
<g id="node1" class="node">
<title>Regular expressions</title>
<polygon fill="none" stroke="black" points="177.63,-84 48.37,-84 48.37,-48 177.63,-48 177.63,-84"/>
<text text-anchor="middle" x="113" y="-61.8" font-family="Times,serif" font-size="14.00">Regular expressions</text>
</g>
</g>
</svg>
