<svg viewBox="0 0 16 16" xmlns="http://www.w3.org/2000/svg"><path fill="currentColor" d="m0 0h16v16h-16zm7.46085331 9.04661331-2.74629331-5.14463998h1.25509333l1.61546667 3.25578667c.02485344.05799137.05384875.118053.08698669.18018669.03313794.06213362.06213319.12633743.08698662.19261331.016569.02485344.02899557.04763544.03728.06834669.0082845.02071118.01656888.039351.02485338.05592.04142244.08284481.07870206.16361737.11184.24232.03313794.07870262.06213319.15119075.08698662.21746662.06627594-.14083625.13876407-.29202581.21746669-.45357331.07870263-.1615475.15947513-.32930581.24232-.50328l1.64032-3.25578667h1.1681067l-2.7711467 5.20677336v3.31792001h-1.05626669z" fill-rule="evenodd"/></svg>